<svg xmlns="http://www.w3.org/2000/svg" viewBox="0 0 222.82 808.55"><defs><style>.cls-1{isolation:isolate;}.cls-2{fill:#f987e4;}.cls-2,.cls-3,.cls-6,.cls-7{stroke:#000d3b;stroke-width:3px;}.cls-2,.cls-3,.cls-6{stroke-miterlimit:10;}.cls-3{fill:#cbff66;}.cls-4,.cls-7{fill:#000d3b;}.cls-5{fill:#e1e9ff;opacity:0.35;}.cls-6{fill:#e9ffc2;}.cls-7{stroke-linecap:round;stroke-linejoin:round;}.cls-8{fill:#fae6c6;opacity:0.6;mix-blend-mode:overlay;}</style></defs><g class="cls-1"><g id="Calque_2" data-name="Calque 2"><g id="plateformes"><rect class="cls-2" x="42.28" y="171.07" width="138.26" height="635.98"/><path class="cls-2" d="M1.5,28.13V220.5c0,14.71,49.21,26.63,109.91,26.63s109.91-11.92,109.91-26.63V28.13Z"/><ellipse class="cls-3" cx="111.41" cy="28.13" rx="109.91" ry="26.63"/><path class="cls-4" d="M111.41,101.41c-37.17,0-68.17-6.33-75.18-14.73a.84.84,0,0,0-1.49.53v88.7c0,10.12,34.33,18.34,76.67,18.34s76.67-8.22,76.67-18.34V87.21a.84.84,0,0,0-1.49-.53C179.58,95.08,148.58,101.41,111.41,101.41Z"/><path class="cls-5" d="M36.23,84a.84.84,0,0,0-1.49.52v88.7c0,7.19,17.32,13.42,42.53,16.42L93.53,98.23C64.63,96.58,42.08,91,36.23,84Z"/><path class="cls-6" d="M111.41,197.7c-21,0-40.7-2-55.64-5.54-18.28-4.37-27.16-10.56-27.16-18.93v-82a10.27,10.27,0,0,1,5.1-8.93c3.19-1.87,6.79-1.43,10.24-.13C55,86.34,77.65,92.48,111.41,92.48a223.75,223.75,0,0,0,67.47-10.31c4.4-1.31,7.05-1.74,10.23.13a10.26,10.26,0,0,1,5.11,8.93v82c0,8.37-8.89,14.56-27.17,18.93C152.12,195.73,132.36,197.7,111.41,197.7ZM40.87,172.85c1,1.34,6.13,5,20.87,8.08,13.63,2.91,31.27,4.5,49.67,4.5s36-1.59,49.68-4.5c14.73-3.13,19.91-6.74,20.86-8.08V94.34c-14.13,6.46-40.61,10.41-70.54,10.41S55,100.8,40.87,94.34Z"/><path class="cls-4" d="M42.28,241.2V276c18.88,3.7,42.94,5.93,69.13,5.93s50.25-2.23,69.13-5.93V241.2c-18.88,3.71-42.93,5.93-69.13,5.93S61.16,244.91,42.28,241.2Z"/><path class="cls-3" d="M181.06,536.67c0,16.51-14.87,35.93-33.48,45.89C120.39,597.1,92.28,597.89,67,593.37c-9.64-1.72-24.74-8.83-24.74-22.83V540.33C30,544.22,13,556.36,9.83,575,7.75,587.19,12,599.62,21.58,609.13c19.91,19.78,55.6,23.79,67.42,23.78,23.85,0,51.8-3.42,74.55-15.58,11.4-6.1,29.56-19.74,37.58-31,13.81-19.34,19.83-39.23,15.17-67-5.54-33-35.24-50.07-35.24-50.07Z"/><path class="cls-7" d="M163.55,617.33C140.8,629.49,112.85,632.9,89,632.91c-8.34,0-28.57-2-46.75-10.13V634.4c18.18,8.13,38.41,10.13,46.75,10.13,23.85,0,51.8-3.42,74.55-15.58a136.86,136.86,0,0,0,17.51-11.57V605.76A135.8,135.8,0,0,1,163.55,617.33Z"/><path class="cls-8" d="M201.13,569.38c-8,11.23-26.18,24.86-37.58,31-22.75,12.17-50.7,15.58-74.55,15.59-11.82,0-47.51-4-67.42-23.79A41.29,41.29,0,0,1,10.34,572.6c-.19.8-.37,1.61-.51,2.44C7.75,587.19,12,599.62,21.58,609.13c19.91,19.78,55.6,23.79,67.42,23.78,23.85,0,51.8-3.42,74.55-15.58,11.4-6.1,29.56-19.74,37.58-31,12.28-17.19,18.39-34.82,16.32-58C216,543.65,210.23,556.64,201.13,569.38Z"/><path class="cls-3" d="M181.06,374.68c0,16.52-17.11,36.69-35.72,46.64C118.15,435.86,92.28,435.9,67,431.39c-9.64-1.73-24.74-8.84-24.74-22.83V378.34C30,382.24,13,394.37,9.83,413.05,7.75,425.2,12,437.64,21.58,447.14c19.91,19.78,55.6,23.79,67.42,23.78,23.85,0,51.8-3.41,74.55-15.58,11.4-6.1,29.56-19.73,37.58-31,13.81-19.35,19.83-39.24,15.17-67-5.54-33-35.24-50.07-35.24-50.07Z"/><path class="cls-7" d="M163.55,455.34c-22.75,12.17-50.7,15.57-74.55,15.58-8.34,0-28.57-2-46.75-10.12v11.61c18.18,8.13,38.41,10.14,46.75,10.13,23.85,0,51.8-3.42,74.55-15.58a136.69,136.69,0,0,0,17.51-11.56V443.78A136.69,136.69,0,0,1,163.55,455.34Z"/><path class="cls-8" d="M201.13,407.39c-8,11.23-26.18,24.87-37.58,31-22.75,12.16-50.7,15.57-74.55,15.58-11.82,0-47.51-4-67.42-23.78a41.32,41.32,0,0,1-11.24-19.55c-.19.8-.37,1.61-.51,2.44C7.75,425.2,12,437.64,21.58,447.14c19.91,19.78,55.6,23.79,67.42,23.78,23.85,0,51.8-3.41,74.55-15.58,11.4-6.1,29.56-19.73,37.58-31,12.28-17.2,18.39-34.83,16.32-58C216,381.66,210.23,394.65,201.13,407.39Z"/></g></g></g></svg>