<svg xmlns="http://www.w3.org/2000/svg" viewBox="0 0 222.82 808.55"><defs><style>.cls-1{isolation:isolate;}.cls-2{fill:#f987e4;}.cls-2,.cls-3,.cls-6,.cls-7,.cls-8{stroke:#000d3b;stroke-width:3px;}.cls-2,.cls-3,.cls-6,.cls-7{stroke-miterlimit:10;}.cls-3{fill:#ef5252;}.cls-4,.cls-8{fill:#000d3b;}.cls-5{fill:#e1e9ff;opacity:0.35;}.cls-6{fill:#e9ffc2;}.cls-7{fill:#64ce55;}.cls-8{stroke-linecap:round;stroke-linejoin:round;}.cls-9{fill:#fae6c6;opacity:0.6;mix-blend-mode:overlay;}</style></defs><g class="cls-1"><g id="Calque_2" data-name="Calque 2"><g id="plateformes"><rect class="cls-2" x="42.28" y="171.07" width="138.26" height="635.98"/><path class="cls-2" d="M1.5,28.13V220.5c0,14.71,49.21,26.63,109.91,26.63s109.91-11.92,109.91-26.63V28.13Z"/><ellipse class="cls-3" cx="111.41" cy="28.13" rx="109.91" ry="26.63"/><path class="cls-4" d="M111.41,101.41c-37.17,0-68.17-6.33-75.18-14.73a.84.84,0,0,0-1.49.53v88.7c0,10.12,34.33,18.34,76.67,18.34s76.67-8.22,76.67-18.34V87.21a.84.84,0,0,0-1.49-.53C179.58,95.08,148.58,101.41,111.41,101.41Z"/><path class="cls-5" d="M36.23,84a.84.84,0,0,0-1.49.52v88.7c0,7.19,17.32,13.42,42.53,16.42L93.53,98.23C64.63,96.58,42.08,91,36.23,84Z"/><path class="cls-6" d="M111.41,197.7c-21,0-40.7-2-55.64-5.54-18.28-4.37-27.16-10.56-27.16-18.93v-82a10.27,10.27,0,0,1,5.1-8.93c3.19-1.87,6.79-1.43,10.24-.13C55,86.34,77.65,92.48,111.41,92.48a223.75,223.75,0,0,0,67.47-10.31c4.4-1.31,7.05-1.74,10.23.13a10.26,10.26,0,0,1,5.11,8.93v82c0,8.37-8.89,14.56-27.17,18.93C152.12,195.73,132.36,197.7,111.41,197.7ZM40.87,172.85c1,1.34,6.13,5,20.87,8.08,13.63,2.91,31.27,4.5,49.67,4.5s36-1.59,49.68-4.5c14.73-3.13,19.91-6.74,20.86-8.08V94.34c-14.13,6.46-40.61,10.41-70.54,10.41S55,100.8,40.87,94.34Z"/><path class="cls-4" d="M42.28,241.2V276c18.88,3.7,42.94,5.93,69.13,5.93s50.25-2.23,69.13-5.93V241.2c-18.88,3.71-42.93,5.93-69.13,5.93S61.16,244.91,42.28,241.2Z"/><path class="cls-7" d="M180.81,519.87c0,16.51-14.87,35.94-33.48,45.89C120.15,580.3,92,581.09,66.74,576.58,57.1,574.85,42,567.74,42,553.75V523.53c-12.25,3.89-29.23,16-32.42,34.71-2.08,12.15,2.2,24.58,11.75,34.09,19.91,19.78,55.6,23.79,67.42,23.78,23.85,0,51.8-3.42,74.55-15.58,11.4-6.1,29.56-19.74,37.58-31,13.81-19.34,19.83-39.23,15.17-67-5.54-33-35.24-50.07-35.24-50.07Z"/><path class="cls-8" d="M163.3,600.53c-22.75,12.16-50.7,15.57-74.55,15.58-8.34,0-28.57-2-46.75-10.13V617.6c18.18,8.13,38.41,10.14,46.75,10.13,23.85,0,51.8-3.42,74.55-15.58a135.8,135.8,0,0,0,17.51-11.57V589A136.69,136.69,0,0,1,163.3,600.53Z"/><path class="cls-9" d="M200.88,552.58c-8,11.23-26.18,24.86-37.58,31-22.75,12.16-50.7,15.57-74.55,15.58-11.82,0-47.51-4-67.42-23.78A41.37,41.37,0,0,1,10.09,555.8c-.19.8-.37,1.61-.51,2.44-2.08,12.15,2.2,24.58,11.75,34.09,19.91,19.78,55.6,23.79,67.42,23.78,23.85,0,51.8-3.42,74.55-15.58,11.4-6.1,29.56-19.74,37.58-31,12.28-17.19,18.39-34.82,16.32-58C215.7,526.85,210,539.84,200.88,552.58Z"/><path class="cls-7" d="M180.81,357.88c0,16.52-17.11,36.69-35.72,46.64C117.9,419.06,92,419.11,66.74,414.59,57.1,412.87,42,405.75,42,391.76V361.54c-12.25,3.9-29.23,16-32.42,34.71-2.08,12.15,2.2,24.59,11.75,34.09,19.91,19.78,55.6,23.79,67.42,23.78,23.85,0,51.8-3.41,74.55-15.58,11.4-6.1,29.56-19.73,37.58-31,13.81-19.34,19.83-39.24,15.17-67-5.54-33-35.24-50.08-35.24-50.08Z"/><path class="cls-8" d="M163.3,438.54c-22.75,12.17-50.7,15.57-74.55,15.58-8.34,0-28.57-2-46.75-10.12v11.62c18.18,8.12,38.41,10.13,46.75,10.12,23.85,0,51.8-3.41,74.55-15.58a136.69,136.69,0,0,0,17.51-11.56V427A136.69,136.69,0,0,1,163.3,438.54Z"/><path class="cls-9" d="M200.88,390.6c-8,11.23-26.18,24.86-37.58,31-22.75,12.17-50.7,15.57-74.55,15.58-11.82,0-47.51-4-67.42-23.78a41.27,41.27,0,0,1-11.24-19.55c-.19.8-.37,1.61-.51,2.44-2.08,12.15,2.2,24.59,11.75,34.09,19.91,19.78,55.6,23.79,67.42,23.78,23.85,0,51.8-3.41,74.55-15.58,11.4-6.1,29.56-19.73,37.58-31,12.28-17.19,18.39-34.83,16.32-58C215.7,364.87,210,377.85,200.88,390.6Z"/></g></g></g></svg>