<svg xmlns="http://www.w3.org/2000/svg" viewBox="0 0 425.83 2042.91"><defs><style>.cls-1{isolation:isolate;}.cls-2{fill:#006845;}.cls-2,.cls-3{stroke:#000d3b;stroke-miterlimit:10;stroke-width:3px;}.cls-3{fill:#64ce55;}.cls-4{fill:#fae6c6;opacity:0.3;mix-blend-mode:overlay;}.cls-5{fill:#000d3b;}</style></defs><g class="cls-1"><g id="Calque_2" data-name="Calque 2"><g id="plateformes"><path class="cls-2" d="M130,1696.44c-5.72-17.55.3-35.14,13.05-39.16s25.12,8,33.15,24.6c7,14.47,1.55,38.86,3.12,47.5l-20.15,8.07S135.2,1712.42,130,1696.44Z"/><path class="cls-2" d="M80.36,1743.35c-16.15-25.64-13.66-56,5-67.58s43.19,2.59,62.65,25.82c16.94,20.21,18.11,61.22,24.09,74.34l-28.83,21S95.07,1766.69,80.36,1743.35Z"/><path class="cls-2" d="M188.56,2040s-70.49-53.8-42.75-155.51c21.38-78.39,131.05-101.58,140.3-155.21,8.22-47.7-9.48-67.38-9.48-67.38v-67.4s65.22,29.22,63.37,121.69c-1.42,70.87-49.94,114.66-98,142.4s-58.51,49-60.36,78.59C180,1963.59,192.14,1966,192.14,1966Z"/><path class="cls-2" d="M238.9,1502.71s56.28-4.93,65.66-119,21.88-137.56,39.08-154.75c0,0-10.95,112.55-6.26,162.57S310.81,1515,278,1544.68s-39.08,36-39.08,36Z"/><path class="cls-2" d="M268.05,1069.68c15.26-26.19,43.37-38,62.24-26.81s17.69,39.48,6.1,67.49c-10.08,24.37-45.9,44.38-54.76,55.74l-31.92-15.86S254.17,1093.52,268.05,1069.68Z"/><path class="cls-2" d="M241.48,986.83c15.25-26.18,43.36-38,62.23-26.81s17.69,39.49,6.11,67.49c-10.08,24.37-45.9,44.38-54.77,55.75l-31.92-15.87S227.59,1010.67,241.48,986.83Z"/><path class="cls-2" d="M285.71,1145.12c12.92-13.18,31.29-16,40.76-6.54s4.55,26-6.48,40.77c-9.59,12.89-33.73,19.36-40.66,24.74L262.85,1190S274,1157.13,285.71,1145.12Z"/><path class="cls-2" d="M302.6,276.83s-18.76-71.91,18.76-125.06,20.32-98.48,20.32-98.48,37.44,59.64,4.69,112.55c-20.32,32.83-27.6,67.82-17.71,88.62Z"/><path class="cls-2" d="M245.54,406.32s25.8-93.54,57.06-129.49,86-53.15,111-21.89c17.39,21.73,12.51,54.71-6.25,68.78-27.54,20.66-62.53,1.56-84.41-15.63l26.57-20.32s18.19,21.12,32.83,15.63c12.51-4.69,7.82-20.32,0-28.14C373.48,266.42,329.17,294,315.1,319S269.77,441,269.77,441Z"/><path class="cls-2" d="M23.48,415C.84,394.84-5.21,364.93,9.55,348.67s42.21-9.5,67.36,7.41c21.88,14.72,34.39,53.8,43.77,64.74L98.79,449S44.08,433.32,23.48,415Z"/><path class="cls-2" d="M58.14,356.14c-10.36-15.28-9.46-33.84,1.68-41.24s26.35.69,38.67,14.44c10.73,12,12.28,36.9,16.18,44.76L97.55,387.45S67.57,370.05,58.14,356.14Z"/><path class="cls-2" d="M220.67,577.28S88.29,519,90.12,426.54,148.07,266.87,147.31,204c0,0,10.95,18.22,18.63,73.82s-51.34,102.2-32.22,152.52,82.05,72.24,82.05,72.24Z"/><rect class="cls-3" x="142.83" y="1.5" width="143.84" height="1924.33"/><path class="cls-2" d="M103.68,120.55c-9.09-25.13-29.2-40.78-44.47-35.12s-17,29.7-10.83,55.62c5.36,22.56,30.53,46.63,36.17,58l25.54-6.93S112,143.42,103.68,120.55Z"/><path class="cls-4" d="M142.83,1.5V801c38.09-86,87.75-167.07,143.84-243V1.5Z"/><path class="cls-5" d="M286.67,782.68v-244c-.93-2.16-1.87-4.28-2.79-6.36-34.59-77.83-104.14-127.67-141-190.67v83.75C165,454.24,189,482.28,210.41,513.53c57.84,84.41,73.45,195.68,62.51,269.15"/><path class="cls-5" d="M257.28,884.09c-23.39,82-60.94,184-60.94,184-11.11,37.73-32.53,89.72-53.51,147.56V1429.9c2.64-24.56,8.29-56.11,20.14-87.91,20.91-56.1,79.59-216.23,123.7-359.61V883.87"/><path class="cls-2" d="M142.83,1428.16v134.16c-134-130.79,18.5-416.47,55.66-542.69,0,0,66.76-181.32,77.7-254.79s2-181.33-55.81-265.74S86,353.72,76.57,236.49,142.83,71.43,142.83,71.43v82.21s-30,27.63-11.26,119.86S250.08,419.38,293.85,517.86C323.26,584,358,686.09,314.17,847.07c-43.19,158.52-123.75,378.62-149,446.48S142.83,1428.16,142.83,1428.16Z"/></g></g></g></svg>