<svg xmlns="http://www.w3.org/2000/svg" viewBox="0 0 203.74 383.71"><defs><style>.cls-1{fill:#f93;}.cls-1,.cls-3,.cls-4,.cls-5{stroke:#000d3b;stroke-linecap:round;stroke-linejoin:round;stroke-width:3px;}.cls-2{fill:#000d3b;}.cls-3{fill:#64ce55;}.cls-4{fill:#557dff;}.cls-5{fill:none;}</style></defs><g id="Calque_2" data-name="Calque 2"><g id="Colors"><path class="cls-1" d="M172,295.06l-12.58,64.81a27.58,27.58,0,0,1-32.33,21.83h0a27.59,27.59,0,0,1-21.82-32.33l12.57-64.82Z"/><path class="cls-1" d="M31.71,295.06l12.57,64.81A27.59,27.59,0,0,0,76.61,381.7h0a27.59,27.59,0,0,0,21.83-32.33L85.87,284.55Z"/><path class="cls-2" d="M166.12,325.5l5.9-30.4c-10.38,10.37-32.74,18.12-60,19.67l-6.71,34.6a27.51,27.51,0,0,0,1.49,15.55C131.93,363.13,153.44,347.71,166.12,325.5Z"/><path class="cls-2" d="M37.61,325.49c12.68,22.22,34.2,37.63,59.33,39.43a27.42,27.42,0,0,0,1.5-15.55l-6.71-34.6c-27.27-1.56-49.64-9.3-60-19.68Z"/><path class="cls-1" d="M3.61,294.39a189,189,0,0,1,8.48-30.82c7.11-19.18,17.38-37.19,28.41-54.37C46.4,200,52.6,191,58.8,182.07a21,21,0,0,1,13.39-8.21,15.48,15.48,0,0,1,8.08.5,15.3,15.3,0,0,1,7.18,3.16c4.16,3.29,7.6,7.95,8.21,13.38A21.76,21.76,0,0,1,92,206.17c-10.42,15.07-20.82,30.2-29.78,46.21A194.33,194.33,0,0,0,45.43,294a130.22,130.22,0,0,0-3.21,26.66,15.41,15.41,0,0,1-.59,7.57,15.34,15.34,0,0,1-3.16,7.18,15.28,15.28,0,0,1-5.85,5.22,15.38,15.38,0,0,1-7.53,3c-5.27.6-11-.26-15.27-3.66L6,336.35a20.31,20.31,0,0,1-4.39-9.78A148.18,148.18,0,0,1,3.61,294.39Z"/><path class="cls-2" d="M87.45,177.52a15.3,15.3,0,0,0-7.18-3.16,15.48,15.48,0,0,0-8.08-.5,21,21,0,0,0-13.39,8.21c-6.2,9-12.4,18-18.3,27.13-3.09,4.82-6.12,9.7-9,14.65-3.79,21.24-8.29,42.43-10.08,50.74a69.57,69.57,0,0,0-1.41,9,81.68,81.68,0,0,0,15.6,55.09,15.53,15.53,0,0,0,2.9-3.24,15.34,15.34,0,0,0,3.16-7.18,15.41,15.41,0,0,0,.59-7.57A130.22,130.22,0,0,1,45.43,294a194.33,194.33,0,0,1,16.79-41.61c9-16,19.36-31.14,29.78-46.21a21.76,21.76,0,0,0,3.66-15.27C95.05,185.47,91.61,180.81,87.45,177.52Z"/><path class="cls-1" d="M200.13,294.39a189,189,0,0,0-8.48-30.82c-7.1-19.18-17.38-37.19-28.41-54.37-5.9-9.18-12.1-18.16-18.3-27.13a21,21,0,0,0-13.39-8.21,15.48,15.48,0,0,0-8.08.5,15.3,15.3,0,0,0-7.18,3.16c-4.16,3.29-7.6,7.95-8.21,13.38a21.76,21.76,0,0,0,3.66,15.27c10.42,15.07,20.82,30.2,29.79,46.21A194.81,194.81,0,0,1,158.31,294a130.22,130.22,0,0,1,3.21,26.66,23,23,0,0,0,3.75,14.75,15.28,15.28,0,0,0,5.85,5.22,15.38,15.38,0,0,0,7.53,3c5.27.6,11-.26,15.27-3.66l3.81-3.6a20.31,20.31,0,0,0,4.39-9.78A148.18,148.18,0,0,0,200.13,294.39Z"/><path class="cls-2" d="M183.77,283.55a69.57,69.57,0,0,0-1.41-9c-1.79-8.31-6.29-29.5-10.08-50.74-2.92-4.95-5.95-9.83-9-14.65-5.9-9.18-12.1-18.16-18.3-27.13a21,21,0,0,0-13.39-8.21,15.48,15.48,0,0,0-8.08.5,15.3,15.3,0,0,0-7.18,3.16c-4.16,3.29-7.6,7.95-8.21,13.38a21.76,21.76,0,0,0,3.66,15.27c10.42,15.07,20.82,30.2,29.79,46.21A194.81,194.81,0,0,1,158.31,294a130.22,130.22,0,0,1,3.21,26.66,23,23,0,0,0,3.75,14.75,15.53,15.53,0,0,0,2.9,3.24A81.68,81.68,0,0,0,183.77,283.55Z"/><path class="cls-1" d="M178.05,273.28a63.72,63.72,0,0,0-1.31-8.34c-3.33-15.41-16.65-78.45-14.81-94.47l6.59-48.22c3.38-24.71-6.68-49.64-26.9-64.26A67.6,67.6,0,0,0,109,45.53l-3.75-17.11H98.53L94.78,45.53A67.6,67.6,0,0,0,62.12,58C41.9,72.61,31.84,97.54,35.22,122.25l6.59,48.22c1.84,16-11.48,79.06-14.81,94.47a63.72,63.72,0,0,0-1.31,8.34,76.43,76.43,0,0,0,76.18,82.55h0A76.43,76.43,0,0,0,178.05,273.28Z"/><path class="cls-2" d="M101.87,43.35a22.63,22.63,0,0,0,6.41-.93l-3.07-14H98.53l-3.07,14A22.63,22.63,0,0,0,101.87,43.35Z"/><circle class="cls-1" cx="101.87" cy="19.55" r="18.05"/><circle class="cls-2" cx="64.72" cy="102.43" r="7.32"/><circle class="cls-2" cx="139.02" cy="102.43" r="7.32"/><ellipse class="cls-2" cx="101.87" cy="308.4" rx="3" ry="4.49"/><path class="cls-3" d="M141.33,120.43a16.16,16.16,0,0,0-22.74,2.22c-4.41,5.36-12.13,8.22-20.14,7.44a24.79,24.79,0,0,1-14.68-6.41,16.15,16.15,0,0,0-22.2,23.47,57.29,57.29,0,0,0,33.77,15.1c18.86,1.82,36.88-5.31,48.2-19.08A16.15,16.15,0,0,0,141.33,120.43Z"/><path class="cls-3" d="M131.07,132.91c-7.56,9.19-20.31,14.6-34.18,13.26a40.88,40.88,0,0,1-24.22-10.76"/><path class="cls-3" d="M101.87,329c-33.43,0-61.93-11.31-73.06-27.21a76.42,76.42,0,0,0,73.06,54h0a76.42,76.42,0,0,0,73.06-54C163.8,317.73,135.3,329,101.87,329Z"/><path class="cls-4" d="M43.8,297.43c0,6.16,10.54,11.15,23.55,11.15s23.54-5,23.54-11.15V222.26H64.32S43.8,296.48,43.8,297.43Z"/><ellipse class="cls-4" cx="77.61" cy="222.26" rx="13.28" ry="6.16"/><path class="cls-4" d="M139.42,222.26H112.85v75.17c0,6.16,10.54,11.15,23.54,11.15s23.55-5,23.55-11.15C159.94,296.48,139.42,222.26,139.42,222.26Z"/><ellipse class="cls-4" cx="126.13" cy="222.26" rx="13.28" ry="6.16"/><rect class="cls-4" x="90.89" y="243.6" width="21.96" height="30.26"/><rect class="cls-2" x="90.89" y="243.6" width="7.98" height="30.26"/><path class="cls-2" d="M135.26,226.18c-6,0-10.86-2.26-10.86-5,0-2.07,2.68-3.85,6.52-4.62a26.77,26.77,0,0,0-4.79-.42c-7.33,0-13.28,2.76-13.28,6.16s6,6.17,13.28,6.17a21.57,21.57,0,0,0,10.31-2.28C136.05,226.17,135.66,226.18,135.26,226.18Z"/><path class="cls-2" d="M86.73,226.18c-6,0-10.86-2.26-10.86-5,0-2.07,2.68-3.85,6.52-4.62a26.74,26.74,0,0,0-4.78-.42c-7.34,0-13.29,2.76-13.29,6.16s6,6.17,13.29,6.17a21.62,21.62,0,0,0,10.31-2.28C87.52,226.17,87.13,226.18,86.73,226.18Z"/><path class="cls-5" d="M39.54,198.53C45,214.36,51.89,228,59.77,238.74"/><path class="cls-5" d="M144,238.74c7.88-10.73,14.75-24.37,20.23-40.21"/></g></g></svg>