<svg xmlns="http://www.w3.org/2000/svg" viewBox="0 0 246.95 858.71"><defs><style>.cls-1{fill:#f93030;}.cls-1,.cls-3,.cls-4,.cls-6,.cls-7{stroke:#000d3b;stroke-width:3px;}.cls-1,.cls-3,.cls-6,.cls-7{stroke-linecap:round;stroke-linejoin:round;}.cls-2{fill:#000d3b;}.cls-3{fill:#ff5f5f;}.cls-4,.cls-6{fill:#ffe136;}.cls-4{stroke-miterlimit:10;}.cls-5{fill:#e1e9ff;opacity:0.35;}.cls-7{fill:none;}.cls-8{fill:#fff;}.cls-9{fill:#a4e7ff;}</style></defs><g id="Calque_2" data-name="Calque 2"><g id="Plateformes"><path class="cls-1" d="M205.5,807.05v-636H67.24v636s2.56,15.74,69.37,15.74S205.5,807.05,205.5,807.05Z"/><path class="cls-2" d="M67.24,241.2V276c18.88,3.7,42.93,5.93,69.13,5.93s50.25-2.23,69.13-5.93V241.2c-18.88,3.71-42.94,5.93-69.13,5.93S86.12,244.91,67.24,241.2Z"/><path class="cls-3" d="M25.62,28.13V220.5c0,14.71,49.21,26.63,109.91,26.63s109.92-11.92,109.92-26.63V28.13Z"/><ellipse class="cls-4" cx="135.53" cy="28.13" rx="109.91" ry="26.63"/><path class="cls-2" d="M135.53,101.41c-37.17,0-68.16-6.33-75.18-14.73a.84.84,0,0,0-1.49.53v88.7c0,10.12,34.33,18.34,76.67,18.34s76.68-8.22,76.68-18.34V87.21a.84.84,0,0,0-1.49-.53C203.7,95.08,172.71,101.41,135.53,101.41Z"/><path class="cls-5" d="M60.35,84a.84.84,0,0,0-1.49.52v88.7c0,7.19,17.32,13.42,42.53,16.42l16.27-91.42C88.76,96.58,66.2,91,60.35,84Z"/><path class="cls-6" d="M135.53,197.7c-20.94,0-40.7-2-55.64-5.54-18.28-4.37-27.16-10.56-27.16-18.93v-82a10.26,10.26,0,0,1,5.11-8.93c3.18-1.87,6.78-1.43,10.23-.13,11.09,4.17,33.7,10.31,67.46,10.31A223.69,223.69,0,0,0,203,82.17c4.4-1.31,7.05-1.74,10.23.13a10.26,10.26,0,0,1,5.11,8.93v82c0,8.37-8.89,14.56-27.16,18.93C176.24,195.73,156.48,197.7,135.53,197.7ZM65,172.85c1,1.34,6.12,5,20.86,8.08,13.63,2.91,31.27,4.5,49.67,4.5s36-1.59,49.68-4.5c14.74-3.13,19.91-6.74,20.86-8.08V94.34c-14.13,6.46-40.61,10.41-70.54,10.41S79.12,100.8,65,94.34Z"/><polyline class="cls-7" points="20.44 762.62 65.08 770.02 44.61 781.6 86.18 787.8"/><polyline class="cls-7" points="67.24 814.87 22.59 822.27 43.07 833.85 1.5 840.05"/><polyline class="cls-7" points="109.44 837.47 149.88 838.54 132.59 857.21 157.86 857.21"/><path class="cls-8" d="M229.87,804.7c-7-15.64-20.31-31.46-45.92-29.2a67.22,67.22,0,0,0-40.82,19.16,87.15,87.15,0,0,0-14.27-21.41C115.1,758.25,92.2,747.08,71.5,752,59.43,754.8,49.91,764,44.86,775.23A42.89,42.89,0,0,0,9,796.18s1.45,11.51,31.92,12v1.38S44.41,844,136.7,844c65.92,0,86.22-17.55,92.45-27.58A12.58,12.58,0,0,0,229.87,804.7Z"/><path class="cls-8" d="M228.43,801.68a111.18,111.18,0,0,0,13.14-6.21,6.49,6.49,0,0,0,2.89-8.07c-3.45-8.66-7.86-17.11-15.46-22.29-6.17-4.2-13.88-5.75-21.34-5.42-.72,0-1.44.1-2.16.16v18.68C216.48,783.18,223.69,792.24,228.43,801.68Z"/><path class="cls-9" d="M225.21,762.94a37.12,37.12,0,0,0-17.55-3.25c-.72,0-1.44.1-2.16.16v18.68c8.75,3.7,15.09,10.21,19.71,17.46Z"/><path class="cls-7" d="M228.43,801.68a111.18,111.18,0,0,0,13.14-6.21,6.49,6.49,0,0,0,2.89-8.07c-3.45-8.66-7.86-17.11-15.46-22.29-6.17-4.2-13.88-5.75-21.34-5.42-.72,0-1.44.1-2.16.16v18.68C216.48,783.18,223.69,792.24,228.43,801.68Z"/><path class="cls-9" d="M60.88,819.6V803.27c0-18.19,12.42-37,30.63-41.31a49.91,49.91,0,0,1,26,1.33c-13.3-9.47-30.3-15-46-11.33-18.21,4.28-30.63,23.12-30.63,41.3V809.6s1.65,15.94,31.82,26.12C61.7,827.5,60.88,819.6,60.88,819.6Z"/><path class="cls-7" d="M229.87,804.7c-7-15.64-20.31-31.46-45.92-29.2a67.22,67.22,0,0,0-40.82,19.16,87.15,87.15,0,0,0-14.27-21.41C115.1,758.25,92.2,747.08,71.5,752,59.43,754.8,49.91,764,44.86,775.23A42.89,42.89,0,0,0,9,796.18s1.45,11.51,31.92,12v1.38S44.41,844,136.7,844c65.92,0,86.22-17.55,92.45-27.58A12.58,12.58,0,0,0,229.87,804.7Z"/><path class="cls-7" d="M71.5,752c-18.21,4.28-30.63,23.12-30.63,41.3"/></g></g></svg>