<svg xmlns="http://www.w3.org/2000/svg" viewBox="0 0 300.29 846.04"><defs><style>.cls-1{fill:#f93030;}.cls-1,.cls-3,.cls-4,.cls-6{stroke:#000d3b;stroke-linecap:round;stroke-linejoin:round;stroke-width:3px;}.cls-2{fill:#000d3b;}.cls-3{fill:#ff5f5f;}.cls-4{fill:#18d6c4;}.cls-5{fill:#e1e9ff;opacity:0.35;}.cls-6{fill:none;}.cls-7{fill:#fff;}.cls-8{fill:#a4e7ff;}</style></defs><g id="Calque_2" data-name="Calque 2"><g id="Plateformes"><path class="cls-1" d="M228.77,807.05v-636H90.5v636s2.57,15.74,69.37,15.74S228.77,807.05,228.77,807.05Z"/><path class="cls-2" d="M90.5,241.2V276c18.89,3.7,42.94,5.93,69.13,5.93s50.25-2.23,69.14-5.93V241.2c-18.89,3.71-42.94,5.93-69.14,5.93S109.39,244.91,90.5,241.2Z"/><path class="cls-3" d="M49.72,28.13V220.5c0,14.71,49.21,26.63,109.91,26.63s109.92-11.92,109.92-26.63V28.13Z"/><ellipse class="cls-4" cx="159.63" cy="28.13" rx="109.91" ry="26.63"/><path class="cls-2" d="M159.63,101.41c-37.17,0-68.16-6.33-75.18-14.73a.84.84,0,0,0-1.49.53v88.7c0,10.12,34.33,18.34,76.67,18.34s76.68-8.22,76.68-18.34V87.21a.84.84,0,0,0-1.49-.53C227.8,95.08,196.81,101.41,159.63,101.41Z"/><path class="cls-5" d="M84.45,84a.84.84,0,0,0-1.49.52v88.7c0,7.19,17.33,13.42,42.54,16.42l16.26-91.42C112.86,96.58,90.3,91,84.45,84Z"/><path class="cls-4" d="M159.63,197.7c-20.94,0-40.7-2-55.64-5.54-18.28-4.37-27.16-10.56-27.16-18.93v-82a10.26,10.26,0,0,1,5.11-8.93c3.18-1.87,6.78-1.43,10.23-.13,11.09,4.17,33.7,10.31,67.46,10.31A223.69,223.69,0,0,0,227.1,82.17c4.4-1.31,7.05-1.74,10.23.13a10.26,10.26,0,0,1,5.11,8.93v82c0,8.37-8.89,14.56-27.16,18.93C200.34,195.73,180.58,197.7,159.63,197.7ZM89.1,172.85c1,1.34,6.12,5,20.86,8.08,13.63,2.91,31.27,4.5,49.67,4.5s36-1.59,49.68-4.5c14.74-3.13,19.91-6.74,20.86-8.08V94.34c-14.13,6.46-40.61,10.41-70.54,10.41s-56.4-4-70.53-10.41Z"/><polyline class="cls-6" points="229.94 816.45 274.59 823.85 254.12 835.43 295.68 841.63"/><polyline class="cls-6" points="298.79 730.19 258.35 731.26 275.63 749.93 211.34 749.93"/><path class="cls-7" d="M276.44,790.79A190.37,190.37,0,0,0,245.06,762a41.68,41.68,0,0,0,11.47-13.68c-4.92-12.45-15.38-22.39-27.76-27.38v30.38c-20.68-12-43.58-20-66.69-21.65-18.18-1.32-36.71-1.35-54.33,3.35-.73.2-1.46.4-2.19.62a75,75,0,0,0-15.06,6.26v-33c-12.08,6.92-18.89,16.32-25.23,25.37l-2.91,4.15a39,39,0,0,0-6.66,16.83,28.91,28.91,0,0,0,9.22,9.49,79.93,79.93,0,0,0-6.38,10.51,165.89,165.89,0,0,0-25.17,6C22.31,783,11.72,788.74,3.84,797.35c-1.13,1.24-2.26,2.67-2.34,4.34-.1,2.2,1.61,4,3.31,5.43,9.45,7.8,22,11.09,34.23,11.45a126.89,126.89,0,0,0,25-2.16c-.21-.19-.41-.4-.61-.6,23.29,22.5,61.44,28.72,92,28.73,74.49,0,110.38-33,121.06-45.17A6.54,6.54,0,0,0,276.44,790.79Z"/><path class="cls-8" d="M162.08,729.62c-18.18-1.32-36.71-1.35-54.33,3.35-.73.2-1.46.4-2.19.62a77.33,77.33,0,0,0-47.37,40.3l.35-.72a166.18,166.18,0,0,0-25.17,6C22.31,783,11.72,788.74,3.84,797.35c-1.13,1.24-2.26,2.67-2.34,4.34-.1,2.2,1.61,4,3.31,5.43,9.45,7.8,22,11.09,34.23,11.45a126.89,126.89,0,0,0,25-2.16c-.87-.81-1.7-1.65-2.53-2.51,13.71,14.3,33.19,22.42,53.33,26.66-11.49-5.63-21.65-13.31-29.16-23.62l-1.55-2.58A20.7,20.7,0,0,1,83,795l4.28-9.27a77.5,77.5,0,0,1,48.28-42.14c.73-.21,1.46-.42,2.19-.61,17.62-4.7,36.15-4.68,54.33-3.35a137.84,137.84,0,0,1,19.61,2.9A149,149,0,0,0,162.08,729.62Z"/><path class="cls-8" d="M242.65,729.27a51.62,51.62,0,0,0-13.88-8.38v30.38c4.75,2.78,9.38,5.78,13.88,9Z"/><path class="cls-8" d="M73.1,721.72V753a77.06,77.06,0,0,1,17.4-13.15v-33A63.31,63.31,0,0,0,73.1,721.72Z"/><path class="cls-6" d="M276.44,790.79c-28.56-33-71.1-58-114.36-61.17-18.18-1.32-36.71-1.35-54.33,3.35-.73.2-1.46.4-2.19.62a77.11,77.11,0,0,0-45.1,36c-.76,1.33-2,3.73-1.92,3.56a166.18,166.18,0,0,0-25.17,6C22.31,783,11.72,788.74,3.84,797.35c-1.13,1.24-2.26,2.67-2.34,4.34-.1,2.2,1.61,4,3.31,5.43,9.45,7.8,22,11.09,34.23,11.45a126.89,126.89,0,0,0,25-2.16c-.21-.19,1.38,1.27,2.42,2.17,23.47,20.25,59.7,25.95,88.94,26,74.49,0,110.38-33,121.06-45.17A6.54,6.54,0,0,0,276.44,790.79Z"/><path class="cls-6" d="M245.06,762a41.68,41.68,0,0,0,11.47-13.68c-4.92-12.45-15.38-22.39-27.76-27.38v30.38A190.11,190.11,0,0,1,245.06,762Z"/><path class="cls-6" d="M64.92,762.66A77.7,77.7,0,0,1,90.5,739.85v-33c-12.08,6.92-18.89,16.32-25.23,25.37l-2.91,4.15a39,39,0,0,0-6.66,16.83A28.91,28.91,0,0,0,64.92,762.66Z"/></g></g></svg>