<svg xmlns="http://www.w3.org/2000/svg" viewBox="0 0 175.43 1486.42"><defs><style>.cls-1{fill:#18d6c4;}.cls-2{fill:none;}.cls-2,.cls-3{stroke:#000d3b;stroke-linecap:round;stroke-linejoin:round;stroke-width:3px;}.cls-3{fill:#000d3b;}.cls-4{fill:#41f9e3;}.cls-5,.cls-7{opacity:0.4;}.cls-6,.cls-7{fill:#fff;}</style></defs><g id="Calque_2" data-name="Calque 2"><g id="Mur"><path class="cls-1" d="M26.84,250.13a16.17,16.17,0,0,0-2.19,9.47c2.83,39.65-16.52,78-22.14,117.62-1.37,9.7-1.86,19.92,1.89,29S17.14,422.75,26.91,422c7.37-.59,13.82-5.78,17.44-12.23s4.76-14,4.94-21.39c.57-22.54-7.08-44.33-12.52-66.21a343,343,0,0,1-9.93-72Z"/><path class="cls-2" d="M26.84,250.13a16.17,16.17,0,0,0-2.19,9.47c2.83,39.65-16.52,78-22.14,117.62-1.37,9.7-1.86,19.92,1.89,29S17.14,422.75,26.91,422c7.37-.59,13.82-5.78,17.44-12.23s4.76-14,4.94-21.39c.57-22.54-7.08-44.33-12.52-66.21a343,343,0,0,1-9.93-72Z"/><polyline class="cls-2" points="102.29 1465.89 129.83 1466.62 112.88 1484.92 158.8 1484.92"/><polyline class="cls-2" points="79.23 1466.25 46.78 1471.63 61.66 1480.05 31.44 1484.56"/><line class="cls-2" x1="83.19" y1="1463.65" x2="50.85" y2="1451.56"/><path class="cls-3" d="M109.31,1466.14c0,1.5-2.56,2.44-7,3.23a45.78,45.78,0,0,1-8.67.93,59.21,59.21,0,0,1-7.07-.41,26.23,26.23,0,0,1-7.47-1.81c-1.36-.63-1.17-1.58-1.17-2.35,0-1.57,3.49-2.28,8.25-3,2.55-.41,4.25-1.08,7.46-1.08a66.68,66.68,0,0,1,7.62,0C106.8,1462.32,109.31,1464.79,109.31,1466.14Z"/><path class="cls-4" d="M84.64,1469.61c.62.1,1.27.2,2,.28a59.21,59.21,0,0,0,7.07.41,45.46,45.46,0,0,0,8.55-.91,13.6,13.6,0,0,0,.2-1.7L173.93,1.5H12.69L84.4,1467.69A15,15,0,0,0,84.64,1469.61Z"/><polygon class="cls-1" points="18.15 113.17 168.48 113.17 173.93 1.5 12.69 1.5 18.15 113.17"/><g class="cls-5"><path class="cls-6" d="M102.41,1467.69,173.93,1.5H112.25L94.72,1470.28a48.26,48.26,0,0,0,7.49-.89A13.6,13.6,0,0,0,102.41,1467.69Z"/></g><path class="cls-2" d="M84.64,1469.61c.62.1,1.27.2,2,.28a59.21,59.21,0,0,0,7.07.41,45.46,45.46,0,0,0,8.55-.91,13.6,13.6,0,0,0,.2-1.7L173.93,1.5H12.69L84.4,1467.69A15,15,0,0,0,84.64,1469.61Z"/><path class="cls-4" d="M140.08,421.2c.45,24.3,1.06,49.35,10.84,71.61,4.1,9.32,9.74,17.95,13.23,27.52s4.57,20.72-.39,29.62c-5.48,9.83-19.83,14.58-28.43,5.88-10.73-10.86-10.7-33.29-9-47.25"/><path class="cls-7" d="M140.08,421.2c.45,24.3,1.06,49.35,10.84,71.61,4.1,9.32,9.74,17.95,13.23,27.52s4.57,20.72-.39,29.62c-5.48,9.83-19.83,14.58-28.43,5.88-10.73-10.86-10.7-33.29-9-47.25"/><path class="cls-2" d="M140.08,421.2c.45,24.3,1.06,49.35,10.84,71.61,4.1,9.32,9.74,17.95,13.23,27.52s4.57,20.72-.39,29.62c-5.48,9.83-19.83,14.58-28.43,5.88-10.73-10.86-10.7-33.29-9-47.25"/><path class="cls-4" d="M64.79,885.56a135.66,135.66,0,0,1-8.68,46.73c-3.57,9.45-8.23,18.6-10,28.55S46,982.08,53.34,989s21.3,6.61,26.21-2.22"/><path class="cls-2" d="M64.79,885.56a135.66,135.66,0,0,1-8.68,46.73c-3.57,9.45-8.23,18.6-10,28.55S46,982.08,53.34,989s21.3,6.61,26.21-2.22"/><ellipse class="cls-6" cx="59.6" cy="979.19" rx="4.64" ry="6.58" transform="translate(-674.94 328.94) rotate(-45)"/><ellipse class="cls-6" cx="152.93" cy="544.93" rx="7.93" ry="5.6" transform="translate(-367.39 322.21) rotate(-51.15)"/></g></g></svg>