<svg width="24" height="25" viewBox="0 0 24 25" fill="none" xmlns="http://www.w3.org/2000/svg">
<path d="M14.5718 6.03494H8.4778L10.264 4.24875C11.2359 3.27686 11.2359 1.70081 10.264 0.72892C9.29209 -0.242974 7.71605 -0.242974 6.74416 0.72892L0.72892 6.77042C-0.242974 7.74232 -0.242974 9.31836 0.72892 10.2903L6.74416 16.3055C7.21697 16.7783 7.87365 17.041 8.50407 17.041C9.13449 17.041 9.76491 16.8046 10.264 16.3055C11.2359 15.3336 11.2359 13.7576 10.264 12.7857L8.4778 10.9995H14.5718C17.0147 10.9995 19.011 12.9958 19.011 15.57C19.011 18.0129 17.0147 20.0092 14.5718 20.0092C13.2059 20.0092 12.0764 21.1124 12.0764 22.5046C12.0764 23.8968 13.1797 25 14.5718 25C19.7728 25 23.9756 20.7709 23.9756 15.4649C24.0018 10.264 19.7728 6.03494 14.5718 6.03494Z" fill="#000D3B"/>
</svg>
