<svg width="22" height="20" viewBox="0 0 25 21" fill="none" xmlns="http://www.w3.org/2000/svg">
<path d="M18.3228 5.79865C17.797 5.37804 17.0084 5.43061 16.5615 5.98266C16.1146 6.53471 16.2197 7.32336 16.7718 7.77025C17.4816 8.34859 17.9285 9.24239 17.9285 10.215C17.9285 11.2666 17.429 12.1867 16.6403 12.765C16.1409 13.133 16.062 13.8691 16.4563 14.3423L16.5615 14.4474C16.9821 14.9469 17.7707 15.0521 18.2702 14.6577C19.5846 13.6325 20.4258 12.0026 20.4258 10.215C20.4258 8.42746 19.6109 6.85017 18.3228 5.79865Z" fill="white"/>
<path d="M21.1882 2.27662C20.6624 1.85601 19.9001 1.96116 19.4532 2.46063C19.0326 2.9864 19.0852 3.77504 19.6109 4.19565C21.3459 5.64149 22.4763 7.79711 22.4763 10.2156C22.4763 12.6341 21.3459 14.816 19.6109 16.2356C19.0852 16.6562 19.0326 17.4448 19.4532 17.9706C19.8738 18.4964 20.6624 18.6015 21.1882 18.1809C23.5016 16.3145 25 13.449 25 10.2419C24.9737 7.00847 23.5016 4.14307 21.1882 2.27662Z" fill="white"/>
<path d="M10.9884 0.357311L4.60041 5.27318H1.47213C0.657202 5.27318 0 5.93038 0 6.74531V13.6854C0 14.5003 0.657202 15.1575 1.47213 15.1575H4.60041L11.0147 20.0734C12.1451 20.9409 13.7487 20.1522 13.7487 18.7064V1.698C13.7487 0.304735 12.1188 -0.510196 10.9884 0.357311Z" fill="white"/>
</svg>
