<svg xmlns="http://www.w3.org/2000/svg" viewBox="0 0 254.76 827.3"><defs><style>.cls-1{fill:#1b62e0;}.cls-1,.cls-2,.cls-3,.cls-8,.cls-9{stroke:#000d3b;stroke-linecap:round;stroke-linejoin:round;stroke-width:3px;}.cls-2{fill:#557dff;}.cls-3{fill:#0004ff;}.cls-4{fill:#000d3b;}.cls-5{fill:#e1e9ff;opacity:0.35;}.cls-6{fill:#ffca83;}.cls-7{fill:#ff991e;opacity:0.4;}.cls-8{fill:none;}.cls-9{fill:#f93;}</style></defs><g id="Calque_2" data-name="Calque 2"><g id="Plateformes"><rect class="cls-1" x="74.22" y="171.07" width="138.26" height="635.98"/><path class="cls-2" d="M33.44,28.13V220.5c0,14.71,49.21,26.63,109.91,26.63s109.91-11.92,109.91-26.63V28.13Z"/><ellipse class="cls-3" cx="143.35" cy="28.13" rx="109.91" ry="26.63"/><path class="cls-4" d="M143.35,101.41c-37.17,0-68.17-6.33-75.18-14.73a.84.84,0,0,0-1.49.53v88.7c0,10.12,34.33,18.34,76.67,18.34S220,186,220,175.91V87.21a.84.84,0,0,0-1.49-.53C211.52,95.08,180.52,101.41,143.35,101.41Z"/><path class="cls-5" d="M68.17,84a.84.84,0,0,0-1.49.52v88.7c0,7.19,17.32,13.42,42.53,16.42l16.26-91.42C96.57,96.58,74,91,68.17,84Z"/><path class="cls-3" d="M143.35,197.7c-20.95,0-40.71-2-55.64-5.54-18.28-4.37-27.17-10.56-27.17-18.93v-82a10.26,10.26,0,0,1,5.11-8.93c3.19-1.87,6.78-1.43,10.23-.13C87,86.34,109.59,92.48,143.35,92.48a223.6,223.6,0,0,0,67.46-10.31c4.41-1.31,7.05-1.74,10.24.13a10.26,10.26,0,0,1,5.11,8.93v82c0,8.37-8.89,14.56-27.17,18.93C184.06,195.73,164.3,197.7,143.35,197.7ZM72.81,172.85c1,1.34,6.13,5,20.87,8.08,13.63,2.91,31.27,4.5,49.67,4.5s36-1.59,49.67-4.5c14.74-3.13,19.92-6.74,20.87-8.08V94.34c-14.13,6.46-40.61,10.41-70.54,10.41s-56.41-4-70.54-10.41Z"/><path class="cls-4" d="M74.22,241.2V276c18.88,3.7,42.93,5.93,69.13,5.93s50.25-2.23,69.13-5.93V241.2c-18.88,3.71-42.93,5.93-69.13,5.93S93.1,244.91,74.22,241.2Z"/><rect class="cls-4" y="809.43" width="186.69" height="17.88" rx="8.94"/><path class="cls-6" d="M74.64,821.34a20.46,20.46,0,0,1-18.68-12c-5.45-12.12-9.69-30.83,7-43.68,26.56-20.43,78.67-21.45,93,9.2,6.87,14.7,5.68,26,2.58,33.77a20.4,20.4,0,0,1-19,12.72Z"/><path class="cls-7" d="M156.11,779.42a36.34,36.34,0,0,0-12-14.46c-8.7,13.18-21.74,23.8-36.18,30.46-17,7.85-35.69,10.88-54.5,11.34a64.67,64.67,0,0,0,2.32,6.12,20.47,20.47,0,0,0,18.57,12.2l64.89.66a20.39,20.39,0,0,0,19.12-12.53C161.52,805.47,162.83,794.19,156.11,779.42Z"/><path class="cls-8" d="M74.64,821.34a20.46,20.46,0,0,1-18.68-12c-5.45-12.12-9.69-30.83,7-43.68,26.56-20.43,78.67-21.45,93,9.2,6.87,14.7,5.68,26,2.58,33.77a20.4,20.4,0,0,1-19,12.72Z"/><path class="cls-9" d="M216.74,825.74c8.25-16.85,16-41.09,20.11-59.38,1-4.55,1.68-10-1.66-13.26-4.73-4.62-12.72-.7-17.32,4.06a59.41,59.41,0,0,0-15,27.85c-.32,3.13-.78,6.26-1.39,9.35a57.79,57.79,0,0,1,1.39-9.35A105.31,105.31,0,0,0,192,726.68c-2-3.86-4.82-8-9.13-8.47-6.38-.67-10.19,6.86-11.69,13.11a152.06,152.06,0,0,0-.15,69.85,166.78,166.78,0,0,0-24.33-40.64c-3.78-4.65-9.44-9.55-15-7.4-6.5,2.49-6.34,11.71-4.55,18.44a155.64,155.64,0,0,0,26.61,54.17C173.38,825.74,195,825.63,216.74,825.74Z"/></g></g></svg>