<svg viewBox="0 0 222.82 824.35" xmlns="http://www.w3.org/2000/svg"><g stroke="#000d3b" stroke-linecap="round" stroke-linejoin="round" stroke-width="3"><path d="m42.28 171.07h138.26v635.98h-138.26z" fill="#1b62e0"/><path d="m1.5 28.13v192.37c0 14.71 49.21 26.63 109.91 26.63s109.91-11.92 109.91-26.63v-192.37z" fill="#557dff"/><ellipse cx="111.41" cy="28.13" fill="#ff451a" rx="109.91" ry="26.63"/></g><path d="m111.41 101.41c-37.17 0-68.17-6.33-75.18-14.73a.84.84 0 0 0 -1.49.53v88.7c0 10.12 34.33 18.34 76.67 18.34s76.67-8.22 76.67-18.34v-88.7a.84.84 0 0 0 -1.49-.53c-7.01 8.4-38.01 14.73-75.18 14.73z" fill="#000d3b"/><path d="m36.23 84a.84.84 0 0 0 -1.49.52v88.7c0 7.19 17.32 13.42 42.53 16.42l16.26-91.41c-28.9-1.65-51.45-7.23-57.3-14.23z" fill="#e1e9ff" opacity=".35"/><path d="m111.41 197.7c-21 0-40.7-2-55.64-5.54-18.28-4.37-27.16-10.56-27.16-18.93v-82a10.27 10.27 0 0 1 5.1-8.93c3.19-1.87 6.79-1.43 10.24-.13 11.05 4.17 33.7 10.31 67.46 10.31a223.75 223.75 0 0 0 67.47-10.31c4.4-1.31 7.05-1.74 10.23.13a10.26 10.26 0 0 1 5.11 8.93v82c0 8.37-8.89 14.56-27.17 18.93-14.93 3.57-34.69 5.54-55.64 5.54zm-70.54-24.85c1 1.34 6.13 5 20.87 8.08 13.63 2.91 31.27 4.5 49.67 4.5s36-1.59 49.68-4.5c14.73-3.13 19.91-6.74 20.86-8.08v-78.51c-14.13 6.46-40.61 10.41-70.54 10.41s-56.41-3.95-70.54-10.41z" fill="#ff451a" stroke="#000d3b" stroke-linecap="round" stroke-linejoin="round" stroke-width="3"/><path d="m42.28 241.2v34.8c18.88 3.7 42.94 5.93 69.13 5.93s50.25-2.23 69.13-5.93v-34.8c-18.88 3.71-42.93 5.93-69.13 5.93s-50.25-2.22-69.13-5.93z" fill="#000d3b"/><rect fill="#000d3b" height="17.88" rx="8.94" width="126.98" x="13.09" y="806.13"/><path d="m133.84 822.51c-28.44-1.31-47.12-16.63-60.84-40.59a2.54 2.54 0 0 1 3.16-3.59c18.06 7.21 31.13 11.15 48.72 22.59-10.57-11.75-14.44-16-22.46-29.63a79.58 79.58 0 0 1 -11.42-34.22 2.55 2.55 0 0 1 4.26-2.16c15.09 14.05 28.79 31.61 46.65 55.62-9.83-26.69-5-52.75-.73-72.42a2.54 2.54 0 0 1 4.8-.47c9 20.65 17 43 14.67 68.64 4.63-22 16.11-35.34 34.12-47.34a2.55 2.55 0 0 1 3.93 2.54c-3.33 18.43-8.6 38.4-18.68 54.37 12.11-8.78 23.06-16.38 37-18.37a2.53 2.53 0 0 1 2.52 3.81c-10.5 17.45-27.45 40.22-44.12 41.56z" fill="#ff451a" stroke="#000d3b" stroke-linecap="round" stroke-linejoin="round" stroke-width="3"/></svg>