<svg xmlns="http://www.w3.org/2000/svg" viewBox="0 0 386.86 1775.87"><defs><style>.cls-1{fill:#f93;}.cls-1,.cls-7{stroke:#000d3b;stroke-linecap:round;stroke-linejoin:round;stroke-width:3px;}.cls-2{fill:#ff451a;}.cls-3{opacity:0.5;}.cls-4{fill:#ff991e;}.cls-5{opacity:0.3;}.cls-6{fill:#000d3b;}.cls-7{fill:none;}</style></defs><g id="Calque_2" data-name="Calque 2"><g id="Mur"><path class="cls-1" d="M37.67,196c.17,1.41.3,2.83.34,4.26a26.41,26.41,0,0,1-.34-4.26,47.52,47.52,0,0,0-10.75-24.52c-1.26-1.49-2.93-3-4.87-2.79-2.88.36-3.78,4.06-3.8,6.95a68.55,68.55,0,0,0,7.07,30.72A75.14,75.14,0,0,0,10.47,191c-2.13-1.66-5.12-3.24-7.36-1.72C.5,191,1.51,195.05,3,197.83c4.28,8.07,13.78,17.38,20.82,23.2,8.66-2,13.1-3.09,22.67-5.26,1.9-8.25,4.28-23,4.23-31.45,0-2.1-.28-4.57-2.08-5.66-2.56-1.54-5.67,1-7.2,3.56A26.77,26.77,0,0,0,37.67,196"/><path class="cls-2" d="M201.71,425.38c-25.46,15.21-74,6.79-94.05-15.08s-21.73-56.36-24.22-85.41c-2.53-29.56-1.26-57.56-11.45-85.42-5.21-14.24-15.53-29.6-30.69-29.53-11.76.05-21.57,10.11-25.22,21.28s-2.52,23.27-1.34,35q5.91,58.53,11.81,117.06c3.17,31.34,7.18,64.77,27.52,88.83,30.39,36,84.32,37.45,131.39,36.06Z"/><g class="cls-3"><path class="cls-4" d="M35.21,210.47q2.46,31,6.25,61.93,3.78,30.69,8.89,61.21c3.34,19.92,6.94,39.83,11.33,59.55,3.91,17.57,9.14,35.36,19.61,50.26,9.71,13.83,23.36,24.34,38.39,31.84,1.94,1,3.89,1.88,5.87,2.76,1.75.77,3.27-1.81,1.51-2.6-15.22-6.74-29.38-16.19-39.94-29.21C75.82,432.27,70,415,65.82,397.76,61.2,378.54,57.74,359,54.38,339.52q-5.21-30.21-9.1-60.64T38.83,218q-.31-3.78-.62-7.56c-.15-1.91-3.15-1.92-3,0Z"/></g><g class="cls-5"><path class="cls-4" d="M72,239.47c-5.21-14.24-15.53-29.6-30.69-29.53-11.76.05-21.57,10.11-25.22,21.28s-2.52,23.27-1.34,35q4.76,47,9.49,94.06l58.89-39.36C81,292.8,81.72,266.07,72,239.47Z"/></g><path class="cls-6" d="M185.46,508.14l16.25-82.76c-21.42,12.8-59.18,8.87-82.57-5.73q-2,42.39-3.94,84.79C137.9,508.8,162.49,508.82,185.46,508.14Z"/><path class="cls-7" d="M201.71,425.38c-25.46,15.21-74,6.79-94.05-15.08s-21.73-56.36-24.22-85.41c-2.53-29.56-1.26-57.56-11.45-85.42-5.21-14.24-15.53-29.6-30.69-29.53-11.76.05-21.57,10.11-25.22,21.28s-2.52,23.27-1.34,35q5.91,58.53,11.81,117.06c3.17,31.34,7.18,64.77,27.52,88.83,30.39,36,84.32,37.45,131.39,36.06Z"/><path class="cls-1" d="M357.51,71.72c-.14,1.41-.34,2.82-.62,4.22a26.19,26.19,0,0,1,.62-4.22A47.46,47.46,0,0,0,352.6,45.4c-.89-1.74-2.17-3.62-4.12-3.82-2.88-.3-4.6,3.09-5.27,5.91A68.64,68.64,0,0,0,343.14,79a75.2,75.2,0,0,0-11-18.34c-1.7-2.09-4.26-4.3-6.78-3.34-2.94,1.13-2.87,5.29-2.06,8.33,2.35,8.82,9.49,20,15,27.31,8.89,0,13.46,0,23.27,0,3.72-7.6,9.37-21.41,11.24-29.67.47-2,.76-4.51-.75-6-2.13-2.08-5.74-.31-7.81,1.83a26.92,26.92,0,0,0-6.79,12.57"/><path class="cls-2" d="M229.39,279.11c22.1,7.87,62.5.27,77.72-17.58s18.33-46.49,18-69.95c-.35-24-3.42-42.82-2.61-67.94.55-17.28,12-37.68,29.33-37,9.38.38,17.36,7.65,21.36,16.14s4.8,18.09,5.53,27.44q2.48,31.53,4.93,63c2.21,28.26,4.22,57.81-6.87,83.89-11.8,27.76-37.36,47.93-65.36,59.13s-58.49,14.43-88.6,16.22Z"/><g class="cls-3"><path class="cls-4" d="M277.54,307.72c16.48-3.46,32.93-8.38,47.27-17.45,12.58-7.95,23.45-19,29.3-32.82,6.68-15.82,6.53-33.44,5.38-50.27-1.28-18.77-3.14-37.52-5.21-56.22Q351.15,122.6,347,94.37c-.35-2.36-.7-4.73-1.06-7.09-.29-1.91-3.18-1.1-2.89.79q4.18,27.69,7.4,55.51t5.46,55.89c1.33,16.58,2.61,33.81-2.13,50C349.51,264,339.87,276,327.64,284.76c-13.25,9.48-28.75,14.95-44.5,18.65-2.12.5-4.26,1-6.4,1.42-1.89.39-1.09,3.29.8,2.89Z"/></g><path class="cls-6" d="M229.39,279.11l-6.59,73.42c21.21-1.26,42.61-3.25,63.2-8.22q-.5-34.26-1-68.52C266.92,282.72,244.1,284.35,229.39,279.11Z"/><g class="cls-5"><path class="cls-4" d="M373.05,102.81c-4-8.49-12-15.76-21.36-16.14-17.28-.71-28.78,19.69-29.33,37a354.58,354.58,0,0,0,1,36.62L378,123.74C377.31,116.51,376.13,109.34,373.05,102.81Z"/></g><path class="cls-7" d="M229.39,279.11c22.1,7.87,62.5.27,77.72-17.58s18.33-46.49,18-69.95c-.35-24-3.42-42.82-2.61-67.94.55-17.28,12-37.68,29.33-37,9.38.38,17.36,7.65,21.36,16.14s4.8,18.09,5.53,27.44q2.48,31.53,4.93,63c2.21,28.26,4.22,57.81-6.87,83.89-11.8,27.76-37.36,47.93-65.36,59.13s-58.49,14.43-88.6,16.22Z"/><path class="cls-2" d="M126.81,1772.08C99.25,1234.27,125.58,694.17,153,156.35c2-38.6,9.48-107.13,17.61-123.35,14.33-28.61,36.54-41.43,61.8-22.68,26.4,19.6,30.08,67.52,30.59,107.94,6.82,545.29,20.9,1089.13-8.5,1653.82Z"/><g class="cls-3"><path class="cls-4" d="M235.12,210.86c-.49-40.8-1.8-81.64-5.07-122.31-1.46-18.11-3.22-36.28-6.44-54.18-1.74-9.7-3.31-22.82-9.82-30.77-1.48-1.8-3.12-3.19-5.41-3.5a1.21,1.21,0,0,0-.55-.07,1.44,1.44,0,0,0-.64.09c-6.38.94-9.05,10-10.68,15.1-4.46,14-6.26,28.94-8,43.47-4.87,41-6.48,82.43-7.48,123.68-3,123.19-4.6,246.4-8,369.59C169.52,682,165.7,812,163.48,942.1s-3.89,260.26-4.56,390.38.24,260.36,5.23,390.44q.93,24.58,2.08,49.16c.09,1.92,3.09,1.93,3,0-5.87-127.09-7.64-254.32-7.5-381.52.14-127.78,2.14-255.55,3.77-383.32,1.62-127.19,5-254.35,8.54-381.51,3.53-127.71,7.13-255.43,9.05-383.18.65-43.37,1.19-86.71,3.83-130,1.22-20,2.76-39.92,5.33-59.75,1.8-13.83,3.45-28.86,9-41.82,1.15-2.7,3.1-7.72,6.61-7.93,7.65.45,10.38,19.76,11.5,25,3.77,17.7,5.59,35.83,7.16,53.84,3.45,39.6,4.87,79.4,5.5,119.14,2,125.75-.4,251.55-2.79,377.28-2.42,127.12-5.12,254.24-4.45,381.39.67,127.8,2.43,255.54,1.16,383.34-1.25,127.26-4.52,254.52-10.68,381.64q-1.15,23.7-2.44,47.4c-.1,1.93,2.9,1.92,3,0,7-130,11-260.15,12.68-390.32s.8-260.24-.48-390.37,1.28-260.18,3.77-390.25S236.68,341,235.12,210.86Z"/></g><path class="cls-7" d="M126.81,1772.08C99.25,1234.27,125.58,694.17,153,156.35c2-38.6,9.48-107.13,17.61-123.35,14.33-28.61,36.54-41.43,61.8-22.68,26.4,19.6,30.08,67.52,30.59,107.94,6.82,545.29,20.9,1089.13-8.5,1653.82Z"/><path class="cls-1" d="M89,1772.54a173.42,173.42,0,0,1-68.35-31.38,2.65,2.65,0,0,1,2.08-4.73c25.59,5.09,41.92,6.77,64.88,19.17-22.29-18.94-36.47-31.08-52.62-55.3a2.65,2.65,0,0,1,3.39-3.85c31.9,15.86,50.25,25.86,78.44,47.63-27.11-30.44-43.08-53.49-54.91-92.2a2.64,2.64,0,0,1,4.18-2.81,331.38,331.38,0,0,1,75,82.77c-14.43-35.87-29-72.4-33.71-110.65a2.65,2.65,0,0,1,4.83-1.78,488.5,488.5,0,0,1,56.39,111.24,1154,1154,0,0,1,5.08-125.13,2.65,2.65,0,0,1,5.16-.54,267.78,267.78,0,0,1,9.34,121,270.08,270.08,0,0,1,33.67-102,2.64,2.64,0,0,1,4.93,1.61q-6.57,51.38-17.62,102.05l62.09-71.23a2.64,2.64,0,0,1,4.43,2.74l-29.36,75c19.71-22.37,44.83-50.12,70.42-65.4a2.63,2.63,0,0,1,3.48,3.79,652.92,652.92,0,0,0-43.65,70.65l62.09-45.43a2.64,2.64,0,0,1,3.68,3.7l-36.21,49A224.23,224.23,0,0,1,360,1732a2.65,2.65,0,0,1,2.36,4.51,198.67,198.67,0,0,1-57,37.84Z"/></g></g></svg>