<svg xmlns="http://www.w3.org/2000/svg" viewBox="0 0 187.85 329.7"><defs><style>.cls-1{fill:#64ce55;}.cls-1,.cls-3,.cls-4,.cls-5,.cls-6{stroke:#000d3b;stroke-width:3px;}.cls-1,.cls-4,.cls-5,.cls-6{stroke-linecap:round;stroke-linejoin:round;}.cls-2{fill:#000d3b;}.cls-3,.cls-5{fill:#fff;}.cls-3{stroke-miterlimit:10;}.cls-4{fill:#ff5f5f;}.cls-6{fill:#7822ff;}</style></defs><g id="Calque_2" data-name="Calque 2"><g id="Colors"><path class="cls-1" d="M110.88,196.72c5.45,3.87,10.89,7.69,15.39,13.09a69.92,69.92,0,0,1,13.61,25.66c2.41,8.5,2.19,18.68,8.55,25.52,7.94,8.54,23.48,8.64,31.41,0a23,23,0,0,0,6.51-15.71c-.07-22.05-10.37-43.47-23.61-60.61a99.22,99.22,0,0,0-15.15-16.24c-8.38-6.93-18.18-14.12-29-16.51-8.11-1.79-17.6.8-22.29,8a16.66,16.66,0,0,0-4,7.55c-1.93,8.11,2.06,15.63,8,21A108.05,108.05,0,0,0,110.88,196.72Z"/><rect class="cls-1" x="83.94" y="236.13" width="53.25" height="92.07" rx="26.62"/><path class="cls-2" d="M137.1,260.69l0-.36c-.06-.66-.14-1.31-.25-1.95a3.06,3.06,0,0,0,0-.32,27.66,27.66,0,0,0-1-4l-.06-.16c-.23-.65-.48-1.29-.76-1.91l0-.12a26.64,26.64,0,0,0-3.28-5.46h0l-.13-.16h0c-.33-.42-.67-.83-1-1.23h0a27.65,27.65,0,0,0-2.5-2.46h0c-.65-.55-1.32-1.08-2-1.57h0c-.7-.49-1.42-.95-2.17-1.38h0c-.37-.21-.74-.41-1.13-.61h0q-.88-.45-1.8-.84h0c-.59-.24-1.18-.46-1.78-.66h0c-.51-.18-1-.33-1.55-.47h0c-.53-.15-1.07-.28-1.62-.38h0c-.64-.13-1.29-.23-1.94-.31h0c-.55-.07-1.1-.12-1.66-.15h0c-.54,0-1.09-.06-1.64-.06-.7,0-1.39,0-2.09.09h-.17c-.87.08-1.72.19-2.56.35h0c-.81.15-1.61.34-2.39.56h0c-.78.23-1.55.48-2.3.77l0,0c-.76.3-1.5.62-2.22,1h0A26.64,26.64,0,0,0,91,244.7l0,0c-.52.56-1,1.15-1.49,1.76a1.47,1.47,0,0,1-.1.13c-.45.59-.87,1.2-1.27,1.83a1.37,1.37,0,0,0-.13.2c-.39.62-.75,1.25-1.08,1.9,0,.08-.09.17-.13.25-.33.65-.63,1.3-.9,2,0,.09-.07.19-.11.28-.27.68-.5,1.37-.71,2.07l-.09.28c-.2.71-.38,1.44-.52,2.17,0,.08,0,.17,0,.25-.14.76-.25,1.52-.33,2.3,0,.05,0,.11,0,.16-.08.81-.12,1.63-.12,2.47v38.82a26.93,26.93,0,0,0,1.12,7.66c21.7-2.13,39.49-13.34,51.43-29.16,0-.07,0-.14,0-.2h.71V262.76C137.19,262.06,137.15,261.37,137.1,260.69Z"/><rect class="cls-1" x="17.5" y="236.13" width="53.25" height="92.07" rx="26.62"/><path class="cls-2" d="M44.12,236.13h0c-.65,0-1.28,0-1.92.08H42l-1.62.18h0c-.54.07-1.08.16-1.6.27h0a25.47,25.47,0,0,0-3.27.91l-.24.08h0c-.51.18-1,.38-1.52.59h0l0,0q-.72.3-1.41.66h0l-.29.14h0q-.69.36-1.35.75l-.05,0h0c-.49.29-1,.6-1.43.91h0c-.45.31-.88.63-1.31,1h0l0,0q-1,.82-2,1.74h0c-.61.58-1.19,1.2-1.74,1.83h0l0,0h0c-.5.58-1,1.18-1.42,1.81h0a26.63,26.63,0,0,0-3.27,6.06l0,.09c-.26.68-.48,1.37-.68,2.07l-.07.25q-.28,1-.48,2.07l-.06.31c-.12.7-.22,1.41-.29,2.14,0,.08,0,.17,0,.25-.06.75-.1,1.52-.1,2.29v17.12H18c12,15.93,29.81,27.24,51.62,29.36a26.58,26.58,0,0,0,1.12-7.66V262.76A26.62,26.62,0,0,0,44.12,236.13Z"/><path class="cls-1" d="M137.24,61.42h0A59.92,59.92,0,0,0,77.32,1.5h0A59.91,59.91,0,0,0,17.41,61.41h0c0,48.39-4.06,96.82-14.23,144.13-9.42,43.81,21.64,90.91,71.55,92.36.86,0,1.72,0,2.59,0h0c.87,0,1.73,0,2.59,0,49.92-1.45,81-48.55,71.55-92.36C141.29,158.24,137.24,109.81,137.24,61.42Z"/><path class="cls-2" d="M134.64,84.63l3,1q-.36-12.1-.36-24.21h0A59.94,59.94,0,0,0,93,3.59c-4.52.3-8.9.7-13.17,1.22-14.35,1.75-26,4.07-36.5,7.26A59.86,59.86,0,0,0,17.41,61.41h0c0,7.56-.12,15.12-.32,22.67l5.76-4.88c.48-.41.95-.81,1.44-1.2A113.68,113.68,0,0,1,42.81,66.94,150.72,150.72,0,0,1,72,67.77c18.73,2.81,37,8.38,52.45,13.46Q129.57,82.91,134.64,84.63Z"/><path class="cls-3" d="M101.66,176.65l-5.3-2.24a22.57,22.57,0,0,0-11.82,0l-.92.14a147.86,147.86,0,0,1-33.77.52c-.64-.11-1.26-.24-1.89-.36a31.72,31.72,0,0,0-4.81,16.59c0,11.23,6.22,21.41,16.3,28.89,12.37.38,24.69-1,36.91-2.92a16.66,16.66,0,0,0,7.55-4,16.76,16.76,0,0,0,5.73-6.23,16.54,16.54,0,0,0,2.63-8.26,16.9,16.9,0,0,0-.39-8.86C110.14,184.56,106.8,179.37,101.66,176.65Z"/><path class="cls-2" d="M48.38,104.77a5.23,5.23,0,1,0,0,10.45h57.89a5.23,5.23,0,0,0,0-10.45Z"/><path class="cls-4" d="M106.27,133.69H48.38a23.69,23.69,0,0,1,0-47.38h57.89a23.69,23.69,0,1,1,0,47.38ZM48.38,104.77a5.23,5.23,0,1,0,0,10.45h57.89a5.23,5.23,0,0,0,0-10.45Z"/><path class="cls-5" d="M106.27,104.77H95.91v4.29a6.18,6.18,0,0,0,5.6,6.16h1.17a6.18,6.18,0,0,0,5.6-6.16v-3.88A5,5,0,0,0,106.27,104.77Z"/><path class="cls-5" d="M58.77,104.77v4.29a6.19,6.19,0,0,0,5.61,6.16h1.16a6.19,6.19,0,0,0,5.61-6.16v-4.29Z"/><path class="cls-5" d="M48.38,104.77a5.22,5.22,0,0,0-2,.39v3.9A6.19,6.19,0,0,0,52,115.22h1.16a6.19,6.19,0,0,0,5.61-6.16v-4.29Z"/><path class="cls-5" d="M71.15,104.77v4.29a6.19,6.19,0,0,0,5.61,6.16h1.16a6.19,6.19,0,0,0,5.61-6.16v-4.29Z"/><path class="cls-3" d="M137.38,76.54q-.13-7.56-.14-15.12h0a59.75,59.75,0,0,0-4.33-22.35A359.65,359.65,0,0,0,94,28.4,222,222,0,0,0,60.8,24a165.07,165.07,0,0,0-31.57,1.68A59.61,59.61,0,0,0,17.41,61.41h0c0,.71,0,1.43,0,2.14A114.73,114.73,0,0,1,36.31,59a154.77,154.77,0,0,1,36.88.34c18.41,2.75,36.33,8,54,13.81Q132.29,74.8,137.38,76.54Z"/><path class="cls-3" d="M75.73,31.11a230.57,230.57,0,0,1,54.21,14.81q3,1.3,5.91,2.67A59.94,59.94,0,0,0,77.32,1.5h0A59.86,59.86,0,0,0,26,30.48,224,224,0,0,1,75.73,31.11Z"/><path class="cls-3" d="M42.62,57.61A165.64,165.64,0,0,1,80.91,47.49c18-2.17,36.24-2.09,54.38-1.27A60,60,0,0,0,110.46,11.5a263.74,263.74,0,0,0-29.59,1.8c-12.75,1.55-25.34,3.76-37.58,7.75-4.95,1.62-9.87,3.46-14.7,5.53A59.63,59.63,0,0,0,17.41,61.41h0c0,3.75,0,7.51-.09,11.27.57-.48,1.14-1,1.72-1.43A124.21,124.21,0,0,1,42.62,57.61Z"/><ellipse class="cls-2" cx="77.32" cy="246.77" rx="3.12" ry="4.68"/><path class="cls-6" d="M77.32,269.89c-28.58,0-54.35-10.16-72.6-26.44,8.73,29.47,34.63,53.43,70,54.46.86,0,1.72,0,2.59,0h0c.87,0,1.73,0,2.59,0,35.38-1,61.28-25,70-54.46C131.68,259.73,105.9,269.89,77.32,269.89Z"/><path class="cls-2" d="M100,215.93a17.26,17.26,0,0,1-3.67,1.34c-13,2-26,3.5-39.12,2.86a163,163,0,0,1-20.07-2.34,94.09,94.09,0,0,1-14.48-3.72,112.76,112.76,0,0,1-17-7.39c-.82-.44-1.62-.92-2.42-1.4,0,.09,0,.18,0,.27a75.56,75.56,0,0,0-1.67,14.6,132.61,132.61,0,0,0,46.81,8.45,132,132,0,0,0,52.58-10.79Z"/><path class="cls-3" d="M148.51,190.81q-3.1-16.56-5.29-33.26c-.51.58-1,1.17-1.54,1.74a84.53,84.53,0,0,1-11.84,9.26,168.44,168.44,0,0,1-24.28,10.95,24.91,24.91,0,0,1,6.32,10.44,16.9,16.9,0,0,1,.39,8.86,16.54,16.54,0,0,1-2.63,8.26c-.22.41-.48.78-.72,1.16,2.27-.76,4.54-1.52,6.79-2.32,5.57-2,11.07-4.12,16.39-6.48A154.38,154.38,0,0,0,148.51,190.81Z"/><path class="cls-3" d="M93.75,203.39c-4.51-3.11-8.93-6.35-13.28-9.68q-11-8.58-21.24-18c-3.13-.1-6.26-.31-9.38-.65a94.24,94.24,0,0,1-17.71-4.72,73.89,73.89,0,0,1-11.28-6.57,69.54,69.54,0,0,1-8.7-8.63l-.37-.5c-.08.64-.17,1.27-.25,1.91-.16,1.26-.33,2.53-.5,3.79q-.51,3.79-1.07,7.58c-.07.46-.13.91-.2,1.37q6.75,7.62,13.87,14.88a376.94,376.94,0,0,0,41.08,36.07,222.7,222.7,0,0,0,31.64-3,16.66,16.66,0,0,0,7.55-4,16.7,16.7,0,0,0,2.24-1.76Q99.86,207.6,93.75,203.39Z"/><path class="cls-3" d="M37.17,217.79a163,163,0,0,0,20.07,2.34c3.46.17,6.92.18,10.38.08-2.2-2.57-4.36-5.17-6.46-7.83a253.05,253.05,0,0,1-25.81-41.77c-1.82-3.72-3.53-7.48-5.16-11.28A249.62,249.62,0,0,1,16.58,115c-.25-1.24-.48-2.48-.71-3.72a658.31,658.31,0,0,1-8.4,72.09A258.53,258.53,0,0,0,25.5,215,95.3,95.3,0,0,0,37.17,217.79Z"/><path class="cls-2" d="M35.35,170.61l.52,1a97.29,97.29,0,0,0,14,3.42c1.54.17,3.09.3,4.63.41l.29,0c1.47.09,2.95.17,4.43.22a159.89,159.89,0,0,0,24.25-1.15c-8.67-.49-17.33-1.28-25.72-3.47-10.59-2.78-20.85-8-27.79-16.49a42,42,0,0,1-3.51-5q1.79,4.9,3.76,9.72C31.82,163.13,33.53,166.89,35.35,170.61Z"/><path class="cls-2" d="M117.73,188.73a30,30,0,0,0-6.53-11.4c-1.87.75-3.74,1.47-5.64,2.17a24.91,24.91,0,0,1,6.32,10.44,16.9,16.9,0,0,1,.39,8.86,16.54,16.54,0,0,1-2.63,8.26c-.22.41-.48.78-.72,1.16,2.27-.76,4.54-1.52,6.79-2.32l1.1-.4a19.24,19.24,0,0,0,1.39-6.38A19.75,19.75,0,0,0,117.73,188.73Z"/><path class="cls-2" d="M152,172.73c-2.47-2.52-5-5-7.67-7.3q2.91,20.17,7.15,40.12a77.38,77.38,0,0,1-6.54,50.6,26.41,26.41,0,0,0,5.87,6.38,16.91,16.91,0,0,0,2.4,1.59A85.07,85.07,0,0,0,159,211.25Q154.91,192.09,152,172.73Z"/></g></g></svg>