<svg xmlns="http://www.w3.org/2000/svg" viewBox="0 0 222.82 824.29"><defs><style>.cls-1{fill:#f987e4;}.cls-1,.cls-3,.cls-4{stroke:#000d3b;stroke-linecap:round;stroke-linejoin:round;stroke-width:3px;}.cls-2{fill:#000d3b;}.cls-3{fill:#fab6ff;}.cls-4{fill:#ff4de6;}.cls-5{fill:#e1e9ff;opacity:0.35;}</style></defs><g id="Calque_2" data-name="Calque 2"><g id="Plateformes"><path class="cls-1" d="M181.38,807.05v-636H43.12v636s2.56,15.74,69.37,15.74S181.38,807.05,181.38,807.05Z"/><path class="cls-2" d="M43.12,241.2V276C62,279.73,86.05,282,112.25,282s50.24-2.23,69.13-5.93V241.2c-18.89,3.71-42.94,5.93-69.13,5.93S62,244.91,43.12,241.2Z"/><path class="cls-2" d="M193.1,757.79c-3.07-6.35-9-11-15.33-13.91A84.25,84.25,0,0,0,156,737.64c-7.29-1.2-14.64-1.91-22-2.75l-2.27-.26-1-.13c-1.4-.17,1.58.23.19,0-1.18-.17-2.36-.35-3.54-.55-2.36-.39-4.71-.83-7.06-1.29a228.14,228.14,0,0,1-35.62-10q-2.3-.85-4.57-1.79l-1.16-.48.66.28-.52-.22c-.81-.35-1.62-.7-2.42-1.07-3-1.33-5.9-2.77-8.75-4.33a92.59,92.59,0,0,1-8-4.89c-.6-.41-1.2-.83-1.79-1.26l-.92-.68-.4-.3c-.77-.58,1.21,1,.41.32-1.13-.9-2.24-1.81-3.31-2.78s-2-1.91-3-2.93a21.07,21.07,0,0,1-2.73-3.16c0-.06,1,1.36.52.67l-.27-.36c-.2-.28-.4-.55-.59-.83-.41-.58-.8-1.17-1.17-1.78a33.45,33.45,0,0,1-1.82-3.39c-.22-.48-.69-1.76.12.33l-.33-.81c-.23-.61-.44-1.22-.63-1.85a31.13,31.13,0,0,1-.89-3.82c-.22-1.29.15,1.42.06.5,0-.33-.07-.66-.09-1-.06-.71-.09-1.42-.1-2.13s0-1.22.05-1.83c0-.35,0-.7.08-1.05s.22-1.81,0-.5,0-.12.08-.39l.18-1c.15-.74.33-1.47.53-2.19a6,6,0,1,0-11.57-3.19,36,36,0,0,0-.13,19.12,41.25,41.25,0,0,0,9.15,16C50,719.5,61.86,726,73.53,731a220.91,220.91,0,0,0,37.82,12c4.91,1.1,9.86,2.08,14.83,2.85,6.75,1,13.56,1.6,20.34,2.44l1.35.17.61.08-.53-.07c.92.13,1.84.25,2.75.39q2.78.42,5.52.94a88.73,88.73,0,0,1,10.69,2.64c.76.24,1.5.5,2.24.76l1.23.46c.25.1,1.84.75.75.3s.33.15.59.27l1,.48c.78.39,1.55.8,2.31,1.24s1.3.78,1.93,1.21c.33.22.65.46,1,.69s.73.55-.08-.08-.09-.06.1.1a26,26,0,0,1,3.15,3.15c.55.64-1-1.38-.1-.12.22.31.43.62.63.94a20.34,20.34,0,0,1,1.1,2c1.37,2.83,5.63,3.81,8.21,2.15a6.17,6.17,0,0,0,2.15-8.21Z"/><path class="cls-2" d="M193.7,602.59a36.63,36.63,0,0,0-16-18.84c-6.66-4-14.27-6.28-21.81-7.88-6.91-1.46-13.92-2.29-20.9-3.34a147.94,147.94,0,0,1-14.86-3.11q-8.64-2.25-17.07-5.27-4.62-1.65-9.16-3.53l-.49-.2c-1-.4,1.27.54.58.24l-1.09-.47c-.82-.35-1.64-.71-2.45-1.08-1.55-.7-3.1-1.43-4.63-2.18a129.64,129.64,0,0,1-18-10.59c-.66-.47-1.31-.94-2-1.43l-1-.72c-.6-.45,1.29,1,.47.36l-.63-.5c-1.31-1-2.6-2.13-3.86-3.25a74.6,74.6,0,0,1-6.94-7.06c-.5-.58-1-1.18-1.47-1.78-.92-1.15.86,1.15,0,0-.26-.34-.51-.68-.76-1-1-1.33-1.87-2.71-2.71-4.12s-1.57-2.78-2.26-4.22c-.16-.35-.32-.69-.47-1L46,521c-.31-.67.64,1.56.26.62-.31-.78-.62-1.57-.89-2.36A46.48,46.48,0,0,1,44,514.6c-.17-.75-.33-1.51-.46-2.27-.07-.38-.14-.77-.19-1.15-.26-1.71.15,1.37,0-.09a48.39,48.39,0,0,1,0-10.35,11.23,11.23,0,0,1,.17-1.42s-.25,1.67-.1.73l.09-.58c.15-1,.34-2,.54-2.92.64-3.06-.9-6.63-4.19-7.38-3-.68-6.69.91-7.38,4.19A56.59,56.59,0,0,0,32.28,517,53.46,53.46,0,0,0,40.6,536c8.23,12,20.06,21,32.65,27.95A186.6,186.6,0,0,0,111,579.33c4.92,1.44,9.89,2.72,14.91,3.74,6.23,1.27,12.57,1.91,18.84,2.91,7.38,1.18,14.8,2.69,21.75,5.5,1.46.59-1.28-.57.16.06l1.17.53c.85.4,1.69.83,2.52,1.28a44.27,44.27,0,0,1,4.47,2.83c1,.72-1.14-.92,0,0,.36.29.71.58,1.05.88.68.61,1.34,1.24,2,1.9s1.07,1.24,1.62,1.86c-1.36-1.52-.26-.34.05.11s.53.76.77,1.16a25.14,25.14,0,0,1,1.25,2.21c.22.43.4.88.62,1.3-.94-1.79-.14-.32,0,.2,1.1,2.93,4.11,5.25,7.38,4.19,2.87-.93,5.37-4.23,4.19-7.38Z"/><path class="cls-2" d="M179.44,401.47Z"/><path class="cls-2" d="M86.56,337.48c-1-.81-.81-.64-.51-.39l.33.25Z"/><path class="cls-2" d="M50.71,292.55l.06.14c-.2-.5-.3-.72-.32-.78l.09.23C50.59,292.28,50.65,292.42,50.71,292.55Z"/><path class="cls-2" d="M178.38,379.57c-6.74-6.08-14.89-10.08-23.48-12.83-6.86-2.2-13.94-3.47-20.92-5.18a101.49,101.49,0,0,1-14.59-5l-.87-.37-2.08-.93q-2.07-.94-4.12-1.95-4.5-2.21-8.86-4.7Q98.77,346,94.24,343c-1.61-1.07-3.19-2.17-4.76-3.3L87.3,338l-.74-.56.18.14-.36-.28-.07,0-.26-.2L86,337a132.11,132.11,0,0,1-17.76-16.75c-1.31-1.49-2.58-3-3.82-4.59a4.43,4.43,0,0,1-.39-.49h0l-.27-.34.21.26-.76-1c-.71-1-1.41-1.93-2.09-2.91A108.35,108.35,0,0,1,54.28,300q-1.59-3-3-6.08l-.54-1.25.1.27c0-.14-.11-.27-.16-.41s-.07-.14-.1-.22a2.66,2.66,0,0,1-.16-.42c-.41-1-.81-2-1.19-3.07a102.9,102.9,0,0,1-4-13.75c-.54-2.47-1-5-1.33-7.47,0-.13,0-.25,0-.38-.08-.65-.16-1.3-.23-1.95-.13-1.32-.25-2.65-.34-4a119.53,119.53,0,0,1,0-16.39c.08-1.21.2-2.42.31-3.62-4.15-.81-8.07-1.69-11.7-2.63a125.59,125.59,0,0,0,.35,31.77,109.07,109.07,0,0,0,8.29,28.74c7,16.08,18.21,30.28,31.4,41.77a158.44,158.44,0,0,0,37.33,24.21,144,144,0,0,0,16.14,6.46c6.18,2,12.63,3.06,18.93,4.62a102.5,102.5,0,0,1,11.12,3.38l1.42.55.57.24c.78.35,1.57.7,2.34,1.07a54.59,54.59,0,0,1,5.33,3c.81.52,1.61,1.07,2.39,1.64l.35.26c.43.34.85.69,1.26,1a42,42,0,0,1,4.56,4.59c.37.43.72.88,1.08,1.32-1.32-1.58-.19-.24.1.17.69,1,1.35,1.95,2,3s1.22,2.15,1.77,3.25c.24.48.46,1,.68,1.45.14.29.26.6.4.89-.13-.27-.22-.46-.29-.59.11.22.25.52.31.68a58.27,58.27,0,0,1,2.38,7.75,6.05,6.05,0,0,0,7.38,4.19,6.12,6.12,0,0,0,4.19-7.38C191.28,396.46,186.27,386.68,178.38,379.57Zm-20.51,1Z"/><path class="cls-2" d="M64.22,315.47l.15.19-.45-.57.06.08Z"/><path class="cls-3" d="M1.5,28.13V220.5c0,14.71,49.21,26.63,109.91,26.63s109.91-11.92,109.91-26.63V28.13Z"/><ellipse class="cls-4" cx="111.41" cy="28.13" rx="109.91" ry="26.63"/><path class="cls-2" d="M111.41,101.41c-37.17,0-68.17-6.33-75.18-14.73a.84.84,0,0,0-1.49.53v88.7c0,10.12,34.33,18.34,76.67,18.34s76.67-8.22,76.67-18.34V87.21a.84.84,0,0,0-1.49-.53C179.58,95.08,148.58,101.41,111.41,101.41Z"/><path class="cls-5" d="M36.23,84a.84.84,0,0,0-1.49.52v88.7c0,7.19,17.32,13.42,42.53,16.42L93.53,98.23C64.63,96.58,42.08,91,36.23,84Z"/><path class="cls-4" d="M111.41,197.7c-21,0-40.7-2-55.64-5.54-18.28-4.37-27.16-10.56-27.16-18.93v-82a10.27,10.27,0,0,1,5.1-8.93c3.19-1.87,6.79-1.43,10.24-.13C55,86.34,77.65,92.48,111.41,92.48a223.75,223.75,0,0,0,67.47-10.31c4.4-1.31,7.05-1.74,10.23.13a10.26,10.26,0,0,1,5.11,8.93v82c0,8.37-8.89,14.56-27.17,18.93C152.12,195.73,132.36,197.7,111.41,197.7ZM40.87,172.85c1,1.34,6.13,5,20.87,8.08,13.63,2.91,31.27,4.5,49.67,4.5s36-1.59,49.68-4.5c14.73-3.13,19.91-6.74,20.86-8.08V94.34c-14.13,6.46-40.61,10.41-70.54,10.41S55,100.8,40.87,94.34Z"/></g></g></svg>