<svg xmlns="http://www.w3.org/2000/svg" viewBox="0 0 222.82 824.29"><defs><style>.cls-1{fill:#f987e4;}.cls-1,.cls-3,.cls-4,.cls-6{stroke:#000d3b;stroke-width:3px;}.cls-1,.cls-3,.cls-6{stroke-linecap:round;stroke-linejoin:round;}.cls-2{fill:#000d3b;}.cls-3{fill:#fab6ff;}.cls-4{fill:#616dff;stroke-miterlimit:10;}.cls-5{fill:#e1e9ff;opacity:0.35;}.cls-6{fill:#15d3ff;}</style></defs><g id="Calque_2" data-name="Calque 2"><g id="Plateformes"><path class="cls-1" d="M180.54,807.05v-636H42.28v636s2.57,15.74,69.37,15.74S180.54,807.05,180.54,807.05Z"/><path class="cls-2" d="M42.28,241.2V276c18.88,3.7,42.94,5.93,69.13,5.93s50.25-2.23,69.13-5.93V241.2c-18.88,3.71-42.93,5.93-69.13,5.93S61.16,244.91,42.28,241.2Z"/><path class="cls-2" d="M192.26,757.79c-3.07-6.35-9-11-15.32-13.91a84.25,84.25,0,0,0-21.73-6.24c-7.29-1.2-14.65-1.91-22-2.75l-2.27-.26-1-.13c-1.41-.17,1.57.23.19,0-1.18-.17-2.36-.35-3.54-.55-2.36-.39-4.72-.83-7.06-1.29a227.83,227.83,0,0,1-35.62-10c-1.53-.57-3.06-1.17-4.57-1.79l-1.17-.48.66.28-.51-.22c-.81-.35-1.62-.7-2.43-1.07q-4.45-2-8.75-4.33a94,94,0,0,1-8-4.89c-.61-.41-1.2-.83-1.79-1.26l-.92-.68-.41-.3c-.77-.58,1.22,1,.42.32-1.13-.9-2.24-1.81-3.32-2.78s-2-1.91-3-2.93a21.07,21.07,0,0,1-2.73-3.16c0-.06,1,1.36.52.67l-.27-.36c-.21-.28-.4-.55-.6-.83-.4-.58-.79-1.17-1.16-1.78a31.65,31.65,0,0,1-1.83-3.39c-.22-.48-.68-1.76.12.33-.1-.27-.22-.54-.32-.81-.23-.61-.45-1.22-.64-1.85a31.09,31.09,0,0,1-.88-3.82c-.23-1.29.14,1.42.06.5,0-.33-.07-.66-.1-1q-.09-1.06-.09-2.13c0-.61,0-1.22.05-1.83,0-.35,0-.7.08-1.05s.21-1.81,0-.5,0-.12.07-.39.12-.64.19-1c.15-.74.33-1.47.53-2.19A6,6,0,0,0,31.6,674.8a36,36,0,0,0-.12,19.12,41.11,41.11,0,0,0,9.14,16C49.14,719.5,61,726,72.7,731a220.63,220.63,0,0,0,37.82,12c4.91,1.1,9.85,2.08,14.83,2.85,6.74,1,13.56,1.6,20.33,2.44l1.36.17.61.08c.8.1-1.68-.23-.54-.07l2.76.39q2.76.42,5.52.94a89.2,89.2,0,0,1,10.69,2.64c.75.24,1.5.5,2.24.76l1.23.46c.25.1,1.84.75.75.3s.32.15.58.27l1,.48c.79.39,1.56.8,2.31,1.24s1.31.78,1.94,1.21c.33.22.64.46,1,.69s.73.55-.09-.08-.09-.06.11.1a26,26,0,0,1,3.14,3.15c.55.64-1-1.38-.1-.12.22.31.43.62.63.94a18.45,18.45,0,0,1,1.1,2c1.37,2.83,5.63,3.81,8.21,2.15a6.15,6.15,0,0,0,2.15-8.21Z"/><path class="cls-2" d="M192.87,602.59a36.64,36.64,0,0,0-16-18.84c-6.66-4-14.27-6.28-21.81-7.88-6.91-1.46-13.92-2.29-20.89-3.34a146.79,146.79,0,0,1-14.86-3.11q-8.65-2.25-17.08-5.27-4.62-1.65-9.15-3.53l-.49-.2c-1-.4,1.27.54.58.24l-1.1-.47c-.82-.35-1.63-.71-2.44-1.08-1.56-.7-3.1-1.43-4.64-2.18a129.54,129.54,0,0,1-18-10.59c-.66-.47-1.31-.94-2-1.43l-1-.72c-.6-.45,1.29,1,.47.36l-.63-.5c-1.32-1-2.61-2.13-3.86-3.25a74.71,74.71,0,0,1-7-7.06c-.5-.58-1-1.18-1.47-1.78-.91-1.15.87,1.15,0,0-.25-.34-.51-.68-.75-1-1-1.33-1.88-2.71-2.72-4.12s-1.57-2.78-2.25-4.22c-.16-.35-.32-.69-.47-1s-.17-.39-.26-.58c-.3-.67.64,1.56.27.62-.32-.78-.62-1.57-.9-2.36a43.91,43.91,0,0,1-1.34-4.64c-.18-.75-.33-1.51-.47-2.27-.07-.38-.13-.77-.19-1.15-.26-1.71.16,1.37,0-.09a48.39,48.39,0,0,1,0-10.35,9.64,9.64,0,0,1,.16-1.42s-.24,1.67-.09.73c0-.19.05-.38.08-.58.16-1,.34-2,.55-2.92.64-3.06-.9-6.63-4.2-7.38-3-.68-6.69.91-7.38,4.19A56.76,56.76,0,0,0,31.45,517,53.62,53.62,0,0,0,39.76,536c8.23,12,20.06,21,32.66,27.95a186.36,186.36,0,0,0,37.7,15.43c4.91,1.44,9.88,2.72,14.91,3.74,6.22,1.27,12.57,1.91,18.84,2.91,7.38,1.18,14.79,2.69,21.75,5.5,1.46.59-1.29-.57.15.06l1.17.53c.86.4,1.7.83,2.53,1.28a44.13,44.13,0,0,1,4.46,2.83c1,.72-1.13-.92,0,0,.35.29.7.58,1,.88.69.61,1.35,1.24,2,1.9s1.07,1.24,1.61,1.86c-1.35-1.52-.26-.34.06.11s.52.76.77,1.16a25.14,25.14,0,0,1,1.25,2.21c.21.43.39.88.61,1.3-.93-1.79-.14-.32.06.2,1.09,2.93,4.1,5.25,7.38,4.19,2.87-.93,5.36-4.23,4.19-7.38Z"/><path class="cls-2" d="M178.61,401.47Z"/><path class="cls-2" d="M85.73,337.48c-1-.81-.82-.64-.51-.39l.33.25Z"/><path class="cls-2" d="M49.87,292.55l.06.14c-.2-.5-.29-.72-.32-.78l.09.23C49.76,292.28,49.81,292.42,49.87,292.55Z"/><path class="cls-2" d="M177.54,379.57c-6.73-6.08-14.88-10.08-23.47-12.83-6.86-2.2-13.94-3.47-20.93-5.18a101.91,101.91,0,0,1-14.59-5l-.86-.37-2.08-.93c-1.38-.63-2.76-1.28-4.12-1.95q-4.5-2.21-8.86-4.7Q97.92,346,93.41,343q-2.41-1.6-4.76-3.3L86.47,338l-.74-.56.17.14-.35-.28-.07,0-.26-.2-.1-.09a131.52,131.52,0,0,1-17.76-16.75c-1.31-1.49-2.59-3-3.82-4.59a4.43,4.43,0,0,1-.39-.49h0l-.27-.34c.08.11.14.18.21.26-.26-.33-.51-.67-.76-1-.72-1-1.41-1.93-2.09-2.91A108.44,108.44,0,0,1,53.44,300q-1.57-3-3-6.08c-.19-.42-.37-.84-.55-1.25,0,.09.07.16.11.27l-.17-.41-.09-.22a4.24,4.24,0,0,1-.17-.42c-.41-1-.81-2-1.19-3.07a102.9,102.9,0,0,1-4-13.75c-.53-2.47-1-5-1.33-7.47,0-.13,0-.25-.05-.38-.08-.65-.15-1.3-.22-1.95-.14-1.32-.25-2.65-.34-4a118,118,0,0,1,0-16.39c.08-1.21.19-2.42.31-3.62-4.16-.81-8.07-1.69-11.7-2.63a125.13,125.13,0,0,0,.35,31.77,108.68,108.68,0,0,0,8.28,28.74c7,16.08,18.22,30.28,31.4,41.77a158.44,158.44,0,0,0,37.33,24.21,145.58,145.58,0,0,0,16.14,6.46c6.18,2,12.64,3.06,18.93,4.62a103.35,103.35,0,0,1,11.13,3.38l1.42.55.56.24c.79.35,1.57.7,2.34,1.07a53.44,53.44,0,0,1,5.33,3c.82.52,1.62,1.07,2.4,1.64l.35.26c.42.34.85.69,1.26,1a43,43,0,0,1,4.56,4.59c.37.43.71.88,1.08,1.32-1.33-1.58-.2-.24.1.17q1,1.44,1.95,3c.64,1.06,1.23,2.15,1.78,3.25.23.48.46,1,.68,1.45.13.29.25.6.39.89l-.28-.59c.1.22.24.52.3.68a58.31,58.31,0,0,1,2.39,7.75,6,6,0,0,0,7.38,4.19,6.14,6.14,0,0,0,4.19-7.38C190.44,396.46,185.43,386.68,177.54,379.57Zm-20.5,1Z"/><path class="cls-2" d="M63.38,315.47c0,.06.1.13.16.19l-.45-.57.06.08Z"/><path class="cls-3" d="M1.5,28.13V220.5c0,14.71,49.21,26.63,109.91,26.63s109.91-11.92,109.91-26.63V28.13Z"/><ellipse class="cls-4" cx="111.41" cy="28.13" rx="109.91" ry="26.63"/><path class="cls-2" d="M111.41,101.41c-37.17,0-68.17-6.33-75.18-14.73a.84.84,0,0,0-1.49.53v88.7c0,10.12,34.33,18.34,76.67,18.34s76.67-8.22,76.67-18.34V87.21a.84.84,0,0,0-1.49-.53C179.58,95.08,148.58,101.41,111.41,101.41Z"/><path class="cls-5" d="M36.23,84a.84.84,0,0,0-1.49.52v88.7c0,7.19,17.32,13.42,42.53,16.42L93.53,98.23C64.63,96.58,42.08,91,36.23,84Z"/><path class="cls-6" d="M111.41,197.7c-21,0-40.7-2-55.64-5.54-18.28-4.37-27.16-10.56-27.16-18.93v-82a10.27,10.27,0,0,1,5.1-8.93c3.19-1.87,6.79-1.43,10.24-.13C55,86.34,77.65,92.48,111.41,92.48a223.75,223.75,0,0,0,67.47-10.31c4.4-1.31,7.05-1.74,10.23.13a10.26,10.26,0,0,1,5.11,8.93v82c0,8.37-8.89,14.56-27.17,18.93C152.12,195.73,132.36,197.7,111.41,197.7ZM40.87,172.85c1,1.34,6.13,5,20.87,8.08,13.63,2.91,31.27,4.5,49.67,4.5s36-1.59,49.68-4.5c14.73-3.13,19.91-6.74,20.86-8.08V94.34c-14.13,6.46-40.61,10.41-70.54,10.41S55,100.8,40.87,94.34Z"/></g></g></svg>