<svg xmlns="http://www.w3.org/2000/svg" viewBox="0 0 419.75 1588.75"><defs><style>.cls-1{isolation:isolate;}.cls-2{fill:#15d3ff;}.cls-2,.cls-5{stroke:#000d3b;}.cls-2,.cls-4{stroke-linecap:round;stroke-linejoin:round;}.cls-2,.cls-4,.cls-5{stroke-width:3px;}.cls-3{fill:#bdf6ff;opacity:0.48;mix-blend-mode:overlay;}.cls-4{fill:none;stroke:#00edff;}.cls-5{fill:#fff;stroke-miterlimit:10;}</style></defs><g class="cls-1"><g id="Calque_2" data-name="Calque 2"><g id="Mur"><path class="cls-2" d="M275.82,973.17c6.06-126.42,42.48-367,56.87-372.18s18.58,33.74,37.17,25.49S392,572.55,393.38,551.8C406.19,359.87,363.81,163.35,274.71,1.5L184.07,4c47,62.83,41.29,72.68,65.58,140.34,32,89.18,47,144.21,38.93,216.18-9.07,81.25-46,138.15-83.73,207.1C39.33,870.51,11,1234.81,71.37,1587h326C301.4,1386.56,266,1178.05,275.82,973.17Z"/><path class="cls-3" d="M275.82,973.17c6.06-126.42,42.48-367,56.87-372.18s18.58,33.74,37.17,25.49S392,572.55,393.38,551.8C406.19,359.87,363.81,163.35,274.71,1.5l-51.9,1.44c174.58,357.41,100.9,456.53,62.13,596.63C246,740.37,228.05,842.42,222,968.83,212.1,1175.2,248.1,1385.24,345.64,1587h51.73C301.4,1386.56,266,1178.05,275.82,973.17Z"/><path class="cls-2" d="M52.31,1067.34c-3.21,33.27-3.79,46.33-16.56,66.54-8.65,13.69-20,26-25,41.43s-.66,35.71,14.42,41.6c12.67,5,27.48-2.71,35.09-14A51.36,51.36,0,0,0,65,1194.1"/><path class="cls-4" d="M187.76,695.58s-66.59,126.29-81.38,337.52"/><path class="cls-4" d="M155.8,830.69s-42.94,136.17-19.74,346.64"/><path class="cls-4" d="M88.21,1255.44s10.62,196.6,50.08,265"/><path class="cls-4" d="M319.47,463.78S307.1,584.46,273.52,684"/><path class="cls-4" d="M267.41,587.24s-19.37,120.11-49.68,190"/><path class="cls-4" d="M294.82,134.68s51.69,58.83,59.31,249"/><path class="cls-4" d="M263,125.06s40.56,43.83,54.57,121.66"/><path class="cls-4" d="M310.41,384.52s-17.75,88.42-68.24,163.57"/><path class="cls-4" d="M166.39,1328.78s15.8,130,89.06,247.46"/><path class="cls-5" d="M386.37,1541.74c-14.38-5.38-31.36.18-43.75-10.43-10.65-9.13-17.49-25.8-31-32.65-14.29-7.27-30.14-2.05-43.63,7.32s-23.06,16.69-37.79,11c-14.49-5.61-24.57-22-46-25.58-13.75-2.28-26.84,6.74-37.35,18.12s-13.25,20.09-27,22.63c-15.45,2.86-31-8.74-46.37-5-14.3,3.52-24.74,20.09-28.64,37.71a115.76,115.76,0,0,0-2.5,22.36h375.5c-.18-.83-.36-1.66-.56-2.48C412.61,1565.53,401.75,1547.48,386.37,1541.74Z"/><path class="cls-5" d="M62.36,1483.07c-11.88-15.71-19.39-22.43-29.94-22.13s-13,7.21-13.31,12.06,5.31,12,16.51,15.28a37.51,37.51,0,0,1,21.29,15.11c4.17,5.86,8.54,4.95,11.8,1.78S66.66,1488.75,62.36,1483.07Z"/><path class="cls-5" d="M327,1440.1c13.28-14.63,21.4-20.67,31.92-19.43s12.34,8.37,12.21,13.26-6.38,11.48-17.87,13.78-18,7.7-22.64,13.19-9,4.18-11.95.72S322.18,1445.39,327,1440.1Z"/><path class="cls-5" d="M26.92,1511.93c-4.86-5.35-11.37-7-17.88-6.42s-9,6.84-6.67,12.46,12.18,2.21,15.84,3.16,7,4,10.76,1.28S29,1514.22,26.92,1511.93Z"/><path class="cls-5" d="M148.48,1450c-2-14.47-11.06-24.58-22.56-31s-22.85,1.14-25.3,13.21,17.82,17.54,22.85,23.29,7,14.67,16.52,14.38S149.34,1456.18,148.48,1450Z"/><path class="cls-5" d="M360.72,1496.24c7.33-10.85,18.6-15.43,30.41-16.11s17.95,9.94,15.16,20.62-21.27,7.1-27.58,9.75-11.45,9-19,5.06S357.59,1500.88,360.72,1496.24Z"/><circle class="cls-5" cx="245.6" cy="1483.81" r="13.85"/><circle class="cls-5" cx="218.27" cy="1436.37" r="15.6"/><path class="cls-2" d="M220.8,752.6c-3.79,7-11.26,12.49-19.06,11.27-10.34-1.62-15.88-13.83-14.89-24.24s6.46-19.78,10-29.62c.58-1.59,1.12-3.08,1.61-4.5"/><path class="cls-2" d="M238.6,1294s4.71,23.54,11.21,33.64c6.36,9.89,15.91,18,18.51,29.91A22.1,22.1,0,0,1,238.51,1383c-5.76-2.27-9.95-9.37-9.95-9.37"/><path class="cls-2" d="M141.68,939.23s-4.71,23.55-11.21,33.64c-6.37,9.89-15.91,18-18.51,29.92a22.1,22.1,0,0,0,29.81,25.44c5.76-2.27,9.94-9.37,9.94-9.37"/><path class="cls-2" d="M327.85,354.68s3.93,19.68,9.37,28.11c5.32,8.27,13.29,15,15.46,25A18.46,18.46,0,0,1,327.77,429c-4.81-1.89-8.3-7.83-8.3-7.83"/><path class="cls-4" d="M194.56,1106.18s5,167.93,35.13,242.65"/></g></g></g></svg>