<svg xmlns="http://www.w3.org/2000/svg" viewBox="0 0 168.64 298.63">
  <title>Fichier 1</title>
  <g id="Calque_2" data-name="Calque 2">
    <g id="Calque_1-2" data-name="Calque 1">
      <g>
        <path d="M8.65,247.77h0a17.18,17.18,0,0,0,24-3.92l37-51.51L41.78,172.28l-37,51.51a17.19,17.19,0,0,0,3.92,24" style="fill: #fcc62e"/>
        <path d="M8.65,247.77h0a17.18,17.18,0,0,0,24-3.92l37-51.51L41.78,172.28l-37,51.51A17.19,17.19,0,0,0,8.65,247.77Z" style="fill: none;stroke: #000f3a;stroke-linecap: round;stroke-linejoin: round;stroke-width: 3px"/>
        <path d="M160,247.77h0a17.18,17.18,0,0,1-24-3.92L99,192.34l27.89-20.06,37,51.51a17.17,17.17,0,0,1-3.91,24" style="fill: #fcc62e"/>
        <path d="M160,247.77h0a17.18,17.18,0,0,1-24-3.92L99,192.34l27.89-20.06,37,51.51A17.17,17.17,0,0,1,160,247.77Z" style="fill: none;stroke: #000f3a;stroke-linecap: round;stroke-linejoin: round;stroke-width: 3px"/>
        <path d="M132.2,238.55l3.81,5.3a17,17,0,0,0,8.7,6.31c.49-3.14.87-6.29,1.16-9.45.72-8-.08-15.8-1.28-23.69a64.09,64.09,0,0,1-12.39,21.53" style="fill: #000f3a"/>
        <path d="M24.31,217c-1.19,7.89-2,15.71-1.27,23.69.28,3.13.66,6.26,1.14,9.37a17.08,17.08,0,0,0,8.45-6.23l3.93-5.46A64.26,64.26,0,0,1,24.31,217" style="fill: #000f3a"/>
        <path d="M135.05,285.65c0,7.17-22.59,13-50.47,13s-50.46-5.81-50.46-13,22.59-13,50.46-13,50.47,5.81,50.47,13" style="fill: #000f3a"/>
        <path d="M76.21,273.29c1.08-4.72.79-10.21-1.88-14.44A51.15,51.15,0,0,1,66.26,237c-1-9.66,3.14-18.48-3.63-26.92-4.76-5.93-13.32-7.61-20.34-5.19-11.14,3.85-13.44,16.26-13.35,26.62v.71c.14,15.83,6.88,43.63,21.48,52.65,9.49,5.86,23.38-1.06,25.78-11.62" style="fill: #fcc62e"/>
        <path d="M76.21,273.29c1.08-4.72.79-10.21-1.88-14.44A51.15,51.15,0,0,1,66.26,237c-1-9.66,3.14-18.48-3.63-26.92-4.76-5.93-13.32-7.61-20.34-5.19-11.14,3.85-13.44,16.26-13.35,26.62v.71c.14,15.83,6.88,43.63,21.48,52.65C59.92,290.77,73.81,283.85,76.21,273.29Z" style="fill: none;stroke: #000f3a;stroke-linecap: round;stroke-linejoin: round;stroke-width: 3px"/>
        <path d="M92.23,273.29c-1.07-4.72-.79-10.21,1.89-14.44A51.13,51.13,0,0,0,102.18,237c1-9.66-3.14-18.48,3.63-26.92,4.77-5.93,13.32-7.61,20.34-5.19,11.15,3.85,13.44,16.26,13.35,26.62v.71c-.14,15.83-6.89,43.63-21.48,52.65-9.49,5.86-23.38-1.06-25.79-11.62" style="fill: #fcc62e"/>
        <path d="M92.23,273.29c-1.07-4.72-.79-10.21,1.89-14.44A51.13,51.13,0,0,0,102.18,237c1-9.66-3.14-18.48,3.63-26.92,4.77-5.93,13.32-7.61,20.34-5.19,11.15,3.85,13.44,16.26,13.35,26.62v.71c-.14,15.83-6.89,43.63-21.48,52.65C108.53,290.77,94.64,283.85,92.23,273.29Z" style="fill: none;stroke: #000f3a;stroke-linecap: round;stroke-linejoin: round;stroke-width: 3px"/>
        <path d="M66.26,237c-1-9.66,3.15-18.48-3.62-26.92-4.77-5.93-13.33-7.61-20.34-5.19-5.73,2-9.11,6.22-11,11.27-.23,1.08-.43,2.16-.6,3.25a84.16,84.16,0,0,0-1.25,17.91c9.53,17.36,26.47,30.23,47.3,32.78a18.2,18.2,0,0,0-2.38-11.29A51.15,51.15,0,0,1,66.26,237" style="fill: #000f3a"/>
        <path d="M126.15,204.93c-7-2.42-15.57-.74-20.34,5.19-6.77,8.44-2.61,17.26-3.63,26.92a51.13,51.13,0,0,1-8.06,21.81,18.22,18.22,0,0,0-2.38,11.32c20.92-2.5,37.93-15.39,47.49-32.81A84.16,84.16,0,0,0,138,219.45c-.11-.67-.22-1.34-.35-2-1.84-5.6-5.29-10.37-11.48-12.51" style="fill: #000f3a"/>
        <path d="M144.26,176.88a86.52,86.52,0,0,1-6.11-31.79V78.5a53.83,53.83,0,0,0-107.66,0v66.59a86.52,86.52,0,0,1-6.11,31.79c-.35.9-.63,1.64-.78,2.15-11.82,39.47,17.59,81.15,60.72,81.15S156.85,218.5,145,179c-.16-.51-.43-1.25-.78-2.15" style="fill: #fcc62e"/>
        <path d="M144.26,176.88a86.52,86.52,0,0,1-6.11-31.79V78.5a53.83,53.83,0,0,0-107.66,0v66.59a86.52,86.52,0,0,1-6.11,31.79c-.35.9-.63,1.64-.78,2.15-11.82,39.47,17.59,81.15,60.72,81.15S156.85,218.5,145,179C144.88,178.52,144.61,177.78,144.26,176.88Z" style="fill: none;stroke: #000f3a;stroke-miterlimit: 10;stroke-width: 3px"/>
        <path d="M86.9,215.1c0,2.18-1.17,4-2.63,4s-2.63-1.77-2.63-4,1.18-3.94,2.63-3.94,2.63,1.76,2.63,3.94" style="fill: #000f3a"/>
        <path d="M84.58,231.82a104.27,104.27,0,0,1-61.82-20.18c6.52,26.88,30.47,48.54,61.56,48.54,30.91,0,54.77-21.41,61.45-48.08a104.24,104.24,0,0,1-61.19,19.72" style="fill: #dd5273"/>
        <path d="M84.58,231.82a104.27,104.27,0,0,1-61.82-20.18c6.52,26.88,30.47,48.54,61.56,48.54,30.91,0,54.77-21.41,61.45-48.08A104.24,104.24,0,0,1,84.58,231.82Z" style="fill: none;stroke: #000f3a;stroke-miterlimit: 10;stroke-width: 3px"/>
        <path d="M58.15,88.59a7.21,7.21,0,1,1-7.21-7.2,7.21,7.21,0,0,1,7.21,7.2" style="fill: #000f3a"/>
        <path d="M124.48,88.59a7.21,7.21,0,1,1-7.21-7.2,7.21,7.21,0,0,1,7.21,7.2" style="fill: #000f3a"/>
        <path d="M48.37,111.48a27,27,0,0,1-17.88-2.09v10.17a36.19,36.19,0,0,0,11.92,2c.94,0,1.88,0,2.8-.12a26.39,26.39,0,0,1,3.16-10" style="fill: #000f3a"/>
        <path d="M120.08,111.48A27,27,0,0,0,138,109.39v10.17a36.24,36.24,0,0,1-11.92,2c-1,0-1.88,0-2.81-.12a26.2,26.2,0,0,0-3.15-10" style="fill: #000f3a"/>
        <path d="M126,57.35a27.28,27.28,0,0,0-26,19.26h0a26.92,26.92,0,0,0-31.56,0h0a27.43,27.43,0,1,0,.72,13.26h0a17.36,17.36,0,0,1,30.07-.19h0A27.27,27.27,0,1,0,126,57.35M42.41,101.19A16.44,16.44,0,1,1,58.76,84.75a16.4,16.4,0,0,1-16.35,16.44m83.63,0a16.44,16.44,0,1,1,16.35-16.44A16.4,16.4,0,0,1,126,101.19" style="fill: #dd5273"/>
        <path d="M126,57.35a27.28,27.28,0,0,0-26,19.26h0a26.92,26.92,0,0,0-31.56,0h0a27.43,27.43,0,1,0,.72,13.26h0a17.36,17.36,0,0,1,30.07-.19h0A27.27,27.27,0,1,0,126,57.35ZM42.41,101.19A16.44,16.44,0,1,1,58.76,84.75,16.4,16.4,0,0,1,42.41,101.19Zm83.63,0a16.44,16.44,0,1,1,16.35-16.44A16.4,16.4,0,0,1,126,101.19Z" style="fill: none;stroke: #000f3a;stroke-linejoin: round;stroke-width: 3px"/>
        <path d="M126,57.35a27.28,27.28,0,0,0-26,19.26h0a27.33,27.33,0,0,0-4-2.36,32.11,32.11,0,0,0-1.75,10.1,17.45,17.45,0,0,1,4.95,5.38h0A27.27,27.27,0,1,0,126,57.35m0,53.2a25.8,25.8,0,1,1,25.66-25.8A25.73,25.73,0,0,1,126,110.55" style="fill: #000f3a"/>
        <path d="M15.15,84.75a27.24,27.24,0,0,0,54.06,5h0a17.45,17.45,0,0,1,5-5.38,32.11,32.11,0,0,0-1.76-10.1,26.7,26.7,0,0,0-4,2.36h0a27.24,27.24,0,0,0-53.29,8.14m1.59,0a25.67,25.67,0,1,1,25.67,25.8,25.73,25.73,0,0,1-25.67-25.8" style="fill: #000f3a"/>
        <path d="M71.5,115.13a9.13,9.13,0,0,0,0,18.26H97a9.13,9.13,0,0,0,0-18.26Z" style="fill: #000f3a"/>
        <path d="M97,150.7H71.5a26.44,26.44,0,1,1,0-52.87H97a26.44,26.44,0,0,1,0,52.87M71.5,115.13a9.13,9.13,0,0,0,0,18.26H97a9.13,9.13,0,0,0,0-18.26Z" style="fill: #008ae8"/>
        <path d="M97,150.7H71.5a26.44,26.44,0,1,1,0-52.87H97a26.44,26.44,0,0,1,0,52.87ZM71.5,115.13a9.13,9.13,0,0,0,0,18.26H97a9.13,9.13,0,0,0,0-18.26Z" style="fill: none;stroke: #000f3a;stroke-miterlimit: 10;stroke-width: 3px"/>
        <path d="M71.5,115.13a9.13,9.13,0,0,0-1.82.18v5.49a7.21,7.21,0,0,0,14.42,0v-5.67Z" style="fill: #fff"/>
        <path d="M71.5,115.13a9.13,9.13,0,0,0-1.82.18v5.49a7.21,7.21,0,0,0,14.42,0v-5.67Z" style="fill: none;stroke: #000f3a;stroke-miterlimit: 10;stroke-width: 3px"/>
        <path d="M98.52,115.26a9,9,0,0,0-1.48-.13H84.1v5.67a7.21,7.21,0,1,0,14.42,0Z" style="fill: #fff"/>
        <path d="M98.52,115.26a9,9,0,0,0-1.48-.13H84.1v5.67a7.21,7.21,0,1,0,14.42,0Z" style="fill: none;stroke: #000f3a;stroke-miterlimit: 10;stroke-width: 3px"/>
        <path d="M86.73,37.19a17.84,17.84,0,0,0,15.71-9.38A53.92,53.92,0,0,0,70.38,26.5,17.85,17.85,0,0,0,86.73,37.19" style="fill: #000f3a"/>
        <path d="M99.33,16.72A15.23,15.23,0,1,1,84.1,1.5,15.23,15.23,0,0,1,99.33,16.72" style="fill: #fcc62e"/>
        <path d="M99.33,16.72A15.23,15.23,0,1,1,84.1,1.5,15.23,15.23,0,0,1,99.33,16.72Z" style="fill: none;stroke: #000f3a;stroke-miterlimit: 10;stroke-width: 3px"/>
      </g>
    </g>
  </g>
</svg>
