<svg xmlns="http://www.w3.org/2000/svg" xmlns:xlink="http://www.w3.org/1999/xlink" viewBox="0 0 164.22 308.28">
  <defs>
    <clipPath id="clip-path">
      <rect x="16.95" y="164.19" width="25.44" height="36.98" style="fill: none"/>
    </clipPath>
  </defs>
  <title>Fichier 4</title>
  <g id="Calque_2" data-name="Calque 2">
    <g id="Calque_1-2" data-name="Calque 1">
      <g>
        <path d="M142.71,294.78c0,7.46-27.13,13.5-60.6,13.5s-60.61-6-60.61-13.5,27.14-13.5,60.61-13.5,60.6,6.05,60.6,13.5" style="fill: #000f3a"/>
        <path d="M105.27,200.26c4,4.3,8,8.56,10.87,14a61.47,61.47,0,0,1,7.08,24.48c.54,7.74-1.48,16.44,2.75,23.45,5.28,8.77,18.61,11.65,27,5.65a20.22,20.22,0,0,0,8.41-12.32c3.9-18.95-1.1-39.2-9.39-56.3a86.87,86.87,0,0,0-10.09-16.68c-5.95-7.45-13.08-15.39-21.95-19.39-6.65-3-15.26-2.48-20.59,2.9a14.62,14.62,0,0,0-4.78,5.77c-3.11,6.62-1,13.8,3.06,19.47a94.61,94.61,0,0,0,7.64,9" style="fill: #dd5273"/>
        <path d="M105.27,200.26c4,4.3,8,8.56,10.87,14a61.47,61.47,0,0,1,7.08,24.48c.54,7.74-1.48,16.44,2.75,23.45,5.28,8.77,18.61,11.65,27,5.65a20.22,20.22,0,0,0,8.41-12.32c3.9-18.95-1.1-39.2-9.39-56.3a86.87,86.87,0,0,0-10.09-16.68c-5.95-7.45-13.08-15.39-21.95-19.39-6.65-3-15.26-2.48-20.59,2.9a14.62,14.62,0,0,0-4.78,5.77c-3.11,6.62-1,13.8,3.06,19.47A94.61,94.61,0,0,0,105.27,200.26Z" style="fill: none;stroke: #000f3a;stroke-linecap: round;stroke-linejoin: round;stroke-width: 3px"/>
        <path d="M150.06,203.28c-2.72,14.43-5.46,29-5,43.67a80.58,80.58,0,0,0,3.91,23c-8.14,2.94-18.48-.23-23-7.71-4-6.65-2.41-14.8-2.69-22.23.31-1.95.58-3.89.71-5.8a73,73,0,0,0-4.32-30c-2.52-6.89-6.51-12.56-10.5-18.28-1.18-1.68-2.35-3.37-3.49-5.09L109.29,168Z" style="fill: #000f3a"/>
        <path d="M59,200.26c-4,4.3-8,8.56-10.88,14A61.29,61.29,0,0,0,41,238.75c-.55,7.74,1.47,16.44-2.76,23.45-5.28,8.77-18.61,11.65-27,5.65a20.18,20.18,0,0,1-8.41-12.32c-3.9-18.95,1.09-39.2,9.38-56.3a87.89,87.89,0,0,1,10.09-16.68c6-7.45,13.09-15.39,22-19.39,6.65-3,15.26-2.48,20.59,2.9a14.68,14.68,0,0,1,4.77,5.77c3.12,6.62,1,13.8-3,19.47a97.65,97.65,0,0,1-7.64,9" style="fill: #dd5273"/>
        <path d="M59,200.26c-4,4.3-8,8.56-10.88,14A61.29,61.29,0,0,0,41,238.75c-.55,7.74,1.47,16.44-2.76,23.45-5.28,8.77-18.61,11.65-27,5.65a20.18,20.18,0,0,1-8.41-12.32c-3.9-18.95,1.09-39.2,9.38-56.3a87.89,87.89,0,0,1,10.09-16.68c6-7.45,13.09-15.39,22-19.39,6.65-3,15.26-2.48,20.59,2.9a14.68,14.68,0,0,1,4.77,5.77c3.12,6.62,1,13.8-3,19.47A97.65,97.65,0,0,1,59,200.26Z" style="fill: none;stroke: #000f3a;stroke-linecap: round;stroke-linejoin: round;stroke-width: 3px"/>
        <path d="M14.16,203.28c2.72,14.43,5.45,29,5,43.67a81,81,0,0,1-3.92,23c8.15,2.94,18.49-.23,23-7.71,4-6.65,2.41-14.8,2.69-22.23-.3-1.95-.57-3.89-.7-5.8a73.16,73.16,0,0,1,4.31-30c2.52-6.89,6.51-12.56,10.51-18.28,1.17-1.68,2.34-3.37,3.48-5.09L54.93,168Z" style="fill: #000f3a"/>
        <path d="M54.64,294.58h0a23.35,23.35,0,0,1-26.77-19.36l-5.4-33.64a23.36,23.36,0,0,1,46.14-7.4L74,267.81a23.36,23.36,0,0,1-19.36,26.77" style="fill: #dd5273"/>
        <path d="M54.64,294.58h0a23.35,23.35,0,0,1-26.77-19.36l-5.4-33.64a23.36,23.36,0,0,1,46.14-7.4L74,267.81A23.36,23.36,0,0,1,54.64,294.58Z" style="fill: none;stroke: #000f3a;stroke-linecap: round;stroke-linejoin: round;stroke-width: 3px"/>
        <path d="M109.58,294.58h0a23.36,23.36,0,0,0,26.77-19.36l5.4-33.64a23.36,23.36,0,0,0-46.14-7.4l-5.4,33.63a23.37,23.37,0,0,0,19.37,26.77" style="fill: #dd5273"/>
        <path d="M109.58,294.58h0a23.36,23.36,0,0,0,26.77-19.36l5.4-33.64a23.36,23.36,0,0,0-46.14-7.4l-5.4,33.63A23.37,23.37,0,0,0,109.58,294.58Z" style="fill: none;stroke: #000f3a;stroke-linecap: round;stroke-linejoin: round;stroke-width: 3px"/>
        <path d="M68.61,234.17a23.37,23.37,0,0,0-46.14,7.41l1.62,10.11A73.72,73.72,0,0,0,42,267.23,75.76,75.76,0,0,0,73.38,278,23.33,23.33,0,0,0,74,267.81Z" style="fill: #000f3a"/>
        <path d="M140.12,251.69l1.63-10.11a23.37,23.37,0,0,0-46.14-7.41l-5.4,33.64A23.18,23.18,0,0,0,90.84,278a75.71,75.71,0,0,0,31.35-10.8,73.72,73.72,0,0,0,17.93-15.54" style="fill: #000f3a"/>
        <path d="M148.71,166.55l-6-14A96.88,96.88,0,0,1,135,114.53V65.38a52.86,52.86,0,0,0-105.72,0v49.15a96.89,96.89,0,0,1-7.79,38.07l-6,14c-14.12,33.07-2.55,72,28.06,90.85a73.8,73.8,0,0,0,77.07,0c30.61-18.87,42.18-57.78,28.07-90.85" style="fill: #dd5273"/>
        <path d="M148.71,166.55l-6-14A96.88,96.88,0,0,1,135,114.53V65.38a52.86,52.86,0,0,0-105.72,0v49.15a96.89,96.89,0,0,1-7.79,38.07l-6,14c-14.12,33.07-2.55,72,28.06,90.85a73.8,73.8,0,0,0,77.07,0C151.25,238.53,162.82,199.62,148.71,166.55Z" style="fill: none;stroke: #000f3a;stroke-linecap: round;stroke-linejoin: round;stroke-width: 3px"/>
        <path d="M134.55,58.85a52.43,52.43,0,0,0-1.13-6.07h0c-.07-.28-.15-.55-.22-.83s-.11-.42-.17-.63c-.15-.57-.32-1.14-.5-1.71-.06-.2-.12-.4-.19-.6-.19-.59-.4-1.18-.61-1.77l-.17-.47c-.26-.7-.54-1.38-.83-2.06a.69.69,0,0,0-.05-.13c-.63-1.48-1.33-2.91-2.09-4.31-.07-.15-.16-.3-.24-.44-.29-.53-.59-1.06-.91-1.58-.12-.21-.25-.41-.37-.61-.28-.46-.57-.91-.86-1.36l-.45-.66c-.29-.42-.58-.84-.88-1.25l-.49-.67-.93-1.2-.51-.63c-.33-.41-.67-.8-1-1.2l-.49-.57c-.39-.44-.8-.87-1.21-1.29-.12-.13-.24-.27-.37-.4-.54-.55-1.1-1.1-1.67-1.63l-.06-.06c-.54-.5-1.09-1-1.65-1.48l-.56-.46c-.4-.33-.81-.67-1.23-1l-.69-.52c-.38-.29-.76-.58-1.16-.86l-.75-.53c-.39-.27-.77-.53-1.16-.78s-.53-.35-.8-.51-.79-.49-1.19-.73l-.81-.47-1.26-.69-.79-.42-1.43-.7-.66-.31c-.71-.32-1.43-.63-2.15-.93l-.17-.06c-.67-.27-1.34-.52-2-.76l-.76-.25c-.49-.17-1-.33-1.48-.48l-.9-.26c-.46-.13-.92-.26-1.39-.37l-1-.23-1.37-.31-1-.19c-.47-.09-.93-.17-1.4-.24l-1-.15c-.49-.07-1-.12-1.48-.18l-.94-.1c-.54-.05-1.09-.09-1.64-.12l-.8-.05c-.82,0-1.64-.06-2.47-.06s-1.69,0-2.52.06l-.82.05c-.56,0-1.12.07-1.67.13l-1,.11c-.5.05-1,.11-1.48.18l-1,.16c-.46.07-.93.15-1.39.24s-.7.14-1,.21-.9.19-1.35.3l-1,.26-1.31.35-1,.31-1.28.41-1,.35c-.43.15-.84.32-1.26.48l-1,.38-1.27.55-.92.41-1.32.65c-.27.13-.54.26-.8.4-.64.33-1.26.68-1.88,1L55,20c-.48.28-1,.57-1.42.87-.29.18-.57.38-.85.57l-1.1.74c-.3.21-.6.44-.89.66s-.67.48-1,.74l-.9.71L48,25c-.3.25-.59.51-.88.77l-.87.78-.86.82q-.41.39-.81.81l-.84.86c-.26.27-.51.55-.77.83s-.54.6-.8.91-.48.57-.72.86-.53.62-.78.94-.45.59-.67.88l-.75,1-.6.87c-.24.35-.49.7-.73,1.06l-.38.62c-.52.81-1,1.63-1.48,2.46-.16.29-.33.57-.48.87s-.4.77-.6,1.15-.32.63-.47.95-.36.78-.54,1.17-.3.66-.44,1-.33.79-.48,1.18-.27.68-.4,1-.29.8-.43,1.2-.24.7-.36,1.06-.25.81-.38,1.21-.21.73-.3,1.09-.23.82-.33,1.23-.17.75-.26,1.13-.18.82-.26,1.23c0,.11-.05.22-.08.33h0a53.67,53.67,0,0,0-.87,6.88l1.5-.6c0,.12-.05.24-.07.36,17.87-2.9,35.82-5.48,53.9-5.8,17.09-.3,34.4,1.48,50.62,6.71-.2-1.36-.46-2.71-.75-4" style="fill: #000f3a"/>
        <path d="M47.48,114.65a14.18,14.18,0,0,0,20-2c3.87-4.7,10.64-7.2,17.67-6.53A21.82,21.82,0,0,1,98,111.8a14.17,14.17,0,1,0,19.48-20.59A50.27,50.27,0,0,0,87.84,78c-16.56-1.59-32.37,4.67-42.3,16.75a14.18,14.18,0,0,0,1.94,20" style="fill: #ff9cbd"/>
        <path d="M47.48,114.65a14.18,14.18,0,0,0,20-2c3.87-4.7,10.64-7.2,17.67-6.53A21.82,21.82,0,0,1,98,111.8a14.17,14.17,0,1,0,19.48-20.59A50.27,50.27,0,0,0,87.84,78c-16.56-1.59-32.37,4.67-42.3,16.75A14.18,14.18,0,0,0,47.48,114.65Z" style="fill: none;stroke: #000f3a;stroke-miterlimit: 10;stroke-width: 3px"/>
        <path d="M56.49,103.7c6.63-8.06,17.82-12.81,30-11.64a35.92,35.92,0,0,1,21.26,9.45" style="fill: none;stroke: #000f3a;stroke-linecap: round;stroke-linejoin: round;stroke-width: 3px"/>
        <path d="M120.64,239a120.4,120.4,0,0,1-38.53,6,120.74,120.74,0,0,1-38.54-6C28,233.7,17.34,225.53,12.51,216.38a71.4,71.4,0,0,0,31.06,41,73.8,73.8,0,0,0,77.07,0,71.43,71.43,0,0,0,31.07-41c-4.84,9.15-15.48,17.32-31.07,22.62" style="fill: #008ae8"/>
        <path d="M120.64,239a120.4,120.4,0,0,1-38.53,6,120.74,120.74,0,0,1-38.54-6C28,233.7,17.34,225.53,12.51,216.38a71.4,71.4,0,0,0,31.06,41,73.8,73.8,0,0,0,77.07,0,71.43,71.43,0,0,0,31.07-41C146.87,225.53,136.23,233.7,120.64,239Z" style="fill: none;stroke: #000f3a;stroke-linecap: round;stroke-linejoin: round;stroke-width: 3px"/>
        <g style="opacity: 0.6000059843063354">
          <g style="clip-path: url(#clip-path)">
            <path d="M17,194.39a34.59,34.59,0,0,1,15.16-29.25,6.87,6.87,0,0,1,5.17-.75,6.83,6.83,0,0,1,1.81,12.49c-.47.32-.92.66-1.37,1l1.43-1.14a27.79,27.79,0,0,0-4.91,5.08l1.05-1.43a29.8,29.8,0,0,0-3.59,6.43c.22-.54.43-1.08.64-1.62a28.79,28.79,0,0,0-1.76,6.84l.21-1.73a27.63,27.63,0,0,0-.18,4,6.83,6.83,0,0,1-13.66.11" style="fill: #fff"/>
          </g>
        </g>
        <path d="M33.93,177.21a27.76,27.76,0,0,0,3.56,1,27.67,27.67,0,0,0-2.74,3A29.44,29.44,0,0,0,32,186.1a29.83,29.83,0,0,0-1.2,4.45,37.49,37.49,0,0,1-5.12-2.11,32.74,32.74,0,0,1-7.17-5,36.16,36.16,0,0,1,2.27-5.59,32.33,32.33,0,0,1,4.63-6.79,27.66,27.66,0,0,0,3.6,3.41,28.69,28.69,0,0,0,4.88,2.7" style="fill: #fff"/>
        <path d="M33.93,177.21a27.76,27.76,0,0,0,3.56,1,27.67,27.67,0,0,0-2.74,3A29.44,29.44,0,0,0,32,186.1a29.83,29.83,0,0,0-1.2,4.45,37.49,37.49,0,0,1-5.12-2.11,32.74,32.74,0,0,1-7.17-5,36.16,36.16,0,0,1,2.27-5.59,32.33,32.33,0,0,1,4.63-6.79,27.66,27.66,0,0,0,3.6,3.41A28.69,28.69,0,0,0,33.93,177.21Z" style="fill: none;stroke: #000f3a;stroke-miterlimit: 10;stroke-width: 3px"/>
        <path d="M17,194.39a34.59,34.59,0,0,1,15.16-29.25,6.87,6.87,0,0,1,5.17-.75,6.83,6.83,0,0,1,1.81,12.49c-.47.32-.92.66-1.37,1l1.43-1.14a27.79,27.79,0,0,0-4.91,5.08l1.05-1.43a29.8,29.8,0,0,0-3.59,6.43c.22-.54.43-1.08.64-1.62a28.79,28.79,0,0,0-1.76,6.84l.21-1.73a27.63,27.63,0,0,0-.18,4,6.83,6.83,0,0,1-13.66.11Z" style="fill: none;stroke: #000f3a;stroke-linecap: round;stroke-linejoin: round;stroke-width: 3px"/>
        <path d="M46.32,81.13a7.5,7.5,0,0,0,7.5-7.5h-15a7.5,7.5,0,0,0,7.5,7.5" style="fill: #000f3a"/>
        <path d="M117.9,81.13a7.5,7.5,0,0,0,7.5-7.5h-15a7.5,7.5,0,0,0,7.5,7.5" style="fill: #000f3a"/>
        <path d="M84.84,221.39c0,2.26-1.22,4.1-2.73,4.1s-2.74-1.84-2.74-4.1,1.23-4.11,2.74-4.11,2.73,1.84,2.73,4.11" style="fill: #000f3a"/>
        <path d="M132.81,52.73l.63.05A52.85,52.85,0,0,0,29.35,62.21l1.5-.6c0,.12-.05.24-.07.36,17.87-2.9,35.82-5.48,53.9-5.8,17.09-.3,34.4,1.48,50.62,6.71a53,53,0,0,0-2.49-10.15" style="fill: #000f3a"/>
        <path d="M79.25,51.39c18-1.15,36.15,0,54.19,1.39A52.85,52.85,0,0,0,29.35,62.21c15.73-6.54,32.85-9.73,49.9-10.82" style="fill: #008ae8"/>
        <path d="M79.25,51.39c18-1.15,36.15,0,54.19,1.39A52.85,52.85,0,0,0,29.35,62.21C45.08,55.67,62.2,52.48,79.25,51.39Z" style="fill: none;stroke: #000f3a;stroke-linecap: round;stroke-linejoin: round;stroke-width: 3px"/>
        <path d="M29.25,89.9V65.38c0-.95,0-1.89.08-2.82L9.55,74.8c5.74,8.07,12.56,12.73,19.7,15.1" style="fill: #006dc6"/>
        <path d="M29.25,89.9V65.38c0-.95,0-1.89.08-2.82L9.55,74.8C15.29,82.87,22.11,87.53,29.25,89.9Z" style="fill: none;stroke: #000f3a;stroke-linecap: round;stroke-linejoin: round;stroke-width: 3px"/>
        <path d="M97.83,17.34A15.84,15.84,0,1,1,82,1.5,15.84,15.84,0,0,1,97.83,17.34" style="fill: #dd5273"/>
        <path d="M97.83,17.34A15.84,15.84,0,1,1,82,1.5,15.84,15.84,0,0,1,97.83,17.34Z" style="fill: none;stroke: #000f3a;stroke-linecap: round;stroke-linejoin: round;stroke-width: 3px"/>
        <path d="M103.3,18.07c0-.38,0-.76,0-1.14a52.15,52.15,0,0,0-5.64-2.1,15.82,15.82,0,1,1-31.44,2.88c0,.12,0,.24,0,.36a18.58,18.58,0,1,0,37.15,0" style="fill: #000f3a"/>
      </g>
    </g>
  </g>
</svg>
