<svg xmlns="http://www.w3.org/2000/svg" viewBox="0 0 165.21 298.89">
  <title>Fichier 2</title>
  <g id="Calque_2" data-name="Calque 2">
    <g id="Calque_1-2" data-name="Calque 1">
      <g>
        <path d="M97.48,172.81c4.79,3.39,9.56,6.75,13.51,11.48a61.41,61.41,0,0,1,11.94,22.52c2.12,7.47,1.92,16.39,7.5,22.39,7,7.5,20.6,7.59,27.57,0a20.25,20.25,0,0,0,5.71-13.78c-.07-19.34-9.1-38.14-20.72-53.18A87.19,87.19,0,0,0,129.7,148c-7.36-6.08-16-12.39-25.46-14.48-7.12-1.57-15.45.69-19.56,7.05a14.56,14.56,0,0,0-3.49,6.63c-1.69,7.11,1.8,13.71,7,18.42a94.44,94.44,0,0,0,9.32,7.21" style="fill: #008ae8"/>
        <path d="M97.48,172.81c4.79,3.39,9.56,6.75,13.51,11.48a61.41,61.41,0,0,1,11.94,22.52c2.12,7.47,1.92,16.39,7.5,22.39,7,7.5,20.6,7.59,27.57,0a20.25,20.25,0,0,0,5.71-13.78c-.07-19.34-9.1-38.14-20.72-53.18A87.19,87.19,0,0,0,129.7,148c-7.36-6.08-16-12.39-25.46-14.48-7.12-1.57-15.45.69-19.56,7.05a14.56,14.56,0,0,0-3.49,6.63c-1.69,7.11,1.8,13.71,7,18.42A94.44,94.44,0,0,0,97.48,172.81Z" style="fill: none;stroke: #000f3a;stroke-linecap: round;stroke-linejoin: round;stroke-width: 3px"/>
        <path d="M127.58,285.39c0,7.46-26.66,13.5-59.55,13.5s-59.55-6-59.55-13.5,26.67-13.5,59.55-13.5,59.55,6.05,59.55,13.5" style="fill: #000f3a"/>
        <path d="M97.21,288.18h0a23.36,23.36,0,0,1-23.37-23.36V230.76a23.37,23.37,0,1,1,46.73,0v34.06a23.36,23.36,0,0,1-23.36,23.36" style="fill: #008ae8"/>
        <path d="M97.21,288.18h0a23.36,23.36,0,0,1-23.37-23.36V230.76a23.37,23.37,0,1,1,46.73,0v34.06A23.36,23.36,0,0,1,97.21,288.18Z" style="fill: none;stroke: #000f3a;stroke-linecap: round;stroke-linejoin: round;stroke-width: 3px"/>
        <path d="M120.49,228.94c0-.1,0-.21,0-.31,0-.58-.13-1.15-.22-1.72,0-.09,0-.18,0-.28a24.17,24.17,0,0,0-.91-3.49,1.21,1.21,0,0,0-.05-.14q-.3-.85-.66-1.68l0-.1a23.39,23.39,0,0,0-2.87-4.79h0l-.12-.14h0q-.44-.56-.9-1.08h0a22.21,22.21,0,0,0-2.19-2.15h0a21.52,21.52,0,0,0-1.77-1.38h0c-.61-.43-1.25-.84-1.9-1.21h0c-.32-.18-.65-.36-1-.53h0c-.51-.26-1-.51-1.57-.74h0c-.51-.21-1-.4-1.56-.58h0c-.45-.15-.9-.29-1.36-.41h0c-.47-.13-.94-.24-1.42-.34h0q-.84-.16-1.71-.27h0c-.48-.06-1-.11-1.46-.14h0c-.48,0-1-.05-1.43-.05s-1.23,0-1.84.08h-.16c-.75.07-1.5.17-2.24.3h0a21.33,21.33,0,0,0-2.1.49h0c-.69.2-1.36.42-2,.68h0c-.66.26-1.31.54-1.94.86h0A23.45,23.45,0,0,0,80,214.91l0,0c-.46.49-.89,1-1.31,1.55a.44.44,0,0,0-.08.11c-.4.51-.77,1.05-1.12,1.6l-.12.18c-.33.54-.65,1.09-.94,1.66l-.12.23c-.28.56-.55,1.14-.78,1.73a2.6,2.6,0,0,0-.1.25c-.23.59-.44,1.2-.63,1.81l-.07.25c-.18.63-.34,1.26-.46,1.9a2.07,2.07,0,0,0,0,.22,19.64,19.64,0,0,0-.29,2,.71.71,0,0,0,0,.14c-.07.71-.11,1.44-.11,2.16v34.07a23.29,23.29,0,0,0,1,6.72A63.8,63.8,0,0,0,120,246v-.18h.62v-15c0-.61,0-1.21-.08-1.81" style="fill: #000f3a"/>
        <path d="M38.9,288.18h0a23.36,23.36,0,0,1-23.36-23.36V230.76a23.36,23.36,0,1,1,46.72,0v34.06A23.36,23.36,0,0,1,38.9,288.18" style="fill: #008ae8"/>
        <path d="M38.9,288.18h0a23.36,23.36,0,0,1-23.36-23.36V230.76a23.36,23.36,0,1,1,46.72,0v34.06A23.36,23.36,0,0,1,38.9,288.18Z" style="fill: none;stroke: #000f3a;stroke-linecap: round;stroke-linejoin: round;stroke-width: 3px"/>
        <path d="M38.9,207.39h0c-.57,0-1.13,0-1.68.07H37c-.47,0-1,.09-1.42.16h-.05c-.47.07-.94.15-1.4.25h0a23,23,0,0,0-2.87.8l-.21.07h0c-.45.16-.9.33-1.34.52h0l-.05,0c-.41.18-.83.38-1.23.58h0l-.25.13c-.4.21-.8.43-1.19.66l0,0h0c-.43.26-.85.52-1.26.8h0c-.39.27-.77.55-1.14.85l0,0c-.61.48-1.2,1-1.76,1.52h0c-.54.52-1,1.05-1.53,1.61h0l0,0h0c-.44.51-.86,1-1.25,1.59h0a23.3,23.3,0,0,0-2.86,5.32l0,.08c-.22.59-.42,1.2-.6,1.82l-.06.22c-.16.59-.3,1.2-.42,1.81,0,.09,0,.18,0,.27-.11.62-.2,1.24-.25,1.88,0,.07,0,.15,0,.22-.06.66-.09,1.33-.09,2v15H16a63.89,63.89,0,0,0,45.3,25.77,23.7,23.7,0,0,0,1-6.73V230.75A23.36,23.36,0,0,0,38.9,207.39" style="fill: #000f3a"/>
        <path d="M120.61,54.08h0a52.58,52.58,0,1,0-105.15,0c0,42.47-3.56,85-12.49,126.48-8.26,38.44,19,79.77,62.79,81,.76,0,1.51,0,2.27,0s1.52,0,2.28,0c43.8-1.27,71.05-42.6,62.78-81-8.92-41.52-12.48-84-12.48-126.48" style="fill: #008ae8"/>
        <path d="M120.61,54.08h0a52.58,52.58,0,1,0-105.15,0c0,42.47-3.56,85-12.49,126.48-8.26,38.44,19,79.77,62.79,81,.76,0,1.51,0,2.27,0s1.52,0,2.28,0c43.8-1.27,71.05-42.6,62.78-81C124.17,139,120.61,96.55,120.61,54.08Z" style="fill: none;stroke: #000f3a;stroke-linecap: round;stroke-linejoin: round;stroke-width: 3px"/>
        <path d="M118.33,74.45l2.6.88q-.32-10.62-.32-21.25A52.59,52.59,0,0,0,81.81,3.34C77.83,3.6,74,4,70.24,4.41a185.15,185.15,0,0,0-32,6.37,52.49,52.49,0,0,0-22.76,43.3q0,9.95-.28,19.9l5.06-4.29q.61-.54,1.26-1a99.66,99.66,0,0,1,16.25-9.72,132.64,132.64,0,0,1,25.65.73c16.43,2.47,32.49,7.36,46,11.82,3,1,5.94,2,8.9,3" style="fill: #000f3a"/>
        <path d="M89.39,155.2l-4.65-2a19.83,19.83,0,0,0-10.37,0c-.27.05-.54.08-.81.12a129.38,129.38,0,0,1-29.63.46c-.56-.09-1.11-.21-1.66-.32a27.88,27.88,0,0,0-4.22,14.56c0,9.86,5.45,18.79,14.3,25.36,10.86.33,21.67-.92,32.39-2.57a14.76,14.76,0,0,0,6.63-3.49,14.69,14.69,0,0,0,5-5.47,14.51,14.51,0,0,0,2.32-7.25,14.82,14.82,0,0,0-.35-7.78c-1.53-4.71-4.45-9.27-9-11.65" style="fill: #fff"/>
        <path d="M89.39,155.2l-4.65-2a19.83,19.83,0,0,0-10.37,0c-.27.05-.54.08-.81.12a129.38,129.38,0,0,1-29.63.46c-.56-.09-1.11-.21-1.66-.32a27.88,27.88,0,0,0-4.22,14.56c0,9.86,5.45,18.79,14.3,25.36,10.86.33,21.67-.92,32.39-2.57a14.76,14.76,0,0,0,6.63-3.49,14.69,14.69,0,0,0,5-5.47,14.51,14.51,0,0,0,2.32-7.25,14.82,14.82,0,0,0-.35-7.78C96.83,162.14,93.91,157.58,89.39,155.2Z" style="fill: none;stroke: #000f3a;stroke-miterlimit: 10;stroke-width: 3px"/>
        <path d="M42.63,92.12a4.59,4.59,0,0,0,0,9.17h50.8a4.59,4.59,0,1,0,0-9.17Z" style="fill: #000f3a"/>
        <path d="M93.43,117.49H42.63a20.79,20.79,0,0,1,0-41.57h50.8a20.79,20.79,0,1,1,0,41.57M42.63,92.12a4.59,4.59,0,0,0,0,9.17h50.8a4.59,4.59,0,1,0,0-9.17Z" style="fill: #dd5273"/>
        <path d="M93.43,117.49H42.63a20.79,20.79,0,0,1,0-41.57h50.8a20.79,20.79,0,1,1,0,41.57ZM42.63,92.12a4.59,4.59,0,0,0,0,9.17h50.8a4.59,4.59,0,1,0,0-9.17Z" style="fill: none;stroke: #000f3a;stroke-linecap: round;stroke-linejoin: round;stroke-width: 3px"/>
        <path d="M93.43,92.12H84.34v3.77a5.43,5.43,0,0,0,4.92,5.4h1a5.43,5.43,0,0,0,4.92-5.4V92.48a4.51,4.51,0,0,0-1.77-.36" style="fill: #fff"/>
        <path d="M93.43,92.12H84.34v3.77a5.43,5.43,0,0,0,4.92,5.4h1a5.43,5.43,0,0,0,4.92-5.4V92.48A4.51,4.51,0,0,0,93.43,92.12Z" style="fill: none;stroke: #000f3a;stroke-linecap: round;stroke-linejoin: round;stroke-width: 3px"/>
        <path d="M51.75,92.12v3.77a5.43,5.43,0,0,0,4.92,5.4h1a5.43,5.43,0,0,0,4.93-5.4V92.12Z" style="fill: #fff"/>
        <path d="M51.75,92.12v3.77a5.43,5.43,0,0,0,4.92,5.4h1a5.43,5.43,0,0,0,4.93-5.4V92.12Z" style="fill: none;stroke: #000f3a;stroke-linecap: round;stroke-linejoin: round;stroke-width: 3px"/>
        <path d="M42.63,92.12a4.56,4.56,0,0,0-1.73.34v3.43a5.43,5.43,0,0,0,4.92,5.4h1a5.43,5.43,0,0,0,4.92-5.4V92.12Z" style="fill: #fff"/>
        <path d="M42.63,92.12a4.56,4.56,0,0,0-1.73.34v3.43a5.43,5.43,0,0,0,4.92,5.4h1a5.43,5.43,0,0,0,4.92-5.4V92.12Z" style="fill: none;stroke: #000f3a;stroke-linecap: round;stroke-linejoin: round;stroke-width: 3px"/>
        <path d="M62.62,92.12v3.77a5.43,5.43,0,0,0,4.92,5.4h1a5.43,5.43,0,0,0,4.92-5.4V92.12Z" style="fill: #fff"/>
        <path d="M62.62,92.12v3.77a5.43,5.43,0,0,0,4.92,5.4h1a5.43,5.43,0,0,0,4.92-5.4V92.12Z" style="fill: none;stroke: #000f3a;stroke-linecap: round;stroke-linejoin: round;stroke-width: 3px"/>
        <path d="M120.74,67.34q-.12-6.63-.13-13.26a52.42,52.42,0,0,0-3.8-19.62A315.38,315.38,0,0,0,82.65,25.1a195.33,195.33,0,0,0-29.11-3.86,145.12,145.12,0,0,0-27.71,1.48A52.38,52.38,0,0,0,15.46,54.08c0,.62,0,1.25,0,1.88a100.48,100.48,0,0,1,16.6-4,135.79,135.79,0,0,1,32.36.3c16.16,2.41,31.88,7,47.36,12.12,3,1,6,2,9,3" style="fill: #fff"/>
        <path d="M120.74,67.34q-.12-6.63-.13-13.26a52.42,52.42,0,0,0-3.8-19.62A315.38,315.38,0,0,0,82.65,25.1a195.33,195.33,0,0,0-29.11-3.86,145.12,145.12,0,0,0-27.71,1.48A52.38,52.38,0,0,0,15.46,54.08c0,.62,0,1.25,0,1.88a100.48,100.48,0,0,1,16.6-4,135.79,135.79,0,0,1,32.36.3c16.16,2.41,31.88,7,47.36,12.12C114.77,65.33,117.75,66.33,120.74,67.34Z" style="fill: none;stroke: #000f3a;stroke-miterlimit: 10;stroke-width: 3px"/>
        <path d="M66.63,27.48a202.24,202.24,0,0,1,47.58,13q2.61,1.14,5.18,2.35A52.58,52.58,0,0,0,23,26.93a197.07,197.07,0,0,1,43.63.55" style="fill: #fff"/>
        <path d="M66.63,27.48a202.24,202.24,0,0,1,47.58,13q2.61,1.14,5.18,2.35A52.58,52.58,0,0,0,23,26.93,197.07,197.07,0,0,1,66.63,27.48Z" style="fill: none;stroke: #000f3a;stroke-miterlimit: 10;stroke-width: 3px"/>
        <path d="M37.58,50.74a144.73,144.73,0,0,1,33.6-8.88C87,40,103,40,118.9,40.74A52.65,52.65,0,0,0,97.11,10.28a230.1,230.1,0,0,0-26,1.57,173,173,0,0,0-33,6.8c-4.35,1.42-8.67,3-12.91,4.86a52.3,52.3,0,0,0-9.81,30.57q0,4.94-.08,9.89c.5-.42,1-.85,1.51-1.26a109.3,109.3,0,0,1,20.69-12" style="fill: #fff"/>
        <path d="M37.58,50.74a144.73,144.73,0,0,1,33.6-8.88C87,40,103,40,118.9,40.74A52.65,52.65,0,0,0,97.11,10.28a230.1,230.1,0,0,0-26,1.57,173,173,0,0,0-33,6.8c-4.35,1.42-8.67,3-12.91,4.86a52.3,52.3,0,0,0-9.81,30.57q0,4.94-.08,9.89c.5-.42,1-.85,1.51-1.26A109.3,109.3,0,0,1,37.58,50.74Z" style="fill: none;stroke: #000f3a;stroke-miterlimit: 10;stroke-width: 3px"/>
        <path d="M70.77,216.73c0,2.27-1.23,4.11-2.74,4.11S65.3,219,65.3,216.73s1.22-4.1,2.73-4.1,2.74,1.84,2.74,4.1" style="fill: #000f3a"/>
        <path d="M68,237C43,237,20.34,228.1,4.33,213.81,12,239.67,34.71,260.7,65.76,261.6c.75,0,1.51,0,2.27,0s1.52,0,2.28,0c31-.9,53.77-21.93,61.43-47.79C115.73,228.1,93.11,237,68,237" style="fill: #0e894e"/>
        <path d="M68,237C43,237,20.34,228.1,4.33,213.81,12,239.67,34.71,260.7,65.76,261.6c.75,0,1.51,0,2.27,0s1.52,0,2.28,0c31-.9,53.77-21.93,61.43-47.79C115.73,228.1,93.11,237,68,237Z" style="fill: none;stroke: #000f3a;stroke-linecap: round;stroke-linejoin: round;stroke-width: 3px"/>
        <path d="M88,189.66a14.83,14.83,0,0,1-3.23,1.18c-11.36,1.75-22.82,3.07-34.33,2.51a142.83,142.83,0,0,1-17.61-2.06A80.5,80.5,0,0,1,20.1,188a98.1,98.1,0,0,1-15-6.48c-.72-.39-1.42-.81-2.12-1.23,0,.08,0,.16,0,.24a66.35,66.35,0,0,0-1.46,12.8,116.19,116.19,0,0,0,41.07,7.42,115.81,115.81,0,0,0,46.14-9.47Z" style="fill: #000f3a"/>
        <path d="M130.51,167.62q-2.73-14.53-4.65-29.19-.66.78-1.35,1.53a74.33,74.33,0,0,1-10.39,8.13,148.91,148.91,0,0,1-21.3,9.61,21.9,21.9,0,0,1,5.54,9.15,14.82,14.82,0,0,1,.34,7.78,14.4,14.4,0,0,1-2.31,7.25c-.19.36-.41.68-.63,1,2-.67,4-1.34,6-2,4.89-1.73,9.71-3.61,14.39-5.68a137.23,137.23,0,0,0,14.4-7.56" style="fill: #fff"/>
        <path d="M130.51,167.62q-2.73-14.53-4.65-29.19-.66.78-1.35,1.53a74.33,74.33,0,0,1-10.39,8.13,148.91,148.91,0,0,1-21.3,9.61,21.9,21.9,0,0,1,5.54,9.15,14.82,14.82,0,0,1,.34,7.78,14.4,14.4,0,0,1-2.31,7.25c-.19.36-.41.68-.63,1,2-.67,4-1.34,6-2,4.89-1.73,9.71-3.61,14.39-5.68A137.23,137.23,0,0,0,130.51,167.62Z" style="fill: none;stroke: #000f3a;stroke-miterlimit: 10;stroke-width: 3px"/>
        <path d="M82.46,178.66q-5.94-4.09-11.66-8.49-9.63-7.53-18.64-15.79c-2.75-.09-5.5-.27-8.23-.57a82.66,82.66,0,0,1-15.54-4.14,66.52,66.52,0,0,1-9.9-5.76,62.16,62.16,0,0,1-7.64-7.58c-.1-.15-.22-.29-.32-.44-.07.56-.15,1.12-.22,1.68-.14,1.11-.29,2.21-.44,3.32q-.45,3.33-.94,6.66c-.06.4-.11.8-.17,1.2q5.93,6.67,12.17,13.05a330.82,330.82,0,0,0,36,31.66,194.6,194.6,0,0,0,27.77-2.62,14.76,14.76,0,0,0,6.63-3.49,14.84,14.84,0,0,0,2-1.55q-5.52-3.45-10.87-7.14" style="fill: #fff"/>
        <path d="M82.46,178.66q-5.94-4.09-11.66-8.49-9.63-7.53-18.64-15.79c-2.75-.09-5.5-.27-8.23-.57a82.66,82.66,0,0,1-15.54-4.14,66.52,66.52,0,0,1-9.9-5.76,62.16,62.16,0,0,1-7.64-7.58c-.1-.15-.22-.29-.32-.44-.07.56-.15,1.12-.22,1.68-.14,1.11-.29,2.21-.44,3.32q-.45,3.33-.94,6.66c-.06.4-.11.8-.17,1.2q5.93,6.67,12.17,13.05a330.82,330.82,0,0,0,36,31.66,194.6,194.6,0,0,0,27.77-2.62,14.76,14.76,0,0,0,6.63-3.49,14.84,14.84,0,0,0,2-1.55Q87.81,182.35,82.46,178.66Z" style="fill: none;stroke: #000f3a;stroke-miterlimit: 10;stroke-width: 3px"/>
        <path d="M32.8,191.29a142.83,142.83,0,0,0,17.61,2.06c3,.15,6.08.16,9.11.07-1.93-2.26-3.83-4.54-5.66-6.87A221.44,221.44,0,0,1,31.2,149.89c-1.59-3.26-3.09-6.56-4.53-9.89a219.19,219.19,0,0,1-11.94-38.88c-.22-1.09-.41-2.18-.62-3.27a579,579,0,0,1-7.37,63.26,227.09,227.09,0,0,0,15.82,27.72,82,82,0,0,0,10.24,2.46" style="fill: #fff"/>
        <path d="M32.8,191.29a142.83,142.83,0,0,0,17.61,2.06c3,.15,6.08.16,9.11.07-1.93-2.26-3.83-4.54-5.66-6.87A221.44,221.44,0,0,1,31.2,149.89c-1.59-3.26-3.09-6.56-4.53-9.89a219.19,219.19,0,0,1-11.94-38.88c-.22-1.09-.41-2.18-.62-3.27a579,579,0,0,1-7.37,63.26,227.09,227.09,0,0,0,15.82,27.72A82,82,0,0,0,32.8,191.29Z" style="fill: none;stroke: #000f3a;stroke-miterlimit: 10;stroke-width: 3px"/>
        <path d="M31.2,149.89l.46.92a84.78,84.78,0,0,0,12.27,3c1.35.15,2.71.27,4.06.36h.25c1.3.09,2.6.16,3.9.2a140.12,140.12,0,0,0,21.27-1,113.84,113.84,0,0,1-22.56-3.05c-9.3-2.43-18.3-7-24.39-14.46a36.85,36.85,0,0,1-3.08-4.39c1,2.86,2.14,5.71,3.29,8.53,1.44,3.33,2.94,6.63,4.53,9.89" style="fill: #000f3a"/>
        <path d="M103.5,165.79a26.32,26.32,0,0,0-5.74-10q-2.45,1-4.94,1.9a21.9,21.9,0,0,1,5.54,9.15,14.82,14.82,0,0,1,.35,7.78,14.48,14.48,0,0,1-2.32,7.25c-.19.36-.42.68-.63,1,2-.67,4-1.34,6-2l1-.35a16.91,16.91,0,0,0,1.21-5.6,17.36,17.36,0,0,0-.4-9.12" style="fill: #000f3a"/>
        <path d="M133.54,151.76c-2.15-2.22-4.4-4.36-6.72-6.41,1.7,11.8,3.77,23.55,6.28,35.21a68,68,0,0,1-5.74,44.4,23.41,23.41,0,0,0,5.14,5.6,15.06,15.06,0,0,0,2.11,1.39,74.59,74.59,0,0,0,5.12-46.39q-3.61-16.81-6.19-33.8" style="fill: #000f3a"/>
      </g>
    </g>
  </g>
</svg>
