<svg xmlns="http://www.w3.org/2000/svg" viewBox="0 0 179.15 350.44">
  <title>Fichier 5</title>
  <g id="Calque_2" data-name="Calque 2">
    <g id="Calque_1-2" data-name="Calque 1">
      <g>
        <path d="M21.44,336.94c0,7.45,30.5,13.5,68.14,13.5s68.13-6.05,68.13-13.5-30.5-13.5-68.13-13.5-68.14,6-68.14,13.5" style="fill: #000f3a"/>
        <path d="M151.14,259.1l-11,56.87a24.21,24.21,0,0,1-47.53-9.21l11-56.88Z" style="fill: #fcc62e"/>
        <path d="M151.14,259.1l-11,56.87a24.21,24.21,0,0,1-47.53-9.21l11-56.88Z" style="fill: none;stroke: #000f3a;stroke-linecap: round;stroke-linejoin: round;stroke-width: 3px"/>
        <path d="M28,259.1,39,316a24.21,24.21,0,1,0,47.53-9.21l-11-56.88Z" style="fill: #fcc62e"/>
        <path d="M28,259.1,39,316a24.21,24.21,0,1,0,47.53-9.21l-11-56.88Z" style="fill: none;stroke: #000f3a;stroke-linecap: round;stroke-linejoin: round;stroke-width: 3px"/>
        <path d="M146,285.81l5.17-26.67C142,268.24,122.4,275,98.47,276.4l-5.89,30.36a24.12,24.12,0,0,0,1.32,13.65c22-1.58,40.93-15.11,52.06-34.6" style="fill: #000f3a"/>
        <path d="M33.19,285.8c11.13,19.5,30,33,52.06,34.61a24,24,0,0,0,1.31-13.65L80.68,276.4C56.75,275,37.12,268.24,28,259.13Z" style="fill: #000f3a"/>
        <path d="M3.35,258.51a166.83,166.83,0,0,1,7.44-27C17,214.64,26,198.83,35.72,183.76c5.18-8,10.62-15.93,16.06-23.81a18.43,18.43,0,0,1,11.75-7.2,13.52,13.52,0,0,1,7.09.44A13.53,13.53,0,0,1,76.93,156c3.64,2.89,6.66,7,7.2,11.74a19.16,19.16,0,0,1-3.21,13.4c-9.15,13.23-18.28,26.5-26.14,40.55a170.2,170.2,0,0,0-14.73,36.52,114.51,114.51,0,0,0-2.82,23.39,13.46,13.46,0,0,1-.52,6.64A13.48,13.48,0,0,1,34,294.5a13.57,13.57,0,0,1-5.14,4.59,13.49,13.49,0,0,1-6.61,2.61c-4.63.53-9.64-.22-13.4-3.21l-3.35-3.15a17.91,17.91,0,0,1-3.85-8.59,130.26,130.26,0,0,1,1.75-28.24" style="fill: #fcc62e"/>
        <path d="M3.35,258.51a166.83,166.83,0,0,1,7.44-27C17,214.64,26,198.83,35.72,183.76c5.18-8,10.62-15.93,16.06-23.81a18.43,18.43,0,0,1,11.75-7.2,13.52,13.52,0,0,1,7.09.44A13.53,13.53,0,0,1,76.93,156c3.64,2.89,6.66,7,7.2,11.74a19.16,19.16,0,0,1-3.21,13.4c-9.15,13.23-18.28,26.5-26.14,40.55a170.2,170.2,0,0,0-14.73,36.52,114.51,114.51,0,0,0-2.82,23.39,13.46,13.46,0,0,1-.52,6.64A13.48,13.48,0,0,1,34,294.5a13.57,13.57,0,0,1-5.14,4.59,13.49,13.49,0,0,1-6.61,2.61c-4.63.53-9.64-.22-13.4-3.21l-3.35-3.15a17.91,17.91,0,0,1-3.85-8.59A130.26,130.26,0,0,1,3.35,258.51Z" style="fill: none;stroke: #000f3a;stroke-linecap: round;stroke-linejoin: round;stroke-width: 3px"/>
        <path d="M76.93,156a13.53,13.53,0,0,0-6.31-2.77,13.52,13.52,0,0,0-7.09-.44A18.43,18.43,0,0,0,51.78,160c-5.44,7.88-10.88,15.76-16.06,23.81-2.71,4.23-5.37,8.51-7.93,12.86-3.32,18.63-7.27,37.23-8.85,44.52A59.48,59.48,0,0,0,17.71,249,71.64,71.64,0,0,0,31.4,297.34,13.91,13.91,0,0,0,34,294.5a13.44,13.44,0,0,0,2.76-6.3,13.46,13.46,0,0,0,.52-6.64,114.51,114.51,0,0,1,2.82-23.39,170.2,170.2,0,0,1,14.73-36.52c7.86-14.05,17-27.32,26.14-40.55a19.16,19.16,0,0,0,3.21-13.4c-.54-4.77-3.56-8.85-7.2-11.74" style="fill: #000f3a"/>
        <path d="M175.8,258.51a165.81,165.81,0,0,0-7.44-27c-6.24-16.83-15.25-32.64-24.93-47.71-5.18-8-10.62-15.93-16.06-23.81a18.43,18.43,0,0,0-11.75-7.2,13.53,13.53,0,0,0-7.09.44,13.45,13.45,0,0,0-6.3,2.77c-3.65,2.89-6.67,7-7.21,11.74a19.16,19.16,0,0,0,3.21,13.4c9.15,13.23,18.28,26.5,26.14,40.55a170.2,170.2,0,0,1,14.73,36.52,114.51,114.51,0,0,1,2.82,23.39,20.24,20.24,0,0,0,3.29,12.94,13.47,13.47,0,0,0,5.13,4.59A13.53,13.53,0,0,0,157,301.7c4.63.53,9.64-.22,13.4-3.21l3.35-3.15a17.91,17.91,0,0,0,3.85-8.59,130.26,130.26,0,0,0-1.75-28.24" style="fill: #fcc62e"/>
        <path d="M175.8,258.51a165.81,165.81,0,0,0-7.44-27c-6.24-16.83-15.25-32.64-24.93-47.71-5.18-8-10.62-15.93-16.06-23.81a18.43,18.43,0,0,0-11.75-7.2,13.53,13.53,0,0,0-7.09.44,13.45,13.45,0,0,0-6.3,2.77c-3.65,2.89-6.67,7-7.21,11.74a19.16,19.16,0,0,0,3.21,13.4c9.15,13.23,18.28,26.5,26.14,40.55a170.2,170.2,0,0,1,14.73,36.52,114.51,114.51,0,0,1,2.82,23.39,20.24,20.24,0,0,0,3.29,12.94,13.47,13.47,0,0,0,5.13,4.59A13.53,13.53,0,0,0,157,301.7c4.63.53,9.64-.22,13.4-3.21l3.35-3.15a17.91,17.91,0,0,0,3.85-8.59A130.26,130.26,0,0,0,175.8,258.51Z" style="fill: none;stroke: #000f3a;stroke-linecap: round;stroke-linejoin: round;stroke-width: 3px"/>
        <path d="M161.44,249a59.74,59.74,0,0,0-1.23-7.86c-1.58-7.29-5.52-25.89-8.85-44.52-2.56-4.35-5.22-8.63-7.93-12.86-5.17-8-10.62-15.93-16.06-23.81a18.43,18.43,0,0,0-11.75-7.2,13.53,13.53,0,0,0-7.09.44,13.45,13.45,0,0,0-6.3,2.77c-3.65,2.89-6.67,7-7.21,11.74a19.16,19.16,0,0,0,3.21,13.4c9.15,13.23,18.28,26.5,26.14,40.55a170.2,170.2,0,0,1,14.73,36.52,114.51,114.51,0,0,1,2.82,23.39,20.24,20.24,0,0,0,3.29,12.94,13.58,13.58,0,0,0,2.54,2.84A71.59,71.59,0,0,0,161.44,249" style="fill: #000f3a"/>
        <path d="M156.43,240a58.19,58.19,0,0,0-1.15-7.31c-2.93-13.53-14.61-68.85-13-82.91l5.78-42.31c3-21.69-5.86-43.56-23.6-56.38A59.19,59.19,0,0,0,95.8,40.14l-3.29-15H86.64l-3.29,15A59.23,59.23,0,0,0,54.69,51.08C37,63.9,28.12,85.77,31.09,107.46l5.78,42.31c1.61,14.06-10.07,69.38-13,82.91A56.39,56.39,0,0,0,22.73,240a67.07,67.07,0,0,0,66.85,72.44h0A67.08,67.08,0,0,0,156.43,240" style="fill: #fcc62e"/>
        <path d="M156.43,240a58.19,58.19,0,0,0-1.15-7.31c-2.93-13.53-14.61-68.85-13-82.91l5.78-42.31c3-21.69-5.86-43.56-23.6-56.38A59.19,59.19,0,0,0,95.8,40.14l-3.29-15H86.64l-3.29,15A59.23,59.23,0,0,0,54.69,51.08C37,63.9,28.12,85.77,31.09,107.46l5.78,42.31c1.61,14.06-10.07,69.38-13,82.91A56.39,56.39,0,0,0,22.73,240a67.07,67.07,0,0,0,66.85,72.44h0A67.08,67.08,0,0,0,156.43,240Z" style="fill: none;stroke: #000f3a;stroke-linecap: round;stroke-linejoin: round;stroke-width: 3px"/>
        <path d="M89.58,38.22a20.09,20.09,0,0,0,5.62-.81L92.51,25.12H86.64L84,37.41a20.11,20.11,0,0,0,5.63.81" style="fill: #000f3a"/>
        <path d="M105.41,17.34A15.84,15.84,0,1,1,89.58,1.5a15.83,15.83,0,0,1,15.83,15.84" style="fill: #fcc62e"/>
        <path d="M105.41,17.34A15.84,15.84,0,1,1,89.58,1.5,15.83,15.83,0,0,1,105.41,17.34Z" style="fill: none;stroke: #000f3a;stroke-linecap: round;stroke-linejoin: round;stroke-width: 3px"/>
        <path d="M50.55,90.07A6.43,6.43,0,1,0,57,83.65a6.42,6.42,0,0,0-6.43,6.42" style="fill: #000f3a"/>
        <path d="M115.75,90.07a6.43,6.43,0,1,0,6.42-6.42,6.42,6.42,0,0,0-6.42,6.42" style="fill: #000f3a"/>
        <path d="M92.21,270.81c0,2.18-1.18,3.94-2.63,3.94S87,273,87,270.81s1.17-3.94,2.63-3.94,2.63,1.76,2.63,3.94" style="fill: #000f3a"/>
        <path d="M124.2,105.87a14.17,14.17,0,0,0-20,1.94c-3.87,4.71-10.65,7.21-17.68,6.53a21.77,21.77,0,0,1-12.87-5.63,14.18,14.18,0,0,0-19.49,20.6,50.28,50.28,0,0,0,29.64,13.25c16.55,1.6,32.36-4.66,42.29-16.74a14.16,14.16,0,0,0-1.94-19.95" style="fill: #3aad6e"/>
        <path d="M124.2,105.87a14.17,14.17,0,0,0-20,1.94c-3.87,4.71-10.65,7.21-17.68,6.53a21.77,21.77,0,0,1-12.87-5.63,14.18,14.18,0,0,0-19.49,20.6,50.28,50.28,0,0,0,29.64,13.25c16.55,1.6,32.36-4.66,42.29-16.74A14.16,14.16,0,0,0,124.2,105.87Z" style="fill: none;stroke: #000f3a;stroke-linecap: round;stroke-linejoin: round;stroke-width: 3px"/>
        <path d="M115.2,116.82c-6.63,8.06-17.83,12.8-30,11.63A35.85,35.85,0,0,1,64,119" style="fill: none;stroke: #000f3a;stroke-linecap: round;stroke-linejoin: round;stroke-width: 3px"/>
        <path d="M89.58,288.92c-29.34,0-54.35-9.93-64.11-23.88a67.05,67.05,0,0,0,128.21,0c-9.76,13.95-34.77,23.88-64.1,23.88" style="fill: #0e894e"/>
        <path d="M89.58,288.92c-29.34,0-54.35-9.93-64.11-23.88a67.05,67.05,0,0,0,128.21,0C143.92,279,118.91,288.92,89.58,288.92Z" style="fill: none;stroke: #000f3a;stroke-linecap: round;stroke-linejoin: round;stroke-width: 3px"/>
        <path d="M38.62,261.19c0,5.4,9.25,9.78,20.66,9.78s20.66-4.38,20.66-9.78v-66H56.63s-18,65.13-18,66" style="fill: #008ae8"/>
        <path d="M38.62,261.19c0,5.4,9.25,9.78,20.66,9.78s20.66-4.38,20.66-9.78v-66H56.63S38.62,260.35,38.62,261.19Z" style="fill: none;stroke: #000f3a;stroke-linecap: round;stroke-linejoin: round;stroke-width: 3px"/>
        <path d="M79.94,195.22c0,3-5.22,5.41-11.66,5.41s-11.65-2.42-11.65-5.41,5.22-5.41,11.65-5.41,11.66,2.42,11.66,5.41" style="fill: #008ae8"/>
        <path d="M79.94,195.22c0,3-5.22,5.41-11.66,5.41s-11.65-2.42-11.65-5.41,5.22-5.41,11.65-5.41S79.94,192.23,79.94,195.22Z" style="fill: none;stroke: #000f3a;stroke-linecap: round;stroke-linejoin: round;stroke-width: 3px"/>
        <path d="M122.53,195.22H99.21v66c0,5.4,9.25,9.78,20.66,9.78s20.66-4.38,20.66-9.78c0-.84-18-66-18-66" style="fill: #008ae8"/>
        <path d="M122.53,195.22H99.21v66c0,5.4,9.25,9.78,20.66,9.78s20.66-4.38,20.66-9.78C140.53,260.35,122.53,195.22,122.53,195.22Z" style="fill: none;stroke: #000f3a;stroke-linecap: round;stroke-linejoin: round;stroke-width: 3px"/>
        <path d="M122.53,195.22c0,3-5.22,5.41-11.66,5.41s-11.66-2.42-11.66-5.41,5.22-5.41,11.66-5.41,11.66,2.42,11.66,5.41" style="fill: #008ae8"/>
        <path d="M122.53,195.22c0,3-5.22,5.41-11.66,5.41s-11.66-2.42-11.66-5.41,5.22-5.41,11.66-5.41S122.53,192.23,122.53,195.22Z" style="fill: none;stroke: #000f3a;stroke-linecap: round;stroke-linejoin: round;stroke-width: 3px"/>
        <rect x="79.94" y="213.95" width="19.27" height="26.55" style="fill: #008ae8"/>
        <rect x="79.94" y="213.95" width="19.27" height="26.55" style="fill: none;stroke: #000f3a;stroke-linecap: round;stroke-linejoin: round;stroke-width: 3px"/>
        <rect x="79.94" y="213.95" width="7.01" height="26.55" style="fill: #000f3a"/>
        <path d="M118.87,198.66c-5.26,0-9.53-2-9.53-4.43,0-1.81,2.36-3.37,5.73-4a23.28,23.28,0,0,0-4.2-.37c-6.44,0-11.66,2.42-11.66,5.41s5.22,5.41,11.66,5.41a19,19,0,0,0,9-2c-.35,0-.69,0-1,0" style="fill: #000f3a"/>
        <path d="M76.29,198.66c-5.27,0-9.53-2-9.53-4.43,0-1.81,2.36-3.37,5.73-4a23.39,23.39,0,0,0-4.21-.37c-6.43,0-11.65,2.42-11.65,5.41s5.22,5.41,11.65,5.41a19,19,0,0,0,9-2c-.34,0-.69,0-1,0" style="fill: #000f3a"/>
        <path d="M34.88,174.4c4.81,13.89,10.83,25.86,17.76,35.28" style="fill: none;stroke: #000f3a;stroke-linecap: round;stroke-linejoin: round;stroke-width: 3px"/>
        <path d="M126.52,209.68c6.92-9.41,12.94-21.39,17.75-35.28" style="fill: none;stroke: #000f3a;stroke-linecap: round;stroke-linejoin: round;stroke-width: 3px"/>
      </g>
    </g>
  </g>
</svg>
