<svg xmlns="http://www.w3.org/2000/svg" viewBox="0 0 197.03 350.44">
  <title>Fichier 6</title>
  <g id="Calque_2" data-name="Calque 2">
    <g id="Calque_1-2" data-name="Calque 1">
      <g>
        <path d="M30.38,336.94c0,7.45,30.5,13.5,68.13,13.5s68.14-6.05,68.14-13.5-30.5-13.5-68.14-13.5-68.13,6-68.13,13.5" style="fill: #000f3a"/>
        <path d="M160.08,259.1,149,316a24.2,24.2,0,1,1-47.52-9.21l11-56.88Z" style="fill: #fcc62e"/>
        <path d="M160.08,259.1,149,316a24.2,24.2,0,1,1-47.52-9.21l11-56.88Z" style="fill: none;stroke: #000f3a;stroke-linecap: round;stroke-linejoin: round;stroke-width: 3px"/>
        <path d="M37,259.1,48,316a24.2,24.2,0,1,0,47.52-9.21l-11-56.88Z" style="fill: #fcc62e"/>
        <path d="M37,259.1,48,316a24.2,24.2,0,1,0,47.52-9.21l-11-56.88Z" style="fill: none;stroke: #000f3a;stroke-linecap: round;stroke-linejoin: round;stroke-width: 3px"/>
        <path d="M154.9,285.81l5.17-26.67c-9.11,9.1-28.73,15.89-52.66,17.26l-5.89,30.36a24.12,24.12,0,0,0,1.32,13.65c22-1.58,40.93-15.11,52.06-34.6" style="fill: #000f3a"/>
        <path d="M42.13,285.8c11.13,19.5,30,33,52.06,34.61a24,24,0,0,0,1.31-13.65L89.61,276.4C65.69,275,46.06,268.24,37,259.13Z" style="fill: #000f3a"/>
        <path d="M165.36,240a56.39,56.39,0,0,0-1.14-7.31c-2.93-13.53-14.61-68.85-13-82.91L157,107.46c3-21.69-5.86-43.56-23.6-56.38a59.19,59.19,0,0,0-28.66-10.94l-3.29-15H95.58l-3.29,15A59.19,59.19,0,0,0,63.63,51.08C45.89,63.9,37.06,85.77,40,107.46l5.78,42.31c1.61,14.06-10.07,69.38-13,82.91A56.39,56.39,0,0,0,31.67,240a67.06,67.06,0,1,0,133.69,0" style="fill: #fcc62e"/>
        <path d="M165.36,240a56.39,56.39,0,0,0-1.14-7.31c-2.93-13.53-14.61-68.85-13-82.91L157,107.46c3-21.69-5.86-43.56-23.6-56.38a59.19,59.19,0,0,0-28.66-10.94l-3.29-15H95.58l-3.29,15A59.19,59.19,0,0,0,63.63,51.08C45.89,63.9,37.06,85.77,40,107.46l5.78,42.31c1.61,14.06-10.07,69.38-13,82.91A56.39,56.39,0,0,0,31.67,240a67.06,67.06,0,1,0,133.69,0Z" style="fill: none;stroke: #000f3a;stroke-linecap: round;stroke-linejoin: round;stroke-width: 3px"/>
        <path d="M98.51,38.22a20.11,20.11,0,0,0,5.63-.81l-2.69-12.29H95.58L92.89,37.41a20.09,20.09,0,0,0,5.62.81" style="fill: #000f3a"/>
        <path d="M114.35,17.34A15.84,15.84,0,1,1,98.51,1.5a15.84,15.84,0,0,1,15.84,15.84" style="fill: #fcc62e"/>
        <path d="M114.35,17.34A15.84,15.84,0,1,1,98.51,1.5,15.84,15.84,0,0,1,114.35,17.34Z" style="fill: none;stroke: #000f3a;stroke-linecap: round;stroke-linejoin: round;stroke-width: 3px"/>
        <path d="M133.14,103.87a14.17,14.17,0,0,0-20,1.94c-3.86,4.71-10.64,7.21-17.67,6.53a21.77,21.77,0,0,1-12.87-5.63A14.18,14.18,0,0,0,63.15,127.3a50.21,50.21,0,0,0,29.64,13.26c16.55,1.6,32.36-4.66,42.29-16.74a14.17,14.17,0,0,0-1.94-19.95" style="fill: #3aad6e"/>
        <path d="M133.14,103.87a14.17,14.17,0,0,0-20,1.94c-3.86,4.71-10.64,7.21-17.67,6.53a21.77,21.77,0,0,1-12.87-5.63A14.18,14.18,0,0,0,63.15,127.3a50.21,50.21,0,0,0,29.64,13.26c16.55,1.6,32.36-4.66,42.29-16.74A14.17,14.17,0,0,0,133.14,103.87Z" style="fill: none;stroke: #000f3a;stroke-linecap: round;stroke-linejoin: round;stroke-width: 3px"/>
        <path d="M124.13,114.81c-6.62,8.06-17.82,12.81-30,11.64A35.91,35.91,0,0,1,72.89,117" style="fill: none;stroke: #000f3a;stroke-linecap: round;stroke-linejoin: round;stroke-width: 3px"/>
        <path d="M40.44,194.58c2.43-13.31,4.62-27,5.3-36.4-.85-.48-1.68-1-2.49-1.51a35.08,35.08,0,0,1-2.86-2.86,32.2,32.2,0,0,1-1.85-3.16,33.63,33.63,0,0,1-1-3.57,36.83,36.83,0,0,1,0-4.07A39,39,0,0,1,39,138a49.42,49.42,0,0,1,4-6.76,69.62,69.62,0,0,1,8.13-8.16,13.39,13.39,0,0,0,3.72-5.79,13.49,13.49,0,0,0,1.55-6.94,13.43,13.43,0,0,0-1.55-6.93,13.36,13.36,0,0,0-3.72-5.8c-3.43-3.15-7.93-5.48-12.73-5.27L33.58,93a18,18,0,0,0-7.94,4.63,70.26,70.26,0,0,0-7.58,7.46,83.39,83.39,0,0,0-8.17,11A69.5,69.5,0,0,0,4.5,127.75a37.72,37.72,0,0,0-2,7.54,56.77,56.77,0,0,0-1,11.92,48.84,48.84,0,0,0,6,21.81A55.56,55.56,0,0,0,14,178.13,34,34,0,0,0,18.82,183a60.75,60.75,0,0,0,9.29,6.58,64.14,64.14,0,0,0,10.78,4.55c.52.16,1,.31,1.55.44" style="fill: #fcc62e"/>
        <path d="M40.44,194.58c2.43-13.31,4.62-27,5.3-36.4-.85-.48-1.68-1-2.49-1.51a35.08,35.08,0,0,1-2.86-2.86,32.2,32.2,0,0,1-1.85-3.16,33.63,33.63,0,0,1-1-3.57,36.83,36.83,0,0,1,0-4.07A39,39,0,0,1,39,138a49.42,49.42,0,0,1,4-6.76,69.62,69.62,0,0,1,8.13-8.16,13.39,13.39,0,0,0,3.72-5.79,13.49,13.49,0,0,0,1.55-6.94,13.43,13.43,0,0,0-1.55-6.93,13.36,13.36,0,0,0-3.72-5.8c-3.43-3.15-7.93-5.48-12.73-5.27L33.58,93a18,18,0,0,0-7.94,4.63,70.26,70.26,0,0,0-7.58,7.46,83.39,83.39,0,0,0-8.17,11A69.5,69.5,0,0,0,4.5,127.75a37.72,37.72,0,0,0-2,7.54,56.77,56.77,0,0,0-1,11.92,48.84,48.84,0,0,0,6,21.81A55.56,55.56,0,0,0,14,178.13,34,34,0,0,0,18.82,183a60.75,60.75,0,0,0,9.29,6.58,64.14,64.14,0,0,0,10.78,4.55C39.41,194.3,39.92,194.45,40.44,194.58Z" style="fill: none;stroke: #000f3a;stroke-linecap: round;stroke-linejoin: round;stroke-width: 3px"/>
        <path d="M108.69,101.87a20.64,20.64,0,0,1-.54-4.62,20.43,20.43,0,0,1,.77-5.51H88.11a20.43,20.43,0,0,1,.77,5.51,20.64,20.64,0,0,1-.54,4.62Z" style="fill: #008ae8"/>
        <path d="M108.69,101.87a20.64,20.64,0,0,1-.54-4.62,20.43,20.43,0,0,1,.77-5.51H88.11a20.43,20.43,0,0,1,.77,5.51,20.64,20.64,0,0,1-.54,4.62Z" style="fill: none;stroke: #000f3a;stroke-linecap: round;stroke-linejoin: round;stroke-width: 3px"/>
        <path d="M88.88,97.25A20.66,20.66,0,1,1,68.22,76.59,20.66,20.66,0,0,1,88.88,97.25" style="fill: #008ae8"/>
        <path d="M88.88,97.25A20.66,20.66,0,1,1,68.22,76.59,20.66,20.66,0,0,1,88.88,97.25Z" style="fill: none;stroke: #000f3a;stroke-linecap: round;stroke-linejoin: round;stroke-width: 3px"/>
        <path d="M81.3,97.25A13.08,13.08,0,1,1,68.22,84.17,13.08,13.08,0,0,1,81.3,97.25" style="fill: #008ae8"/>
        <circle cx="68.22" cy="97.25" r="13.08" transform="translate(-9.25 7.2) rotate(-5.65)" style="fill: none;stroke: #000f3a;stroke-linecap: round;stroke-linejoin: round;stroke-width: 3px"/>
        <path d="M68.22,94.18a13.06,13.06,0,0,1,12.08,8.08,13.08,13.08,0,1,0-24.17,0,13.08,13.08,0,0,1,12.09-8.08" style="fill: #000f3a"/>
        <path d="M156.59,194.58c-2.43-13.31-4.62-27-5.3-36.4.84-.48,1.68-1,2.48-1.51a33.68,33.68,0,0,0,2.87-2.86,32.2,32.2,0,0,0,1.85-3.16,33.63,33.63,0,0,0,1-3.57,34.53,34.53,0,0,0,0-4.07,37.36,37.36,0,0,0-1.38-5,49.42,49.42,0,0,0-4-6.76,69.62,69.62,0,0,0-8.13-8.16,13.39,13.39,0,0,1-3.72-5.79,13.59,13.59,0,0,1-1.56-6.94,13.53,13.53,0,0,1,1.56-6.93,13.36,13.36,0,0,1,3.72-5.8c3.43-3.15,7.93-5.48,12.72-5.27l4.79.64a18,18,0,0,1,7.94,4.63,70.26,70.26,0,0,1,7.58,7.46,83.39,83.39,0,0,1,8.17,11,69.5,69.5,0,0,1,5.39,11.65,37.72,37.72,0,0,1,2,7.54,56.77,56.77,0,0,1,1,11.92,55.64,55.64,0,0,1-1.75,11.4,49.35,49.35,0,0,1-10.64,19.52,34,34,0,0,1-4.87,4.88,60.35,60.35,0,0,1-9.3,6.58,63.69,63.69,0,0,1-10.77,4.55c-.52.16-1,.31-1.55.44" style="fill: #fcc62e"/>
        <path d="M156.59,194.58c-2.43-13.31-4.62-27-5.3-36.4.84-.48,1.68-1,2.48-1.51a33.68,33.68,0,0,0,2.87-2.86,32.2,32.2,0,0,0,1.85-3.16,33.63,33.63,0,0,0,1-3.57,34.53,34.53,0,0,0,0-4.07,37.36,37.36,0,0,0-1.38-5,49.42,49.42,0,0,0-4-6.76,69.62,69.62,0,0,0-8.13-8.16,13.39,13.39,0,0,1-3.72-5.79,13.59,13.59,0,0,1-1.56-6.94,13.53,13.53,0,0,1,1.56-6.93,13.36,13.36,0,0,1,3.72-5.8c3.43-3.15,7.93-5.48,12.72-5.27l4.79.64a18,18,0,0,1,7.94,4.63,70.26,70.26,0,0,1,7.58,7.46,83.39,83.39,0,0,1,8.17,11,69.5,69.5,0,0,1,5.39,11.65,37.72,37.72,0,0,1,2,7.54,56.77,56.77,0,0,1,1,11.92,55.64,55.64,0,0,1-1.75,11.4,49.35,49.35,0,0,1-10.64,19.52,34,34,0,0,1-4.87,4.88,60.35,60.35,0,0,1-9.3,6.58,63.69,63.69,0,0,1-10.77,4.55C157.62,194.3,157.11,194.45,156.59,194.58Z" style="fill: none;stroke: #000f3a;stroke-linecap: round;stroke-linejoin: round;stroke-width: 3px"/>
        <path d="M149.47,97.25a20.66,20.66,0,1,1-20.66-20.66,20.66,20.66,0,0,1,20.66,20.66" style="fill: #008ae8"/>
        <path d="M149.47,97.25a20.66,20.66,0,1,1-20.66-20.66A20.66,20.66,0,0,1,149.47,97.25Z" style="fill: none;stroke: #000f3a;stroke-linecap: round;stroke-linejoin: round;stroke-width: 3px"/>
        <path d="M141.89,97.25a13.08,13.08,0,1,1-13.08-13.08,13.08,13.08,0,0,1,13.08,13.08" style="fill: #008ae8"/>
        <path d="M141.89,97.25a13.08,13.08,0,1,1-13.08-13.08A13.08,13.08,0,0,1,141.89,97.25Z" style="fill: none;stroke: #000f3a;stroke-linecap: round;stroke-linejoin: round;stroke-width: 3px"/>
        <path d="M128.81,94.18a13.06,13.06,0,0,1,12.08,8.08,13.08,13.08,0,1,0-24.17,0,13.08,13.08,0,0,1,12.09-8.08" style="fill: #000f3a"/>
        <path d="M47.69,95l-.19,0,.18.12s0-.07,0-.1" style="fill: #000f3a"/>
        <path d="M58.8,115.63a21.27,21.27,0,0,1-2.74-1.7,13.19,13.19,0,0,1-1.25,3.39,13.36,13.36,0,0,1-3.72,5.8A70,70,0,0,0,43.24,131l.64,4.69c.55-.52,1.1-1,1.67-1.51a70.06,70.06,0,0,1,9.91-5.88,13.57,13.57,0,0,0,4.95-4.56,14.16,14.16,0,0,1-1.61-8.07" style="fill: #000f3a"/>
        <path d="M145.94,123.12a13.5,13.5,0,0,1-3.73-5.79,14.5,14.5,0,0,1-1.18-3.15l-.06-.25c-.39.28-.79.55-1.21.81l-.1.08c-.45.28-.91.54-1.39.78a14.72,14.72,0,0,1-.2,1.74l0,.15c0,.24-.1.48-.15.72a2.29,2.29,0,0,0-.07.28c-.06.21-.12.43-.19.64l-.12.35c-.07.2-.14.39-.22.59s-.11.27-.17.41-.15.35-.23.52-.3.58-.46.87c-.07.13-.16.25-.24.38a13.59,13.59,0,0,1-1.11,1.57c-9.93,12.08-25.74,18.34-42.29,16.74a51.28,51.28,0,0,1-19.15-5.75,56.37,56.37,0,0,0,14.66,6.35c17.42,4.74,35.48.93,48.33-10.17a15.19,15.19,0,0,0,1.64-1.67,2.81,2.81,0,0,1,3.56-.58l0,0a69.09,69.09,0,0,1,9.79,6.07c.49.43,1,.88,1.44,1.33l.71-5.2a70,70,0,0,0-7.85-7.84" style="fill: #000f3a"/>
        <path d="M88.62,100.44h0l0,.17c0-.06,0-.12,0-.17" style="fill: #000f3a"/>
        <path d="M88.34,101.87h0a20.24,20.24,0,0,1-2,5.27h24.31a20.24,20.24,0,0,1-2-5.27Z" style="fill: #000f3a"/>
        <path d="M101.14,270.81c0,2.18-1.17,3.94-2.63,3.94s-2.62-1.76-2.62-3.94,1.17-3.94,2.62-3.94,2.63,1.76,2.63,3.94" style="fill: #000f3a"/>
        <path d="M30.33,190.71a63.69,63.69,0,0,0,8.56,3.43c.52.16,1,.31,1.55.45,2.43-13.32,4.62-27.05,5.3-36.41-.85-.48-1.68-1-2.49-1.51-.43-.38-.84-.78-1.25-1.19-1.35,9.5-3.1,19-7,27.69a29.35,29.35,0,0,1-3.59,6.28c-.35.44-.73.85-1.11,1.26" style="fill: #000f3a"/>
        <path d="M166.56,190.71a64.35,64.35,0,0,1-8.57,3.43c-.52.16-1,.31-1.55.45-2.43-13.32-4.62-27.05-5.3-36.41.85-.48,1.68-1,2.49-1.51.43-.38.84-.78,1.25-1.19,1.35,9.5,3.11,19,7,27.69a29.35,29.35,0,0,0,3.59,6.28c.35.44.73.85,1.12,1.26" style="fill: #000f3a"/>
        <path d="M98.51,288.92c-29.33,0-54.34-9.93-64.1-23.88a67.05,67.05,0,0,0,128.21,0c-9.76,13.95-34.77,23.88-64.11,23.88" style="fill: #0e894e"/>
        <path d="M98.51,288.92c-29.33,0-54.34-9.93-64.1-23.88a67.05,67.05,0,0,0,128.21,0C152.86,279,127.85,288.92,98.51,288.92Z" style="fill: none;stroke: #000f3a;stroke-linecap: round;stroke-linejoin: round;stroke-width: 3px"/>
      </g>
    </g>
  </g>
</svg>
