<svg xmlns="http://www.w3.org/2000/svg" viewBox="0 0 190.12 321.65">
  <title>Fichier 3</title>
  <g id="Calque_2" data-name="Calque 2">
    <g id="Calque_1-2" data-name="Calque 1">
      <g>
        <path d="M143.52,259.3H45.22A38.89,38.89,0,0,1,6.33,220.42V147.11a38.89,38.89,0,0,1,38.89-38.88h98.3a38.89,38.89,0,0,1,38.89,38.88v73.31a38.89,38.89,0,0,1-38.89,38.88" style="fill: #ff9cbd"/>
        <rect x="6.33" y="108.23" width="176.08" height="151.07" rx="38.89" ry="38.89" style="fill: none;stroke: #000f3a;stroke-miterlimit: 10;stroke-width: 3px"/>
        <path d="M182.41,216.17V164.72a64.52,64.52,0,0,0-4.54-7.88,69,69,0,0,1-12.17-38.79v-2.87a38.67,38.67,0,0,0-22.18-7H45.22a38.64,38.64,0,0,0-20.8,6v3.78a69,69,0,0,1-12.17,38.79,64,64,0,0,0-5.92,10.9v45.65A51.81,51.81,0,0,0,16.6,228.14C35,246.71,64.18,255.38,91.74,256c1.1,0,2.21,0,3.32,0s2.22,0,3.32,0c27.56-.63,56.76-9.3,75.14-27.87a52.38,52.38,0,0,0,8.89-12" style="fill: #000f3a"/>
        <path d="M165.84,308.15c0,7.46-31.66,13.5-70.71,13.5s-70.7-6-70.7-13.5,31.65-13.5,70.7-13.5,70.71,6.05,70.71,13.5" style="fill: #000f3a"/>
        <path d="M108.43,274.9a91,91,0,0,0,1.3-40.85,28.5,28.5,0,1,1,56-10.69,147.4,147.4,0,0,1-2.23,66.28A28.52,28.52,0,0,1,136,310.78a28,28,0,0,1-7.38-1,28.48,28.48,0,0,1-20.16-34.9" style="fill: #008ae8"/>
        <path d="M108.43,274.9a91,91,0,0,0,1.3-40.85,28.5,28.5,0,1,1,56-10.69,147.4,147.4,0,0,1-2.23,66.28A28.52,28.52,0,0,1,136,310.78a28,28,0,0,1-7.38-1A28.48,28.48,0,0,1,108.43,274.9Z" style="fill: none;stroke: #000f3a;stroke-linecap: round;stroke-linejoin: round;stroke-width: 3px"/>
        <path d="M165.72,223.36a28.5,28.5,0,1,0-56,10.69,91,91,0,0,1-1.3,40.85,28.28,28.28,0,0,0,0,14.81c22.42-3,44.85-13.82,59.69-33.91l.26-.37a151.15,151.15,0,0,0-2.68-32.07" style="fill: #000f3a"/>
        <path d="M81.69,274.9a91,91,0,0,1-1.3-40.85,28.5,28.5,0,0,0-56-10.69,147.26,147.26,0,0,0,2.23,66.28,28.52,28.52,0,0,0,27.52,21.14,28.1,28.1,0,0,0,7.38-1,28.49,28.49,0,0,0,20.16-34.9" style="fill: #008ae8"/>
        <path d="M81.69,274.9a91,91,0,0,1-1.3-40.85,28.5,28.5,0,0,0-56-10.69,147.26,147.26,0,0,0,2.23,66.28,28.52,28.52,0,0,0,27.52,21.14,28.1,28.1,0,0,0,7.38-1A28.49,28.49,0,0,0,81.69,274.9Z" style="fill: none;stroke: #000f3a;stroke-linecap: round;stroke-linejoin: round;stroke-width: 3px"/>
        <path d="M80.39,234.05a28.5,28.5,0,0,0-56-10.69,151.08,151.08,0,0,0-2.69,31.86l.41.58c14.82,20.05,37.18,30.84,59.56,33.89a28.31,28.31,0,0,0,0-14.79,91,91,0,0,1-1.3-40.85" style="fill: #000f3a"/>
        <path d="M177.87,167.44a88,88,0,0,1-12.17-44.66v-10.2a70.65,70.65,0,0,0-61.49-70h0a60.43,60.43,0,0,0-1.51-8.78,78.16,78.16,0,0,0-2.58-8.27,2.71,2.71,0,0,0-5.12.17,68.39,68.39,0,0,1-2.78,7.41,42.43,42.43,0,0,1-5.63,9.39h0a70.63,70.63,0,0,0-62.17,70.12v10.2a88,88,0,0,1-12.17,44.66c-14.84,25.23-15.16,59.38,4.35,82.07C35,270.88,64.18,280.87,91.74,281.59c1.1,0,2.21.05,3.32.05s2.22,0,3.32-.05c27.56-.72,56.76-10.71,75.14-32.08,19.51-22.69,19.19-56.84,4.35-82.07" style="fill: #008ae8"/>
        <path d="M177.87,167.44a88,88,0,0,1-12.17-44.66v-10.2a70.65,70.65,0,0,0-61.49-70h0a60.43,60.43,0,0,0-1.51-8.78,78.16,78.16,0,0,0-2.58-8.27,2.71,2.71,0,0,0-5.12.17,68.39,68.39,0,0,1-2.78,7.41,42.43,42.43,0,0,1-5.63,9.39h0a70.63,70.63,0,0,0-62.17,70.12v10.2a88,88,0,0,1-12.17,44.66c-14.84,25.23-15.16,59.38,4.35,82.07C35,270.88,64.18,280.87,91.74,281.59c1.1,0,2.21.05,3.32.05s2.22,0,3.32-.05c27.56-.72,56.76-10.71,75.14-32.08C193,226.82,192.71,192.67,177.87,167.44Z" style="fill: none;stroke: #000f3a;stroke-linecap: round;stroke-linejoin: round;stroke-width: 3px"/>
        <path d="M95.06,259.68A146.19,146.19,0,0,1,5,228.79,61.06,61.06,0,0,0,16.6,249.51C35,270.88,64.18,280.87,91.74,281.59c1.1,0,2.21.05,3.32.05s2.22,0,3.32-.05c27.56-.72,56.76-10.71,75.14-32.08a61.06,61.06,0,0,0,11.64-20.72,146.19,146.19,0,0,1-90.1,30.89" style="fill: #fcc62e"/>
        <path d="M95.06,259.68A146.19,146.19,0,0,1,5,228.79,61.06,61.06,0,0,0,16.6,249.51C35,270.88,64.18,280.87,91.74,281.59c1.1,0,2.21.05,3.32.05s2.22,0,3.32-.05c27.56-.72,56.76-10.71,75.14-32.08a61.06,61.06,0,0,0,11.64-20.72A146.19,146.19,0,0,1,95.06,259.68Z" style="fill: none;stroke: #000f3a;stroke-linecap: round;stroke-linejoin: round;stroke-width: 3px"/>
        <path d="M83.34,96.17a8.39,8.39,0,1,0,0,16.77h23.44a8.39,8.39,0,1,0,0-16.77Z" style="fill: #000f3a"/>
        <path d="M106.78,128.82H83.34a24.27,24.27,0,0,1,0-48.54h23.44a24.27,24.27,0,1,1,0,48.54M83.34,96.17a8.39,8.39,0,1,0,0,16.77h23.44a8.39,8.39,0,1,0,0-16.77Z" style="fill: #ff9cbd"/>
        <path d="M106.78,128.82H83.34a24.27,24.27,0,0,1,0-48.54h23.44a24.27,24.27,0,1,1,0,48.54ZM83.34,96.17a8.39,8.39,0,1,0,0,16.77h23.44a8.39,8.39,0,1,0,0-16.77Z" style="fill: none;stroke: #000f3a;stroke-miterlimit: 10;stroke-width: 3px"/>
        <path d="M106.78,112.94h-15v17.45A5.23,5.23,0,0,0,97,135.56a5.48,5.48,0,0,0,4.54-2.73v13.93a5.17,5.17,0,0,0,10.33,0V111.22a8.36,8.36,0,0,1-5.07,1.72" style="fill: #fff"/>
        <path d="M106.78,112.94h-15v17.45A5.23,5.23,0,0,0,97,135.56a5.48,5.48,0,0,0,4.54-2.73v13.93a5.17,5.17,0,0,0,10.33,0V111.22A8.36,8.36,0,0,1,106.78,112.94Z" style="fill: none;stroke: #000f3a;stroke-linecap: round;stroke-linejoin: round;stroke-width: 3px"/>
        <path d="M97.8,237.59c0,2.27-1.22,4.1-2.73,4.1s-2.74-1.83-2.74-4.1,1.23-4.1,2.74-4.1,2.73,1.83,2.73,4.1" style="fill: #000f3a"/>
        <path d="M66.46,175.15a50.89,50.89,0,0,0-9.17-12.54,98.06,98.06,0,0,0-9.75-8.69c-7.27-5.82-15.13-11.26-21.11-18.5A33.87,33.87,0,0,1,24,131.31a88.14,88.14,0,0,1-8.94,31l.55.48c5.65,4.84,11.75,9.13,17.36,14,4.49,3.9,10.92,9.32,11,15.79.11,5.44-3.73,8.71-7.57,11.86A82.79,82.79,0,0,1,21.21,213a182,182,0,0,1-18.65,6.21,63.41,63.41,0,0,0,10.09,25.17c16.68-4.89,32.92-11.21,45.71-23.3a38.24,38.24,0,0,0,11.69-34.94,41.75,41.75,0,0,0-3.59-11" style="fill: #ff9cbd"/>
        <path d="M66.46,175.15a50.89,50.89,0,0,0-9.17-12.54,98.06,98.06,0,0,0-9.75-8.69c-7.27-5.82-15.13-11.26-21.11-18.5A33.87,33.87,0,0,1,24,131.31a88.14,88.14,0,0,1-8.94,31l.55.48c5.65,4.84,11.75,9.13,17.36,14,4.49,3.9,10.92,9.32,11,15.79.11,5.44-3.73,8.71-7.57,11.86A82.79,82.79,0,0,1,21.21,213a182,182,0,0,1-18.65,6.21,63.41,63.41,0,0,0,10.09,25.17c16.68-4.89,32.92-11.21,45.71-23.3a38.24,38.24,0,0,0,11.69-34.94A41.75,41.75,0,0,0,66.46,175.15Z" style="fill: none;stroke: #000f3a;stroke-miterlimit: 10;stroke-width: 3px"/>
        <path d="M123.66,175.15a51.07,51.07,0,0,1,9.17-12.54,98.06,98.06,0,0,1,9.75-8.69c7.27-5.82,15.13-11.26,21.11-18.5a33.87,33.87,0,0,0,2.43-4.11,88.14,88.14,0,0,0,8.94,31l-.55.48c-5.65,4.84-11.75,9.13-17.36,14-4.49,3.9-10.92,9.32-11,15.79-.11,5.44,3.73,8.71,7.57,11.86A83,83,0,0,0,168.9,213a183,183,0,0,0,18.66,6.21,63.41,63.41,0,0,1-10.09,25.17c-16.68-4.89-32.92-11.21-45.71-23.3a38.21,38.21,0,0,1-11.69-34.94,41.39,41.39,0,0,1,3.59-11" style="fill: #ff9cbd"/>
        <path d="M123.66,175.15a51.07,51.07,0,0,1,9.17-12.54,98.06,98.06,0,0,1,9.75-8.69c7.27-5.82,15.13-11.26,21.11-18.5a33.87,33.87,0,0,0,2.43-4.11,88.14,88.14,0,0,0,8.94,31l-.55.48c-5.65,4.84-11.75,9.13-17.36,14-4.49,3.9-10.92,9.32-11,15.79-.11,5.44,3.73,8.71,7.57,11.86A83,83,0,0,0,168.9,213a183,183,0,0,0,18.66,6.21,63.41,63.41,0,0,1-10.09,25.17c-16.68-4.89-32.92-11.21-45.71-23.3a38.21,38.21,0,0,1-11.69-34.94A41.39,41.39,0,0,1,123.66,175.15Z" style="fill: none;stroke: #000f3a;stroke-miterlimit: 10;stroke-width: 3px"/>
        <path d="M180.2,212.64c-1.37.44-2.75.83-4.13,1.16-11,2.68-22.07,2.47-33.19.55A55.38,55.38,0,0,1,131.27,211c-5.57-2.3-10.94-4.67-15.84-8.23-6.76-4.93-11.26-13.08-10.26-21.14a18.25,18.25,0,0,1,2.77-7.6,22.33,22.33,0,0,1,16.89-10.19,20.49,20.49,0,0,1,9.83,1.55c4,1.86,7.27,4.8,11.39,6.45,7.09,2.84,15.59,4,22.74.72.34-.16.67-.32,1-.5" style="fill: #008ae8"/>
        <path d="M180.2,212.64c-1.37.44-2.75.83-4.13,1.16-11,2.68-22.07,2.47-33.19.55A55.38,55.38,0,0,1,131.27,211c-5.57-2.3-10.94-4.67-15.84-8.23-6.76-4.93-11.26-13.08-10.26-21.14a18.25,18.25,0,0,1,2.77-7.6,22.33,22.33,0,0,1,16.89-10.19,20.49,20.49,0,0,1,9.83,1.55c4,1.86,7.27,4.8,11.39,6.45,7.09,2.84,15.59,4,22.74.72.34-.16.67-.32,1-.5" style="fill: none;stroke: #000f3a;stroke-linecap: round;stroke-linejoin: round;stroke-width: 3px"/>
        <path d="M120.83,206a40.17,40.17,0,0,0,5.94,11c9.07,11.95,21.3,20.16,34.41,27q2.94-1.49,5.81-3.09c-12.85-4.48-25-10.41-35.08-19.91a41.7,41.7,0,0,1-3.11-3.29c2.73.56,5.49,1,8.29,1.37a54.34,54.34,0,0,0,12.09.37,86.75,86.75,0,0,0,23.13-4.87,83,83,0,0,1-29.28-.28,55.11,55.11,0,0,1-11.6-3.39c-3.16-1.3-6.25-2.63-9.23-4.19l.36.86h0l-.36-.86c-.46-.24-.92-.48-1.37-.73" style="fill: #000f3a"/>
        <path d="M9.92,212.64c1.37.44,2.75.83,4.13,1.16,11,2.68,22.07,2.47,33.19.55A55.38,55.38,0,0,0,58.85,211c5.57-2.3,10.94-4.67,15.84-8.23C81.45,197.8,86,189.65,85,181.59a18.25,18.25,0,0,0-2.77-7.6A22.33,22.33,0,0,0,65.29,163.8a20.49,20.49,0,0,0-9.83,1.55c-4,1.86-7.27,4.8-11.39,6.45-7.09,2.84-15.59,4-22.74.72-.34-.16-.67-.32-1-.5" style="fill: #008ae8"/>
        <path d="M9.92,212.64c1.37.44,2.75.83,4.13,1.16,11,2.68,22.07,2.47,33.19.55A55.38,55.38,0,0,0,58.85,211c5.57-2.3,10.94-4.67,15.84-8.23C81.45,197.8,86,189.65,85,181.59a18.25,18.25,0,0,0-2.77-7.6A22.33,22.33,0,0,0,65.29,163.8a20.49,20.49,0,0,0-9.83,1.55c-4,1.86-7.27,4.8-11.39,6.45-7.09,2.84-15.59,4-22.74.72-.34-.16-.67-.32-1-.5" style="fill: none;stroke: #000f3a;stroke-linecap: round;stroke-linejoin: round;stroke-width: 3px"/>
        <path d="M94.75,256.67A146.22,146.22,0,0,1,36.41,240c10.29-6,19.73-13.27,27.09-23a40.17,40.17,0,0,0,5.94-11c-.45.25-.91.49-1.37.73-.11.29-.24.58-.36.86h0c.12-.28.25-.57.36-.86-3,1.56-6.07,2.89-9.22,4.19a55.38,55.38,0,0,1-11.61,3.39,83,83,0,0,1-29.28.28,86.75,86.75,0,0,0,23.13,4.87,54.33,54.33,0,0,0,12.09-.37c2.8-.39,5.56-.81,8.29-1.37a41.7,41.7,0,0,1-3.11,3.29c-10,9.5-22.23,15.43-35.08,19.91q2.87,1.6,5.81,3.09h0a147.14,147.14,0,0,0,108.41,9.4,146.64,146.64,0,0,1-42.78,3.23" style="fill: #000f3a"/>
        <path d="M97.36,42.7a20.55,20.55,0,0,0,6.74-1.15,62.87,62.87,0,0,0-1.4-7.79,78.16,78.16,0,0,0-2.58-8.27,2.71,2.71,0,0,0-5.12.17,68.39,68.39,0,0,1-2.78,7.41,44.08,44.08,0,0,1-4.14,7.4,20.53,20.53,0,0,0,9.28,2.23" style="fill: #000f3a"/>
        <path d="M113.15,19.69A18.19,18.19,0,1,1,95,1.5a18.19,18.19,0,0,1,18.19,18.19" style="fill: #008ae8"/>
        <path d="M113.15,19.69A18.19,18.19,0,1,1,95,1.5,18.19,18.19,0,0,1,113.15,19.69Z" style="fill: none;stroke: #000f3a;stroke-miterlimit: 10;stroke-width: 3px"/>
        <path d="M45,100.52a6.43,6.43,0,1,1-6.42-6.43A6.43,6.43,0,0,1,45,100.52" style="fill: #000f3a"/>
        <path d="M158,100.52a6.43,6.43,0,1,1-6.43-6.43,6.43,6.43,0,0,1,6.43,6.43" style="fill: #000f3a"/>
      </g>
    </g>
  </g>
</svg>
