<svg xmlns="http://www.w3.org/2000/svg" viewBox="0 0 216.24 355.45"><defs><style>.cls-1{fill:#ffe136;}.cls-1,.cls-3,.cls-4,.cls-5{stroke:#000d3b;stroke-linecap:round;stroke-linejoin:round;stroke-width:3px;}.cls-2{fill:#000d3b;}.cls-3{fill:#557dff;}.cls-4{fill:#18d6c4;}.cls-5{fill:#fff;}</style></defs><g id="Calque_2" data-name="Calque 2"><g id="Colors"><rect class="cls-1" x="7.01" y="123.13" width="200.65" height="172.16" rx="38.89"/><path class="cls-2" d="M207.66,246.14V187.5a72,72,0,0,0-5.18-9,78.69,78.69,0,0,1-13.86-44.21v-3.26a44.09,44.09,0,0,0-25.27-7.92h-112A44.13,44.13,0,0,0,27.61,130v4.3a78.68,78.68,0,0,1-13.85,44.21A72,72,0,0,0,7,190.94v52a58.82,58.82,0,0,0,11.7,16.81c20.95,21.16,54.22,31,85.62,31.76,1.26,0,2.53,0,3.79,0s2.52,0,3.79,0c31.4-.72,64.67-10.6,85.62-31.76A59.83,59.83,0,0,0,207.66,246.14Z"/><path class="cls-3" d="M123.35,313.07a103.53,103.53,0,0,0,1.49-46.55,32.48,32.48,0,1,1,63.8-12.19,167.86,167.86,0,0,1-2.54,75.53,32.48,32.48,0,1,1-62.75-16.79Z"/><path class="cls-2" d="M188.64,254.33a32.48,32.48,0,1,0-63.8,12.19,103.48,103.48,0,0,1-1.49,46.54,32.38,32.38,0,0,0,0,16.87c25.56-3.43,51.12-15.74,68-38.63.11-.14.2-.28.3-.42A172.4,172.4,0,0,0,188.64,254.33Z"/><path class="cls-3" d="M92.89,313.07a103.53,103.53,0,0,1-1.49-46.55,32.48,32.48,0,0,0-63.81-12.19,168,168,0,0,0,2.55,75.53,32.48,32.48,0,0,0,62.75-16.79Z"/><path class="cls-2" d="M91.4,266.52a32.48,32.48,0,0,0-63.81-12.19,172,172,0,0,0-3.05,36.3c.15.22.3.45.46.67,16.88,22.84,42.37,35.14,67.87,38.61a32.41,32.41,0,0,0,0-16.85A103.48,103.48,0,0,1,91.4,266.52Z"/><path class="cls-3" d="M202.48,190.6a100.38,100.38,0,0,1-13.86-50.89V128.08a80.5,80.5,0,0,0-70.07-79.81h0a68.51,68.51,0,0,0-1.73-10,88.38,88.38,0,0,0-2.93-9.42,3.08,3.08,0,0,0-5.83.2,79.62,79.62,0,0,1-3.18,8.44,47.38,47.38,0,0,1-6.42,10.69h0a80.52,80.52,0,0,0-70.86,79.91v11.63A100.37,100.37,0,0,1,13.76,190.6c-16.92,28.75-17.29,67.68,5,93.53,20.95,24.36,54.22,35.74,85.62,36.56,1.26,0,2.53.05,3.79.05s2.52,0,3.79-.05c31.4-.82,64.67-12.2,85.62-36.56C219.77,258.28,219.4,219.35,202.48,190.6Z"/><path class="cls-4" d="M108.12,295.72A166.57,166.57,0,0,1,5.45,260.52a69.35,69.35,0,0,0,13.26,23.61c20.95,24.36,54.22,35.74,85.62,36.56,1.26,0,2.53.05,3.79.05s2.52,0,3.79-.05c31.4-.82,64.67-12.2,85.62-36.56a69.35,69.35,0,0,0,13.26-23.61A166.59,166.59,0,0,1,108.12,295.72Z"/><path class="cls-2" d="M94.76,109.38a9.56,9.56,0,0,0,0,19.11h26.72a9.56,9.56,0,0,0,0-19.11Z"/><path class="cls-1" d="M121.48,146.59H94.76a27.66,27.66,0,1,1,0-55.31h26.72a27.66,27.66,0,0,1,0,55.31ZM94.76,109.38a9.56,9.56,0,0,0,0,19.11h26.72a9.56,9.56,0,0,0,0-19.11Z"/><path class="cls-5" d="M121.48,128.49H104.42v19.9a6,6,0,0,0,5.89,5.88,6.22,6.22,0,0,0,5.17-3.1V167a5.89,5.89,0,0,0,11.77,0V126.53A9.45,9.45,0,0,1,121.48,128.49Z"/><ellipse class="cls-2" cx="108.13" cy="270.55" rx="3.12" ry="4.68"/><path class="cls-1" d="M75.53,199.39A58.21,58.21,0,0,0,65.07,185.1,111,111,0,0,0,54,175.2c-8.29-6.63-17.25-12.84-24.06-21.08a38.75,38.75,0,0,1-2.77-4.69A100.28,100.28,0,0,1,17,184.72l.63.55c6.44,5.51,13.38,10.4,19.79,16,5.11,4.44,12.43,10.63,12.58,18,.12,6.2-4.25,9.92-8.64,13.52A94.33,94.33,0,0,1,24,242.49a209.35,209.35,0,0,1-21.26,7.08A72.41,72.41,0,0,0,14.2,278.25c19-5.57,37.52-12.77,52.1-26.55a43.59,43.59,0,0,0,13.32-39.82A47.58,47.58,0,0,0,75.53,199.39Z"/><path class="cls-1" d="M140.71,199.39a58.43,58.43,0,0,1,10.45-14.29,112.21,112.21,0,0,1,11.11-9.9c8.29-6.63,17.25-12.84,24-21.08a38.82,38.82,0,0,0,2.78-4.69,100.47,100.47,0,0,0,10.18,35.29c-.2.19-.41.37-.62.55-6.44,5.51-13.39,10.4-19.79,16-5.12,4.44-12.43,10.63-12.58,18-.12,6.2,4.25,9.92,8.64,13.52a94.33,94.33,0,0,0,17.34,9.74,209.35,209.35,0,0,0,21.26,7.08A72.28,72.28,0,0,1,202,278.25c-19-5.57-37.51-12.77-52.09-26.55a43.59,43.59,0,0,1-13.32-39.82A47.58,47.58,0,0,1,140.71,199.39Z"/><path class="cls-3" d="M205.15,242.12c-1.56.49-3.14.94-4.71,1.32-12.56,3.05-25.16,2.81-37.83.62a62.39,62.39,0,0,1-13.22-3.86c-6.36-2.62-12.48-5.32-18-9.38-7.71-5.61-12.84-14.91-11.7-24.09a20.83,20.83,0,0,1,3.16-8.66,25.39,25.39,0,0,1,19.25-11.61,23.29,23.29,0,0,1,11.2,1.76c4.5,2.12,8.28,5.47,13,7.35,8.08,3.24,17.76,4.52,25.91.82.39-.18.77-.37,1.15-.57"/><path class="cls-2" d="M137.49,234.59a45.39,45.39,0,0,0,6.77,12.55c10.34,13.61,24.27,23,39.2,30.77,2.24-1.13,4.45-2.3,6.63-3.53-14.64-5.1-28.52-11.86-40-22.68a46.26,46.26,0,0,1-3.54-3.76c3.11.64,6.25,1.13,9.45,1.57a62.8,62.8,0,0,0,13.77.42,99.21,99.21,0,0,0,26.36-5.55,94.69,94.69,0,0,1-33.36-.32,62.31,62.31,0,0,1-13.23-3.86c-3.6-1.48-7.12-3-10.51-4.77.13.33.27.65.41,1h0c-.14-.33-.28-.65-.41-1C138.53,235.16,138,234.88,137.49,234.59Z"/><path class="cls-3" d="M11.09,242.12c1.56.49,3.14.94,4.71,1.32,12.56,3.05,25.16,2.81,37.82.62a62.31,62.31,0,0,0,13.23-3.86c6.36-2.62,12.48-5.32,18.05-9.38,7.71-5.61,12.84-14.91,11.7-24.09a20.83,20.83,0,0,0-3.16-8.66,25.39,25.39,0,0,0-19.25-11.61A23.29,23.29,0,0,0,63,188.22c-4.5,2.12-8.28,5.47-13,7.35-8.08,3.24-17.76,4.52-25.91.82-.39-.18-.77-.37-1.15-.57"/><path class="cls-2" d="M107.76,292.29a166.8,166.8,0,0,1-66.48-19c11.73-6.88,22.49-15.13,30.87-26.17a45.7,45.7,0,0,0,6.78-12.55c-.52.29-1.05.57-1.57.84-.13.33-.27.65-.41,1h0c.14-.33.28-.65.41-1-3.39,1.77-6.91,3.29-10.51,4.77a62.31,62.31,0,0,1-13.23,3.86,94.69,94.69,0,0,1-33.36.32,99.21,99.21,0,0,0,26.36,5.55,62.8,62.8,0,0,0,13.77-.42c3.2-.44,6.34-.93,9.45-1.57a46.26,46.26,0,0,1-3.54,3.76c-11.46,10.82-25.34,17.58-40,22.68,2.18,1.23,4.39,2.4,6.63,3.53h0a167.7,167.7,0,0,0,123.54,10.71A167.35,167.35,0,0,1,107.76,292.29Z"/><path class="cls-2" d="M110.74,48.45a23.5,23.5,0,0,0,7.68-1.31,68.75,68.75,0,0,0-1.6-8.88,88.38,88.38,0,0,0-2.93-9.42,3.08,3.08,0,0,0-5.83.2,79.62,79.62,0,0,1-3.18,8.44,50.46,50.46,0,0,1-4.72,8.43A23.39,23.39,0,0,0,110.74,48.45Z"/><circle class="cls-3" cx="108" cy="22.23" r="20.73"/><circle class="cls-2" cx="43.72" cy="114.34" r="7.32"/><circle class="cls-2" cx="172.52" cy="114.34" r="7.32"/></g></g></svg>