<svg xmlns="http://www.w3.org/2000/svg" viewBox="0 0 186.72 337.33"><defs><style>.cls-1{fill:#ff5f5f;}.cls-1,.cls-3,.cls-4,.cls-5,.cls-7,.cls-8{stroke:#000d3b;stroke-width:3px;}.cls-1,.cls-3,.cls-4,.cls-5,.cls-8{stroke-linecap:round;stroke-linejoin:round;}.cls-2{fill:#000d3b;}.cls-3{fill:#ffb6b6;}.cls-4{fill:none;}.cls-5{fill:#557dff;}.cls-6,.cls-7{fill:#fff;}.cls-6{opacity:0.6;}.cls-7{stroke-miterlimit:10;}.cls-8{fill:#1b62e0;}</style></defs><g id="Calque_2" data-name="Calque 2"><g id="Colors"><path class="cls-1" d="M119.76,228c4.54,4.9,9.08,9.76,12.39,16a70.16,70.16,0,0,1,8.06,27.89c.62,8.83-1.68,18.74,3.14,26.73,6,10,21.21,13.28,30.75,6.44a23,23,0,0,0,9.58-14c4.45-21.59-1.24-44.67-10.69-64.16a99.94,99.94,0,0,0-11.5-19c-6.79-8.49-14.91-17.54-25-22.09-7.58-3.41-17.39-2.83-23.47,3.3a16.79,16.79,0,0,0-5.44,6.58c-3.54,7.54-1.18,15.72,3.49,22.18A108.89,108.89,0,0,0,119.76,228Z"/><path class="cls-2" d="M170.79,231.44c-3.1,16.44-6.21,33-5.71,49.77a91.91,91.91,0,0,0,4.47,26.17c-9.28,3.35-21.07-.27-26.2-8.79-4.57-7.57-2.75-16.87-3.07-25.33.35-2.22.66-4.44.81-6.61a83.21,83.21,0,0,0-4.92-34.18c-2.87-7.86-7.42-14.32-12-20.84-1.34-1.92-2.68-3.84-4-5.81l4.1-14.61Z"/><path class="cls-1" d="M67,228c-4.54,4.9-9.08,9.76-12.39,16a70,70,0,0,0-8.06,27.89c-.62,8.83,1.68,18.74-3.14,26.73-6,10-21.21,13.28-30.75,6.44A23,23,0,0,1,3,291c-4.45-21.59,1.24-44.67,10.69-64.16a99.94,99.94,0,0,1,11.5-19c6.79-8.49,14.91-17.54,25-22.09,7.58-3.41,17.39-2.83,23.47,3.3a16.79,16.79,0,0,1,5.44,6.58c3.54,7.54,1.18,15.72-3.49,22.18A108.89,108.89,0,0,1,67,228Z"/><path class="cls-2" d="M15.92,231.44c3.11,16.44,6.22,33,5.71,49.77a91.9,91.9,0,0,1-4.46,26.17c9.28,3.35,21.07-.27,26.2-8.79,4.57-7.57,2.75-16.87,3.07-25.33-.35-2.22-.66-4.44-.81-6.61a83.21,83.21,0,0,1,4.92-34.18c2.87-7.86,7.42-14.32,12-20.84,1.34-1.92,2.67-3.84,4-5.81l-4.1-14.61Z"/><rect class="cls-1" x="28.14" y="244" width="53.25" height="92.07" rx="26.62" transform="translate(-45.28 12.35) rotate(-9.12)"/><rect class="cls-1" x="85.92" y="263.41" width="92.07" height="53.25" rx="26.62" transform="translate(-175.33 374.36) rotate(-80.88)"/><path class="cls-2" d="M78,266.65a26.62,26.62,0,0,0-52.57,8.44l1.85,11.52a83.8,83.8,0,0,0,20.43,17.71,86.35,86.35,0,0,0,35.73,12.31A26.59,26.59,0,0,0,84.13,305Z"/><path class="cls-2" d="M159.47,286.61l1.85-11.52a26.62,26.62,0,0,0-22.07-30.5h0a26.61,26.61,0,0,0-30.5,22.06L102.59,305a26.59,26.59,0,0,0,.72,11.65A86.35,86.35,0,0,0,139,304.32,83.67,83.67,0,0,0,159.47,286.61Z"/><path class="cls-1" d="M169.25,189.59l-6.78-15.9a110.37,110.37,0,0,1-8.87-43.38v-56A60.24,60.24,0,0,0,93.36,14.06h0A60.24,60.24,0,0,0,33.12,74.29v56a110.55,110.55,0,0,1-8.87,43.38l-6.78,15.9c-16.09,37.68-2.91,82,32,103.53a83.34,83.34,0,0,0,43.92,12.37h0a83.28,83.28,0,0,0,43.91-12.37C172.15,271.62,185.34,227.27,169.25,189.59Z"/><path class="cls-2" d="M153.12,66.85a60.73,60.73,0,0,0-1.28-6.92h0c-.08-.31-.17-.62-.25-.94s-.13-.48-.19-.71c-.18-.66-.38-1.31-.58-2l-.21-.68c-.22-.68-.46-1.35-.7-2-.07-.18-.13-.36-.19-.54-.3-.79-.61-1.57-.94-2.35a1,1,0,0,0-.07-.15c-.71-1.68-1.51-3.32-2.37-4.91l-.28-.5c-.34-.61-.68-1.21-1-1.8-.14-.23-.29-.46-.43-.7-.32-.52-.65-1-1-1.54l-.51-.76c-.33-.48-.67-1-1-1.42-.18-.26-.37-.51-.56-.76-.34-.46-.7-.92-1.05-1.37l-.59-.72c-.37-.46-.76-.92-1.15-1.36l-.57-.65c-.45-.5-.91-1-1.37-1.48l-.42-.45c-.63-.63-1.26-1.26-1.91-1.86l-.07-.07c-.62-.57-1.24-1.13-1.88-1.68l-.63-.52-1.4-1.15-.79-.6-1.32-1-.86-.6c-.44-.3-.88-.6-1.33-.89l-.9-.58L124,22.42c-.31-.19-.61-.37-.92-.54l-1.44-.79-.9-.47c-.54-.28-1.08-.54-1.63-.8-.25-.12-.5-.25-.76-.36-.8-.37-1.62-.72-2.44-1.05l-.2-.08c-.76-.3-1.53-.59-2.3-.86l-.86-.29-1.69-.55-1-.29-1.59-.43-1.09-.26-1.57-.35-1.12-.22c-.53-.1-1.07-.19-1.6-.27l-1.12-.17c-.56-.08-1.12-.14-1.68-.2-.36,0-.71-.09-1.07-.12-.62-.06-1.24-.1-1.87-.14l-.92-.06c-.93,0-1.87-.06-2.81-.06h0c-1,0-1.92,0-2.87.07l-.94.06c-.63,0-1.26.08-1.89.14-.38,0-.74.08-1.11.12-.57.07-1.13.13-1.69.21l-1.17.18-1.59.28c-.4.07-.79.15-1.19.24l-1.53.34L78.2,16l-1.49.41-1.17.35-1.45.47-1.15.4q-.72.25-1.44.54l-1.11.44L69,19.22l-1,.47-1.51.74-.92.46c-.72.37-1.43.77-2.13,1.17l-.85.51c-.54.32-1.09.65-1.62,1-.33.21-.64.43-1,.65s-.84.56-1.25.85l-1,.74-1.12.85c-.35.26-.68.54-1,.81s-.71.57-1,.87-.67.58-1,.87l-1,.89c-.33.31-.66.62-1,.94s-.63.61-.93.92-.64.65-1,1l-.87,1c-.31.34-.62.68-.92,1s-.55.65-.82,1-.6.71-.89,1.08-.51.66-.76,1-.57.75-.85,1.14-.46.66-.69,1-.56.8-.83,1.21l-.44.7c-.58.92-1.14,1.86-1.68,2.81l-.55,1-.68,1.32c-.18.36-.37.72-.54,1.08s-.41.89-.61,1.33-.34.75-.5,1.13-.37.9-.55,1.35-.31.78-.46,1.17-.33.91-.49,1.37-.28.8-.41,1.2l-.43,1.39c-.12.41-.23.82-.35,1.24s-.25.93-.37,1.4-.2.85-.29,1.28-.21.94-.31,1.41c0,.13,0,.25-.08.37h0a61.14,61.14,0,0,0-1,7.83L35,70c0,.14-.06.28-.08.41,20.36-3.3,40.81-6.24,61.42-6.61,19.47-.34,39.21,1.69,57.68,7.65C153.75,69.89,153.45,68.36,153.12,66.85Z"/><path class="cls-3" d="M53.9,130.44a16.15,16.15,0,0,0,22.74-2.22c4.41-5.36,12.13-8.21,20.14-7.44a24.81,24.81,0,0,1,14.67,6.42,16.16,16.16,0,1,0,22.21-23.47,57.23,57.23,0,0,0-33.77-15.1C81,86.81,63,93.94,51.69,107.7A16.15,16.15,0,0,0,53.9,130.44Z"/><path class="cls-4" d="M64.16,118c7.56-9.18,20.31-14.59,34.18-13.26a41,41,0,0,1,24.22,10.77"/><path class="cls-5" d="M137.27,272.16A137.75,137.75,0,0,1,93.36,279h0a137.57,137.57,0,0,1-43.92-6.83c-17.76-6-29.89-15.35-35.39-25.78a81.36,81.36,0,0,0,35.39,46.75,83.34,83.34,0,0,0,43.92,12.37h0a83.28,83.28,0,0,0,43.91-12.37,81.37,81.37,0,0,0,35.4-46.75C167.16,256.8,155,266.11,137.27,272.16Z"/><path class="cls-6" d="M19.12,221.31A39.49,39.49,0,0,1,36.4,188a7.79,7.79,0,0,1,10.67,2.71,8,8,0,0,1-2.71,10.67c-.53.37-1,.75-1.56,1.15l1.63-1.3a32.32,32.32,0,0,0-5.6,5.79l1.2-1.62a33.05,33.05,0,0,0-4.09,7.32l.73-1.85a32.78,32.78,0,0,0-2,7.8l.24-2a32.36,32.36,0,0,0-.21,4.51c.1,4.08-3.57,8-7.72,7.84a7.94,7.94,0,0,1-7.85-7.72Z"/><path class="cls-7" d="M38.46,201.74a34,34,0,0,0,4,1.16,32.51,32.51,0,0,0-3.12,3.41,33.49,33.49,0,0,0-3.08,5.56,31.63,31.63,0,0,0-1.37,5.07,41.94,41.94,0,0,1-5.84-2.41,38,38,0,0,1-8.17-5.64,41.58,41.58,0,0,1,2.59-6.38,37.37,37.37,0,0,1,5.27-7.74,31.53,31.53,0,0,0,4.11,3.89A33.49,33.49,0,0,0,38.46,201.74Z"/><path class="cls-4" d="M19.12,221.31A39.49,39.49,0,0,1,36.4,188a7.79,7.79,0,0,1,10.67,2.71,8,8,0,0,1-2.71,10.67c-.53.37-1,.75-1.56,1.15l1.63-1.3a32.32,32.32,0,0,0-5.6,5.79l1.2-1.62a33.05,33.05,0,0,0-4.09,7.32l.73-1.85a32.78,32.78,0,0,0-2,7.8l.24-2a32.36,32.36,0,0,0-.21,4.51c.1,4.08-3.57,8-7.72,7.84a7.94,7.94,0,0,1-7.85-7.72Z"/><path class="cls-2" d="M52.57,92.25a8.55,8.55,0,0,0,8.55-8.55H44A8.55,8.55,0,0,0,52.57,92.25Z"/><path class="cls-2" d="M134.15,92.25a8.55,8.55,0,0,0,8.55-8.55H125.6A8.55,8.55,0,0,0,134.15,92.25Z"/><ellipse class="cls-2" cx="93.36" cy="252.08" rx="3.12" ry="4.68"/><path class="cls-2" d="M151.14,59.88l.72,0a60.24,60.24,0,0,0-58.5-45.87h0A60.24,60.24,0,0,0,33.24,70.68L35,70c0,.14-.06.28-.08.41,20.36-3.31,40.81-6.24,61.42-6.61,19.47-.34,39.21,1.69,57.68,7.65A60.38,60.38,0,0,0,151.14,59.88Z"/><path class="cls-5" d="M90.1,58.35c20.57-1.31,41.2-.05,61.76,1.58a60.24,60.24,0,0,0-58.5-45.87h0A60.24,60.24,0,0,0,33.24,70.68C51.17,63.23,70.67,59.6,90.1,58.35Z"/><path class="cls-8" d="M33.12,102.23V74.29q0-1.61.09-3.21L10.67,85C17.21,94.23,25,99.53,33.12,102.23Z"/><circle class="cls-1" cx="93.23" cy="19.55" r="18.05"/><path class="cls-2" d="M117.51,20.39c0-.44,0-.87-.06-1.31A60.82,60.82,0,0,0,111,16.69,18,18,0,1,1,75.2,20c0,.14,0,.28,0,.42a21.17,21.17,0,1,0,42.33,0Z"/></g></g></svg>