<svg xmlns="http://www.w3.org/2000/svg" viewBox="0 0 191.76 328.41"><defs><style>.cls-1{fill:#ffe136;}.cls-1,.cls-3,.cls-4,.cls-5{stroke:#000d3b;stroke-width:3px;}.cls-1,.cls-3,.cls-4{stroke-linecap:round;stroke-linejoin:round;}.cls-2{fill:#000d3b;}.cls-3{fill:#ff5f5f;}.cls-4{fill:#557dff;}.cls-5{fill:#fff;stroke-miterlimit:10;}</style></defs><g id="Calque_2" data-name="Calque 2"><g id="Colors"><path class="cls-1" d="M86.64,311.23c1.23-5.38.9-11.63-2.15-16.46-4.77-7.55-8.24-15.92-9.19-24.85-1.16-11,3.58-21.07-4.13-30.68C65.74,232.48,56,230.57,48,233.33c-12.7,4.38-15.32,18.52-15.21,30.33v.8c.16,18,7.85,49.74,24.48,60C68.07,331.15,83.9,323.26,86.64,311.23Z"/><path class="cls-1" d="M36.47,198.91h0a19.58,19.58,0,0,1,19.58,19.58v69.9a2.4,2.4,0,0,1-2.4,2.4H19.29a2.4,2.4,0,0,1-2.4-2.4v-69.9a19.58,19.58,0,0,1,19.58-19.58Z" transform="matrix(-0.81, -0.58, 0.58, -0.81, -76.87, 464.92)"/><path class="cls-1" d="M138.11,198.91h34.36a2.4,2.4,0,0,1,2.4,2.4v69.9a19.58,19.58,0,0,1-19.58,19.58h0a19.58,19.58,0,0,1-19.58-19.58V201.3A2.4,2.4,0,0,1,138.11,198.91Z" transform="translate(-113.74 136.73) rotate(-35.72)"/><path class="cls-2" d="M150.44,271.64l4.34,6a19.5,19.5,0,0,0,9.92,7.19c.56-3.58,1-7.17,1.32-10.77.82-9.09-.09-18-1.45-27A73.34,73.34,0,0,1,150.44,271.64Z"/><path class="cls-2" d="M27.49,247.1c-1.36,9-2.27,17.91-1.45,27,.33,3.57.75,7.13,1.31,10.68a19.52,19.52,0,0,0,9.63-7.1l4.47-6.23A73.31,73.31,0,0,1,27.49,247.1Z"/><path class="cls-1" d="M104.9,311.23c-1.23-5.38-.9-11.63,2.15-16.46,4.77-7.55,8.24-15.92,9.19-24.85,1.16-11-3.58-21.07,4.13-30.68,5.43-6.76,15.18-8.67,23.18-5.91,12.7,4.38,15.32,18.52,15.21,30.33v.8c-.16,18-7.85,49.74-24.48,60C123.47,331.15,107.64,323.26,104.9,311.23Z"/><path class="cls-2" d="M75.3,269.92c-1.16-11,3.58-21.07-4.13-30.68C65.74,232.48,56,230.57,48,233.33c-6.52,2.25-10.37,7.08-12.57,12.84-.26,1.22-.5,2.46-.69,3.7a95.84,95.84,0,0,0-1.42,20.41c10.86,19.79,30.16,34.46,53.89,37.36a20.67,20.67,0,0,0-2.71-12.87C79.72,287.22,76.25,278.85,75.3,269.92Z"/><path class="cls-2" d="M143.55,233.33c-8-2.76-17.75-.85-23.18,5.91-7.71,9.61-3,19.66-4.13,30.68-.95,8.93-4.42,17.3-9.19,24.85a20.69,20.69,0,0,0-2.71,12.9c23.84-2.84,43.22-17.54,54.11-37.39A96.5,96.5,0,0,0,157,249.87c-.12-.77-.25-1.53-.4-2.29C154.54,241.2,150.6,235.76,143.55,233.33Z"/><path class="cls-1" d="M164.19,201.36a98.56,98.56,0,0,1-7-36.22V89.25A61.34,61.34,0,0,0,95.88,27.9h0A61.35,61.35,0,0,0,34.53,89.25v75.89a98.55,98.55,0,0,1-7,36.22c-.4,1-.71,1.87-.88,2.45-13.47,45,20,92.48,69.19,92.48h0c49.15,0,82.66-47.5,69.19-92.48C164.9,203.23,164.59,202.38,164.19,201.36Z"/><ellipse class="cls-2" cx="95.83" cy="244.92" rx="3" ry="4.49"/><path class="cls-3" d="M96.18,264a118.84,118.84,0,0,1-70.45-23c7.43,30.63,34.72,55.32,70.15,55.32h0c35.23,0,62.41-24.4,70-54.79A118.84,118.84,0,0,1,96.18,264Z"/><circle class="cls-2" cx="57.84" cy="100.75" r="8.22"/><circle class="cls-2" cx="133.43" cy="100.75" r="8.22"/><path class="cls-2" d="M54.91,126.83a30.89,30.89,0,0,1-20.38-2.38V136a41.33,41.33,0,0,0,13.59,2.29c1.08,0,2.14-.06,3.2-.14A30,30,0,0,1,54.91,126.83Z"/><path class="cls-2" d="M136.63,126.83A30.89,30.89,0,0,0,157,124.45V136a41.33,41.33,0,0,1-13.59,2.29c-1.08,0-2.14-.06-3.2-.14A30,30,0,0,0,136.63,126.83Z"/><path class="cls-3" d="M143.42,65.15a31.09,31.09,0,0,0-29.66,21.94h0a30.7,30.7,0,0,0-36,0h0a31.25,31.25,0,1,0,.82,15.1h0a19.78,19.78,0,0,1,34.26-.21h0a31.07,31.07,0,1,0,30.54-36.89ZM48.12,115.1A18.73,18.73,0,1,1,66.75,96.37,18.69,18.69,0,0,1,48.12,115.1Zm95.3,0a18.73,18.73,0,1,1,18.64-18.73A18.68,18.68,0,0,1,143.42,115.1Z"/><path class="cls-2" d="M143.42,65.15a31.09,31.09,0,0,0-29.66,21.94h0a31.08,31.08,0,0,0-4.52-2.68,36.44,36.44,0,0,0-2,11.5,20,20,0,0,1,5.64,6.13h0a31.07,31.07,0,1,0,30.54-36.89Zm0,60.62a29.4,29.4,0,1,1,29.25-29.4A29.33,29.33,0,0,1,143.42,125.77Z"/><path class="cls-2" d="M17.06,96.37A31,31,0,0,0,78.66,102h0a20,20,0,0,1,5.64-6.13,36.44,36.44,0,0,0-2-11.5,31.08,31.08,0,0,0-4.52,2.68h0a31,31,0,0,0-60.72,9.28Zm1.81,0a29.25,29.25,0,1,1,29.25,29.4A29.32,29.32,0,0,1,18.87,96.37Z"/><path class="cls-2" d="M81.27,131a10.41,10.41,0,1,0,0,20.81h29.1a10.41,10.41,0,1,0,0-20.81Z"/><path class="cls-4" d="M110.37,171.52H81.27a30.13,30.13,0,1,1,0-60.25h29.1a30.13,30.13,0,1,1,0,60.25ZM81.27,131a10.41,10.41,0,1,0,0,20.81h29.1a10.41,10.41,0,1,0,0-20.81Z"/><path class="cls-5" d="M81.27,131a10.09,10.09,0,0,0-2.07.21v6.25a8.22,8.22,0,0,0,16.43,0V131Z"/><path class="cls-5" d="M112.06,131.14a10.41,10.41,0,0,0-1.69-.15H95.63v6.46a8.22,8.22,0,0,0,16.43,0Z"/><path class="cls-2" d="M98.62,42.18a20.32,20.32,0,0,0,17.91-10.7A61.12,61.12,0,0,0,95.88,27.9h0A61.51,61.51,0,0,0,80,30,20.33,20.33,0,0,0,98.62,42.18Z"/><circle class="cls-1" cx="95.63" cy="18.85" r="17.35"/></g></g></svg>